<svg xmlns="http://www.w3.org/2000/svg" viewBox="0 0 500 500"><!--Image Folder--><g id="freepik--background-simple--inject-1--inject-7"><path d="M386.55,221.64C358.94,209,334.31,190,311.93,169.7c-27.75-25.23-49-63.17-86.31-75.52-19-6.3-38.61-5.34-57.3.38-34.25,10.5-65.5,37-84.83,64.11-19.76,27.73-31.43,65.48-16.13,97.92,17.39,36.86,62.79,47.87,86.18,80.68,3.33,4.67,6.28,9.62,9.24,14.55L79.62,385.09l96.52,26.33,9.21-6.83c11.91,5.72,38.4,9.7,69.19,9.7,41.92,0,75.91-7.38,75.91-16.47,0-2.77-3.16-5.37-8.7-7.66,52.72-14,100.48-45.62,103.41-100.26C426.7,261.06,413.4,234,386.55,221.64Z" style="fill:#90CAF9"></path><path d="M386.55,221.64C358.94,209,334.31,190,311.93,169.7c-27.75-25.23-49-63.17-86.31-75.52-19-6.3-38.61-5.34-57.3.38-34.25,10.5-65.5,37-84.83,64.11-19.76,27.73-31.43,65.48-16.13,97.92,17.39,36.86,62.79,47.87,86.18,80.68,3.33,4.67,6.28,9.62,9.24,14.55L79.62,385.09l96.52,26.33,9.21-6.83c11.91,5.72,38.4,9.7,69.19,9.7,41.92,0,75.91-7.38,75.91-16.47,0-2.77-3.16-5.37-8.7-7.66,52.72-14,100.48-45.62,103.41-100.26C426.7,261.06,413.4,234,386.55,221.64Z" style="fill:#fff;opacity:0.7000000000000001"></path></g><g id="freepik--Plants--inject-1--inject-7"><path d="M339.73,173.82c3,1.31,10.36,1.15,10.36,1.15s-1.58-4.82-1.72-5.11c-1.61-3.38-6.71-9-10.87-8.39a5,5,0,0,0-4,6.22C334.21,170.56,337.17,172.7,339.73,173.82Z" style="fill:#90CAF9"></path><path d="M436.07,148.78c-4.16-.44-9.11,5.26-10.64,8.68-.13.3-1.66,5.15-1.58,5.15h.09c-.79.9-1.62,1.87-2.51,2.94-1.63,2-3.46,4.28-5.27,6.9a86.64,86.64,0,0,0-5.47,8.7A64.22,64.22,0,0,0,406,191.66a.65.65,0,0,0,0,.13c0-1.23,0-4.66-.07-4.93-.48-3.71-3.59-10.59-7.71-11.35a5,5,0,0,0-5.72,4.66c-.24,3,1.9,5.9,4,7.76,2.35,2.1,8.88,4.13,9.4,4.29a85.7,85.7,0,0,0-2.76,11.39c-.4,2.24-.73,4.51-1,6.79,0-1.06,0-2-.05-2.15-.49-3.71-3.6-10.59-7.72-11.35a5,5,0,0,0-5.72,4.66c-.24,2.95,1.9,5.9,4,7.76s7.64,3.73,9.11,4.2c-.11.88-.23,1.75-.33,2.63-.51,4.2-1,8.4-1.59,12.51-.21,1.44-.47,2.86-.73,4.28,0-.95,0-1.74,0-1.86-.48-3.71-3.59-10.6-7.71-11.36a5,5,0,0,0-5.72,4.66c-.24,3,1.9,5.9,4,7.76s7.11,3.56,8.85,4.12c-.3,1.45-.61,2.89-1,4.28-.27.94-.46,1.86-.78,2.79s-.6,1.85-.89,2.76c-.63,1.73-1.27,3.52-1.93,5.19-.44,1.17-.89,2.27-1.34,3.38.23-1.43.61-4.26.62-4.5a19.31,19.31,0,0,0-2.59-9.36,5.76,5.76,0,0,0-.06-1.1,5,5,0,0,0-6.07-4.21c-4.05,1.08-6.61,8.19-6.81,11.93,0,.22.14,2.62.25,4.14-.2-.88-.39-1.74-.61-2.64-.42-1.8-.9-3.57-1.41-5.48-.27-.92-.55-1.84-.83-2.77s-.66-1.88-1-2.83c-.8-2.19-1.72-4.37-2.7-6.55,1.57-.38,7.12-1.79,9.35-3.5s4.56-4.48,4.54-7.44a5,5,0,0,0-5.35-5.08c-4.17.46-7.78,7.09-8.54,10.76,0,.22-.29,2.91-.4,4.4-.6-1.31-1.18-2.61-1.83-3.91-1.86-3.75-3.86-7.49-5.84-11.23-.61-1.14-1.2-2.29-1.8-3.43.56-.13,7.19-1.67,9.69-3.58,2.21-1.71,4.57-4.49,4.54-7.45a5,5,0,0,0-5.35-5.07c-4.17.45-7.78,7.09-8.54,10.75-.06.28-.4,4.15-.45,5.14-1.31-2.53-2.59-5.06-3.76-7.6a87.08,87.08,0,0,1-4.09-10.57c.26,0,7.19-1.63,9.75-3.59,2.21-1.7,4.56-4.48,4.54-7.44a5,5,0,0,0-5.35-5.08c-4.17.45-7.78,7.09-8.54,10.76-.06.28-.43,4.45-.45,5.21-.06-.21-.15-.42-.21-.63a63.09,63.09,0,0,1-2.12-11.15c-.24-2.08-.34-4.09-.4-6,1.32-.16,7.34-1,9.84-2.47s5-4,5.33-6.9a5,5,0,0,0-4.76-5.63c-4.19,0-8.51,6.19-9.67,9.75-.06.19-.48,2.23-.77,3.72,0-.88,0-1.79,0-2.63,0-3.17.21-6.07.41-8.64.12-1.46.26-2.78.41-4,1.21-.83,6.06-4.25,7.55-6.7s2.64-5.83,1.56-8.58a5,5,0,0,0-6.83-2.8c-3.72,1.92-4.7,9.41-4.09,13.1.06.32,1.46,5.22,1.53,5.17l.07-.05c-.16,1.18-.32,2.45-.47,3.84-.26,2.57-.52,5.48-.6,8.66a88.21,88.21,0,0,0,.25,10.27,64.56,64.56,0,0,0,1.9,11.34l0,.13c-.66-1-2.6-3.87-2.77-4.07-2.45-2.83-8.84-6.86-12.7-5.22a5,5,0,0,0-2.2,7c1.43,2.59,4.84,3.87,7.61,4.27,3.11.46,9.68-1.45,10.2-1.6a89.58,89.58,0,0,0,4,11c.9,2.09,1.88,4.16,2.88,6.23-.6-.87-1.14-1.65-1.23-1.75-2.44-2.83-8.84-6.86-12.7-5.22a5,5,0,0,0-2.19,7c1.42,2.59,4.83,3.87,7.6,4.28s8.43-1.1,9.92-1.52c.39.79.77,1.58,1.17,2.37,1.9,3.78,3.82,7.55,5.58,11.31.62,1.32,1.18,2.64,1.75,4-.53-.78-1-1.43-1.06-1.52-2.45-2.83-8.85-6.86-12.7-5.22a5,5,0,0,0-2.2,7c1.42,2.59,4.84,3.87,7.6,4.28s7.89-1,9.65-1.45c.54,1.37,1.09,2.75,1.55,4.1.3.94.65,1.81.89,2.77s.52,1.86.78,2.78c.43,1.79.88,3.64,1.26,5.4.27,1.22.5,2.38.74,3.56-.6-1.32-1.84-3.89-2-4.09-2-3.17-7.7-8.12-11.77-7.09a5,5,0,0,0-3.23,6.63c1,2.78,4.19,4.57,6.86,5.38,2.94.9,9.46.08,10.27,0,.39,2,.75,3.85,1.06,5.64,1.1,6.22,1.78,11.45,2.2,15.1.08.65.14,1.23.2,1.78H366.76l4.6,89.85h21.49l4.61-89.85H385.71c.08-.18.17-.35.26-.54,1.61-3.36,3.85-8.18,6.26-14.09.77-1.86,1.55-3.87,2.33-5.94.79.17,7.24,1.48,10.25.8,2.72-.62,6-2.16,7.25-4.86a5,5,0,0,0-2.74-6.85c-4-1.33-10,3.18-12.26,6.19-.13.18-1.33,2.26-2.07,3.59.31-.85.63-1.67.94-2.54.64-1.73,1.22-3.47,1.85-5.35l.83-2.77c.3-.92.49-1.93.75-2.9.54-2.27,1-4.59,1.36-7,1.52.56,6.92,2.44,9.72,2.24s6.29-1.22,7.9-3.7a5,5,0,0,0-1.66-7.19c-3.73-1.92-10.41,1.62-13.06,4.26-.16.17-1.85,2.27-2.76,3.45.22-1.42.45-2.83.63-4.27.52-4.15.91-8.37,1.32-12.58.12-1.29.27-2.58.4-3.86.54.2,6.91,2.58,10.05,2.36,2.79-.2,6.29-1.22,7.9-3.7a5,5,0,0,0-1.67-7.19c-3.72-1.92-10.4,1.62-13.05,4.26-.2.2-2.63,3.23-3.21,4,.3-2.83.63-5.64,1.06-8.41a85.63,85.63,0,0,1,2.42-11.06c.25.09,6.89,2.6,10.1,2.37,2.79-.19,6.29-1.22,7.9-3.7a5,5,0,0,0-1.66-7.18c-3.73-1.93-10.4,1.62-13.06,4.25-.21.21-2.81,3.48-3.25,4.11.07-.21.11-.44.17-.65a64.73,64.73,0,0,1,4.38-10.47c1-1.86,2-3.59,3-5.25,1.19.59,6.66,3.25,9.57,3.36s6.38-.52,8.26-2.81a5,5,0,0,0-.87-7.32c-3.49-2.32-10.52.46-13.44,2.8-.16.12-1.63,1.59-2.69,2.68.47-.75.95-1.52,1.41-2.22,1.76-2.64,3.52-5,5.11-7,.91-1.15,1.75-2.17,2.55-3.12,1.47,0,7.4-.21,10-1.42s5.43-3.41,6-6.3A5,5,0,0,0,436.07,148.78ZM389.94,260.72c-2.51,5.79-4.83,10.52-6.5,13.8-.33.67-.63,1.25-.91,1.79h-.28c-.08-.64-.18-1.34-.28-2.13-.51-3.69-1.31-8.95-2.55-15.2-.39-2-.85-4.09-1.33-6.25a55.61,55.61,0,0,0,5.73-2.69c2.14,2.32,7.64,5,8.35,5.39C391.42,257.26,390.67,259.05,389.94,260.72Z" style="fill:#90CAF9"></path><path d="M414.12,175.44c.06,0,1.34-4.89,1.38-5.21.52-3.71-.66-11.17-4.44-13a5,5,0,0,0-6.74,3c-1,2.78.27,6.19,1.79,8.54C407.89,171.51,414.11,175.43,414.12,175.44Z" style="fill:#90CAF9"></path><g style="opacity:0.30000000000000004"><path d="M339.73,173.82c3,1.31,10.36,1.15,10.36,1.15s-1.58-4.82-1.72-5.11c-1.61-3.38-6.71-9-10.87-8.39a5,5,0,0,0-4,6.22C334.21,170.56,337.17,172.7,339.73,173.82Z" style="fill:#fff"></path><path d="M436.07,148.78c-4.16-.44-9.11,5.26-10.64,8.68-.13.3-1.66,5.15-1.58,5.15h.09c-.79.9-1.62,1.87-2.51,2.94-1.63,2-3.46,4.28-5.27,6.9a86.64,86.64,0,0,0-5.47,8.7A64.22,64.22,0,0,0,406,191.66a.65.65,0,0,0,0,.13c0-1.23,0-4.66-.07-4.93-.48-3.71-3.59-10.59-7.71-11.35a5,5,0,0,0-5.72,4.66c-.24,3,1.9,5.9,4,7.76,2.35,2.1,8.88,4.13,9.4,4.29a85.7,85.7,0,0,0-2.76,11.39c-.4,2.24-.73,4.51-1,6.79,0-1.06,0-2-.05-2.15-.49-3.71-3.6-10.59-7.72-11.35a5,5,0,0,0-5.72,4.66c-.24,2.95,1.9,5.9,4,7.76s7.64,3.73,9.11,4.2c-.11.88-.23,1.75-.33,2.63-.51,4.2-1,8.4-1.59,12.51-.21,1.44-.47,2.86-.73,4.28,0-.95,0-1.74,0-1.86-.48-3.71-3.59-10.6-7.71-11.36a5,5,0,0,0-5.72,4.66c-.24,3,1.9,5.9,4,7.76s7.11,3.56,8.85,4.12c-.3,1.45-.61,2.89-1,4.28-.27.94-.46,1.86-.78,2.79s-.6,1.85-.89,2.76c-.63,1.73-1.27,3.52-1.93,5.19-.44,1.17-.89,2.27-1.34,3.38.23-1.43.61-4.26.62-4.5a19.31,19.31,0,0,0-2.59-9.36,5.76,5.76,0,0,0-.06-1.1,5,5,0,0,0-6.07-4.21c-4.05,1.08-6.61,8.19-6.81,11.93,0,.22.14,2.62.25,4.14-.2-.88-.39-1.74-.61-2.64-.42-1.8-.9-3.57-1.41-5.48-.27-.92-.55-1.84-.83-2.77s-.66-1.88-1-2.83c-.8-2.19-1.72-4.37-2.7-6.55,1.57-.38,7.12-1.79,9.35-3.5s4.56-4.48,4.54-7.44a5,5,0,0,0-5.35-5.08c-4.17.46-7.78,7.09-8.54,10.76,0,.22-.29,2.91-.4,4.4-.6-1.31-1.18-2.61-1.83-3.91-1.86-3.75-3.86-7.49-5.84-11.23-.61-1.14-1.2-2.29-1.8-3.43.56-.13,7.19-1.67,9.69-3.58,2.21-1.71,4.57-4.49,4.54-7.45a5,5,0,0,0-5.35-5.07c-4.17.45-7.78,7.09-8.54,10.75-.06.28-.4,4.15-.45,5.14-1.31-2.53-2.59-5.06-3.76-7.6a87.08,87.08,0,0,1-4.09-10.57c.26,0,7.19-1.63,9.75-3.59,2.21-1.7,4.56-4.48,4.54-7.44a5,5,0,0,0-5.35-5.08c-4.17.45-7.78,7.09-8.54,10.76-.06.28-.43,4.45-.45,5.21-.06-.21-.15-.42-.21-.63a63.09,63.09,0,0,1-2.12-11.15c-.24-2.08-.34-4.09-.4-6,1.32-.16,7.34-1,9.84-2.47s5-4,5.33-6.9a5,5,0,0,0-4.76-5.63c-4.19,0-8.51,6.19-9.67,9.75-.06.19-.48,2.23-.77,3.72,0-.88,0-1.79,0-2.63,0-3.17.21-6.07.41-8.64.12-1.46.26-2.78.41-4,1.21-.83,6.06-4.25,7.55-6.7s2.64-5.83,1.56-8.58a5,5,0,0,0-6.83-2.8c-3.72,1.92-4.7,9.41-4.09,13.1.06.32,1.46,5.22,1.53,5.17l.07-.05c-.16,1.18-.32,2.45-.47,3.84-.26,2.57-.52,5.48-.6,8.66a88.21,88.21,0,0,0,.25,10.27,64.56,64.56,0,0,0,1.9,11.34l0,.13c-.66-1-2.6-3.87-2.77-4.07-2.45-2.83-8.84-6.86-12.7-5.22a5,5,0,0,0-2.2,7c1.43,2.59,4.84,3.87,7.61,4.27,3.11.46,9.68-1.45,10.2-1.6a89.58,89.58,0,0,0,4,11c.9,2.09,1.88,4.16,2.88,6.23-.6-.87-1.14-1.65-1.23-1.75-2.44-2.83-8.84-6.86-12.7-5.22a5,5,0,0,0-2.19,7c1.42,2.59,4.83,3.87,7.6,4.28s8.43-1.1,9.92-1.52c.39.79.77,1.58,1.17,2.37,1.9,3.78,3.82,7.55,5.58,11.31.62,1.32,1.18,2.64,1.75,4-.53-.78-1-1.43-1.06-1.52-2.45-2.83-8.85-6.86-12.7-5.22a5,5,0,0,0-2.2,7c1.42,2.59,4.84,3.87,7.6,4.28s7.89-1,9.65-1.45c.54,1.37,1.09,2.75,1.55,4.1.3.94.65,1.81.89,2.77s.52,1.86.78,2.78c.43,1.79.88,3.64,1.26,5.4.27,1.22.5,2.38.74,3.56-.6-1.32-1.84-3.89-2-4.09-2-3.17-7.7-8.12-11.77-7.09a5,5,0,0,0-3.23,6.63c1,2.78,4.19,4.57,6.86,5.38,2.94.9,9.46.08,10.27,0,.39,2,.75,3.85,1.06,5.64,1.1,6.22,1.78,11.45,2.2,15.1.08.65.14,1.23.2,1.78H366.76l4.6,89.85h21.49l4.61-89.85H385.71c.08-.18.17-.35.26-.54,1.61-3.36,3.85-8.18,6.26-14.09.77-1.86,1.55-3.87,2.33-5.94.79.17,7.24,1.48,10.25.8,2.72-.62,6-2.16,7.25-4.86a5,5,0,0,0-2.74-6.85c-4-1.33-10,3.18-12.26,6.19-.13.18-1.33,2.26-2.07,3.59.31-.85.63-1.67.94-2.54.64-1.73,1.22-3.47,1.85-5.35l.83-2.77c.3-.92.49-1.93.75-2.9.54-2.27,1-4.59,1.36-7,1.52.56,6.92,2.44,9.72,2.24s6.29-1.22,7.9-3.7a5,5,0,0,0-1.66-7.19c-3.73-1.92-10.41,1.62-13.06,4.26-.16.17-1.85,2.27-2.76,3.45.22-1.42.45-2.83.63-4.27.52-4.15.91-8.37,1.32-12.58.12-1.29.27-2.58.4-3.86.54.2,6.91,2.58,10.05,2.36,2.79-.2,6.29-1.22,7.9-3.7a5,5,0,0,0-1.67-7.19c-3.72-1.92-10.4,1.62-13.05,4.26-.2.2-2.63,3.23-3.21,4,.3-2.83.63-5.64,1.06-8.41a85.63,85.63,0,0,1,2.42-11.06c.25.09,6.89,2.6,10.1,2.37,2.79-.19,6.29-1.22,7.9-3.7a5,5,0,0,0-1.66-7.18c-3.73-1.93-10.4,1.62-13.06,4.25-.21.21-2.81,3.48-3.25,4.11.07-.21.11-.44.17-.65a64.73,64.73,0,0,1,4.38-10.47c1-1.86,2-3.59,3-5.25,1.19.59,6.66,3.25,9.57,3.36s6.38-.52,8.26-2.81a5,5,0,0,0-.87-7.32c-3.49-2.32-10.52.46-13.44,2.8-.16.12-1.63,1.59-2.69,2.68.47-.75.95-1.52,1.41-2.22,1.76-2.64,3.52-5,5.11-7,.91-1.15,1.75-2.17,2.55-3.12,1.47,0,7.4-.21,10-1.42s5.43-3.41,6-6.3A5,5,0,0,0,436.07,148.78ZM389.94,260.72c-2.51,5.79-4.83,10.52-6.5,13.8-.33.67-.63,1.25-.91,1.79h-.28c-.08-.64-.18-1.34-.28-2.13-.51-3.69-1.31-8.95-2.55-15.2-.39-2-.85-4.09-1.33-6.25a55.61,55.61,0,0,0,5.73-2.69c2.14,2.32,7.64,5,8.35,5.39C391.42,257.26,390.67,259.05,389.94,260.72Z" style="fill:#fff"></path><path d="M414.12,175.44c.06,0,1.34-4.89,1.38-5.21.52-3.71-.66-11.17-4.44-13a5,5,0,0,0-6.74,3c-1,2.78.27,6.19,1.79,8.54C407.89,171.51,414.11,175.43,414.12,175.44Z" style="fill:#fff"></path></g></g><g id="freepik--Folder--inject-1--inject-7"><polygon points="176.14 411.42 74.45 309.76 191.22 245 273.33 353.33 176.14 411.42" style="fill:#90CAF9;stroke:#2e353a;stroke-linecap:round;stroke-linejoin:round"></polygon><polygon points="176.14 411.42 74.45 309.76 191.22 245 273.33 353.33 176.14 411.42" style="opacity:0.2"></polygon><polygon points="260.45 334.62 167.48 392.37 75.45 292.43 168.42 234.67 260.45 334.62" style="fill:#2e353a;stroke:#2e353a;stroke-linecap:round;stroke-linejoin:round"></polygon><polygon points="253.6 333.44 167.96 386.64 82.31 293.61 167.95 240.41 253.6 333.44" style="fill:#fff;stroke:#2e353a;stroke-linecap:round;stroke-linejoin:round"></polygon><path d="M194.65,269.42a26.15,26.15,0,0,0-6.63,7.49c-5.92,10.48,9.42,33.6,2.2,39.44s-32.53-6.32-41,7.81c-5.9,9.81-3.05,29.89-.75,41.27L168,386.64l85.64-53.21Z" style="fill:#90CAF9;stroke:#2e353a;stroke-linecap:round;stroke-linejoin:round"></path><path d="M124.61,298.28c3.19,3.46,2.71,8.17-1.07,10.52s-9.42,1.44-12.61-2-2.72-8.18,1.06-10.53S121.42,294.81,124.61,298.28Z" style="fill:#90CAF9;stroke:#2e353a;stroke-linecap:round;stroke-linejoin:round"></path><polygon points="264.44 341.53 177.1 390.13 100.19 265.7 187.53 217.09 264.44 341.53" style="fill:#2e353a;stroke:#2e353a;stroke-linecap:round;stroke-linejoin:round"></polygon><polygon points="258.34 339.14 177.88 383.91 106.29 268.09 186.75 223.32 258.34 339.14" style="fill:#fff;stroke:#2e353a;stroke-linecap:round;stroke-linejoin:round"></polygon><path d="M209.07,259.43a23.58,23.58,0,0,0-6.43,7.17c-6,10.57,6.45,38.4-.42,43.67s-28.95-12.12-37.47,2c-5.92,9.82-4.57,32.34-3.19,45.2l16.32,26.4,80.46-44.77Z" style="fill:#90CAF9;stroke:#2e353a;stroke-linecap:round;stroke-linejoin:round"></path><path d="M144.16,280c2.66,4.32,2,9.41-1.6,11.39s-8.59.08-11.26-4.23-2-9.42,1.6-11.39S141.49,275.65,144.16,280Z" style="fill:#90CAF9;stroke:#2e353a;stroke-linecap:round;stroke-linejoin:round"></path><polygon points="266.37 296.76 175 352.07 129.17 219.96 220.54 164.65 266.37 296.76" style="fill:#2e353a;stroke:#2e353a;stroke-linecap:round;stroke-linejoin:round"></polygon><polygon points="261.18 294.37 177.01 345.32 134.35 222.35 218.53 171.4 261.18 294.37" style="fill:#fff;stroke:#2e353a;stroke-linecap:round;stroke-linejoin:round"></polygon><path d="M231.83,209.75a33.92,33.92,0,0,0-7.48,7.95c-7.75,11.62-1.94,41.32-9.43,47.23s-24.43-12.19-35.31,3.38c-7.54,10.81-11,35.12-12.32,49l9.72,28,84.17-50.95Z" style="fill:#90CAF9;stroke:#2e353a;stroke-linecap:round;stroke-linejoin:round"></path><path d="M167.15,234c1.59,4.58-.14,10.12-3.85,12.37s-8,.35-9.6-4.23.13-10.11,3.84-12.36S165.56,229.41,167.15,234Z" style="fill:#90CAF9;stroke:#2e353a;stroke-linecap:round;stroke-linejoin:round"></path><polygon points="265.57 249.12 176.14 297.78 147.86 149.83 237.28 101.17 265.57 249.12" style="fill:#2e353a;stroke:#2e353a;stroke-linecap:round;stroke-linejoin:round"></polygon><polygon points="261.06 245.91 178.69 290.74 152.36 153.03 234.74 108.21 261.06 245.91" style="fill:#fff;stroke:#2e353a;stroke-linecap:round;stroke-linejoin:round"></polygon><path d="M243,151.15a33,33,0,0,0-7.67,7.68c-8.31,11.59-6.07,44.31-13.54,49.79s-21.11-16.09-32.69-.6c-8,10.75-13.66,36.55-16.36,51.33l6,31.39,82.37-44.83Z" style="fill:#90CAF9;stroke:#2e353a;stroke-linecap:round;stroke-linejoin:round"></path><path d="M181.19,169.52c1,5.13-1.17,10.89-4.8,12.87s-7.38-.58-8.36-5.71,1.17-10.89,4.8-12.87S180.21,164.39,181.19,169.52Z" style="fill:#90CAF9;stroke:#2e353a;stroke-linecap:round;stroke-linejoin:round"></path><polygon points="191.67 267.08 176.14 411.42 273.33 353.33 302.41 212 226.63 257.28 227.62 248.62 191.67 267.08" style="fill:#90CAF9;stroke:#2e353a;stroke-linecap:round;stroke-linejoin:round"></polygon><polygon points="191.67 267.08 176.14 411.42 273.33 353.33 302.41 212 226.63 257.28 227.62 248.62 191.67 267.08" style="opacity:0.2"></polygon></g><g id="freepik--Character--inject-1--inject-7"><path d="M265.23,299s-3.59,4.36-3.59,7.18S273.69,332,278.05,341s22.32,35.92,21.29,38.48-9.49,9.75-11,11,2.57,1.54,6.67,1,8.47-2.82,8.72-4.11a12.28,12.28,0,0,1,2.83-5.9c1.79-1.79,5.38-3.59,3.84-5.9s-4.87-1.53-6.41-4.1-7.7-12.57-11-24.37-2.31-16.42-5.64-23.6a67.37,67.37,0,0,0-9.24-13.85Z" style="fill:#fff;stroke:#2e353a;stroke-linecap:round;stroke-linejoin:round"></path><path d="M268.5,321.86a65.59,65.59,0,0,0,21.37,10.39,32.54,32.54,0,0,0-2.58-8.68,67.37,67.37,0,0,0-9.24-13.85L265.23,299s-3.59,4.36-3.59,7.18C261.64,307.58,264.82,314.38,268.5,321.86Z" style="fill:#90CAF9;opacity:0.5;mix-blend-mode:multiply"></path><path d="M303.7,387.44a12.28,12.28,0,0,1,2.83-5.9c1.79-1.79,5.38-3.59,3.84-5.9-.82-1.23-2.15-1.58-3.45-2a17.79,17.79,0,0,1-3.47,7.94s-1.8-2.56-4.11-2.05c-1,2.57-9.49,9.75-11,11s2.57,1.54,6.67,1S303.45,388.73,303.7,387.44Z" style="fill:#2e353a;stroke:#2e353a;stroke-linecap:round;stroke-linejoin:round"></path><path d="M292.16,316.9s-8,16.42-9.75,22.06-14.62,36.68-17.7,44.38a91.85,91.85,0,0,1-6.41,13.08,50.56,50.56,0,0,1-12.06,3.34c-6.92,1-9.49,2.82-7.69,4.36s10.77,3.08,14.36,2.05,9.75-2.57,10.52-4.62a26,26,0,0,0,1-5.64s10-11.54,16.16-19.75,5.13-20.78,7.95-27.19,22.83-25.91,25.65-29.76S292.16,316.9,292.16,316.9Z" style="fill:#fff;stroke:#2e353a;stroke-linecap:round;stroke-linejoin:round"></path><path d="M292.16,316.9s-3.6,7.43-6.5,14a73.28,73.28,0,0,0,14.58,3.46c6.07-6.6,12.47-13.12,14-15.17C317,315.36,292.16,316.9,292.16,316.9Z" style="fill:#90CAF9;opacity:0.5;mix-blend-mode:multiply"></path><path d="M318,221s-5.34,1.76-13.11,4.56-23.49,7.6-30.05,8.72-11,1.43-13.28,1.19-6.43-.15-7.59,1-1.69,1.37-2,2.11,3.38,2.16,8.64,1.16,22.12-1.82,32.77-5.09,25.23-6.91,25.23-6.91Z" style="fill:#fff;stroke:#2e353a;stroke-linecap:round;stroke-linejoin:round"></path><path d="M324.58,151.74c-7.62,1.41-14.39,5.48-17.54,13-3.85,9.23,5.64,9.49,8.21,15.13s-1.29,12.06-7.44,18-15.14,10.26-15.14,19.75,14.62,24.88,40,20.27,39.25-28.22,32.32-55.67c-2.07-8.21-5.16-17.07-11.51-23.16C346.12,152,334.4,149.93,324.58,151.74Z" style="fill:#2e353a;stroke:#2e353a;stroke-linecap:round;stroke-linejoin:round"></path><path d="M327.58,165.68s-.47-7.93,1.63-11.67c0,0-1.16-2.8,15.88.47" style="fill:none;stroke:#fff;stroke-linecap:round;stroke-linejoin:round;stroke-width:0.75px"></path><path d="M330.15,159.38s-.94,14,13.77,24.52,21.48,10.27,21.48,10.27" style="fill:none;stroke:#fff;stroke-linecap:round;stroke-linejoin:round;stroke-width:0.75px"></path><path d="M341.92,187.62s10.87,7.95,21.38,7.71" style="fill:none;stroke:#fff;stroke-linecap:round;stroke-linejoin:round;stroke-width:0.75px"></path><path d="M328.05,158.45s-15.65.46-15.41,7.47a8.86,8.86,0,0,0,6.77,8.4" style="fill:none;stroke:#fff;stroke-linecap:round;stroke-linejoin:round;stroke-width:0.75px"></path><path d="M344.16,189.26s7.09,4.5,11.2,10.74c5.84,8.88,5.6,17.05-2.57,24.05" style="fill:none;stroke:#fff;stroke-linecap:round;stroke-linejoin:round;stroke-width:0.75px"></path><path d="M312.17,247.64s-10.26,7.19-24.11,21.81-30.39,32-30.39,32,6.4,16.82,30,24,52,2.67,52,2.67,4.05-50.18-.31-61.72-8.47-16.16-8.47-16.16S319.09,245.85,312.17,247.64Z" style="fill:#2e353a;stroke:#2e353a;stroke-linecap:round;stroke-linejoin:round"></path><path d="M314.82,252.55A63.07,63.07,0,0,0,304.46,266" style="fill:none;stroke:#fff;stroke-linecap:round;stroke-linejoin:round;stroke-width:0.75px"></path><path d="M322.5,252.55a99.85,99.85,0,0,1-6.15,29.56" style="fill:none;stroke:#fff;stroke-linecap:round;stroke-linejoin:round;stroke-width:0.75px"></path><path d="M328.64,250.63a50.71,50.71,0,0,1,5,19.19" style="fill:none;stroke:#fff;stroke-linecap:round;stroke-linejoin:round;stroke-width:0.75px"></path><path d="M341.67,201.21s-7.18,5.13-15.14,10.52-10.26,8-10.51,12.83,1.28,12.57.25,14.87-6.67,6.42-4.61,10,19.23.77,19.23.77a210.68,210.68,0,0,0,16.42-20.27c6.67-9.74,6.41-20.26,4.36-24.11S346,198.65,341.67,201.21Z" style="fill:#fff;stroke:#2e353a;stroke-linecap:round;stroke-linejoin:round"></path><path d="M330.89,250.21a210.68,210.68,0,0,0,16.42-20.27c6.67-9.74,6.41-20.26,4.36-24.11-1.83-3.43-4.89-6.44-8.62-5.23l.72,1.41s5.8,4.93,2.9,15.36-22.9,18.55-22.9,18.55l9.56,6.67-11,8.56C326.77,250.88,330.89,250.21,330.89,250.21Z" style="fill:#90CAF9;opacity:0.5;mix-blend-mode:multiply"></path><path d="M263.43,401.55a19.73,19.73,0,0,0,.86-4,32,32,0,0,1-4.45,2.23c0-1.92-.85-2.82-1.83-3.21a51.79,51.79,0,0,1-11.77,3.21c-6.92,1-9.49,2.82-7.69,4.36s10.77,3.08,14.36,2.05S262.66,403.6,263.43,401.55Z" style="fill:#2e353a;stroke:#2e353a;stroke-linecap:round;stroke-linejoin:round"></path><path d="M347.73,210.44s-2.42-1.54-7.25.28-23.37,13.8-26.62,15.27-16.63,3.68-24.63,6.2-23,5.33-27.61,5.11-8.5-.12-10.8-.36-8,7.42-8.08,8.19c0,.28.29.43.69.49a3.13,3.13,0,0,0,2.45-.7l3.64-2.95a27.43,27.43,0,0,0,5.28,1.32c2.3.24,6.95-2.37,6.95-2.37s15.5-.18,34.19-1.33,39.62-9,44-11.14a28.28,28.28,0,0,0,6.94-4.69" style="fill:#fff;stroke:#2e353a;stroke-linecap:round;stroke-linejoin:round"></path><path d="M349.94,211.45s-3.14-4.46-7.46-2.59S313.86,226,313.86,226l2.75,13.18s21.65-7.28,26.62-10.37a17.5,17.5,0,0,0,6.67-7" style="fill:#fff;stroke:#2e353a;stroke-linecap:round;stroke-linejoin:round"></path><path d="M331.66,194.8A24.31,24.31,0,0,1,333,203a17.78,17.78,0,0,1-1.8,6.67l10.52-8.47s-.26-2.82-.77-7.44-.51-6.66-.51-6.66Z" style="fill:#fff;stroke:#2e353a;stroke-linecap:round;stroke-linejoin:round"></path><path d="M340.9,193.77c-.51-4.61-.51-6.66-.51-6.66l-8.73,7.69a27.66,27.66,0,0,1,1,4.08l6.16-3,1.05,6.72,1.78-1.43S341.41,198.39,340.9,193.77Z" style="fill:#90CAF9;opacity:0.5;mix-blend-mode:multiply"></path><path d="M328.33,164.79s-5.39,2.82-6.93,6.92-.77,6.93-2,9.24-3.59,2.56-2.05,3.59,3.59,2.31,3.59,2.31,1,8.21,1.8,9.75,3.33,1,6.67,0,10.26-4.62,11-5.9a30.47,30.47,0,0,0,1.53-3.08S326.53,176.08,328.33,164.79Z" style="fill:#fff;stroke:#2e353a;stroke-linecap:round;stroke-linejoin:round"></path><path d="M340.39,190.7a30.47,30.47,0,0,0,1.53-3.08S327.81,177,328.2,166.21c-.27,3.6-.69,13.1,2,17.87,3.41,6,5.54,6.82,7.67,7.67l.78.34A6.42,6.42,0,0,0,340.39,190.7Z" style="fill:#90CAF9;opacity:0.5;mix-blend-mode:multiply"></path><polygon points="342.69 197.62 330.89 208.14 328.33 214.81 346.8 201.21 342.69 197.62" style="fill:#fff;stroke:#2e353a;stroke-linecap:round;stroke-linejoin:round"></polygon><path d="M324.54,180.16c0,.77-.26,1.4-.58,1.4s-.58-.63-.58-1.4.26-1.4.58-1.4S324.54,179.39,324.54,180.16Z" style="fill:#2e353a"></path><path d="M322.44,189.26s3.27-.46,4.44-2.33" style="fill:none;stroke:#2e353a;stroke-linecap:round;stroke-linejoin:round;stroke-width:0.75px"></path><path d="M322,175.72s1.86-2.33,3.5-.7" style="fill:none;stroke:#2e353a;stroke-miterlimit:10;stroke-width:0.75px"></path></g></svg>