<svg xmlns="http://www.w3.org/2000/svg" viewBox="0 0 500 500"><g id="freepik--Floor--inject-63"><path d="M414.38,250c-91.84-53-240.25-53-331.49,0S-7.87,389,84,442s240.25,53,331.5,0S506.22,303,414.38,250Z" style="fill:#f5f5f5"></path></g><g id="freepik--Shadows--inject-63"><path d="M57.84,384.07l123.08-71a12.31,12.31,0,0,1,12.31,0l12.23,7.08a4.1,4.1,0,0,1,0,7.1l-123,71.11a12.29,12.29,0,0,1-12.38,0l-12.21-7.16A4.1,4.1,0,0,1,57.84,384.07Z" style="fill:#e6e6e6"></path><path d="M94,385.93l97.89-56.47a9.77,9.77,0,0,1,9.78,0l9.73,5.62a3.26,3.26,0,0,1,0,5.65l-97.86,56.55a9.78,9.78,0,0,1-9.84,0L94,391.57A3.27,3.27,0,0,1,94,385.93Z" style="fill:#e6e6e6"></path><path d="M65.75,346.47c-7.08-4.09-18.53-4.09-25.56,0s-7,10.72.08,14.8,18.53,4.09,25.56,0S72.83,350.56,65.75,346.47Z" style="fill:#e6e6e6"></path><path d="M284.27,393.6c-20.42-11.79-53.41-11.79-73.69,0s-20.18,30.9.24,42.68,53.4,11.79,73.69,0S304.68,405.39,284.27,393.6Z" style="fill:#e6e6e6"></path><polygon points="377.58 397.85 480.87 338.21 332.11 251.76 228.82 311.4 377.58 397.85" style="fill:#e6e6e6"></polygon></g><g id="freepik--Plant--inject-63"><path d="M70.15,323l-17.14.5L35.87,323c-.74,11.57,1.52,23.37,4.64,29.13h0a7.81,7.81,0,0,0,3.39,3.46c5.06,2.92,13.23,2.92,18.26,0A7.65,7.65,0,0,0,65.56,352C68.65,346.2,70.89,334.47,70.15,323Z" style="fill:#fff"></path><path d="M65.09,315.92c6.72,3.88,6.76,10.17.08,14.05s-17.53,3.88-24.24,0-6.75-10.17-.08-14.05S58.38,312.05,65.09,315.92Z" style="fill:#ebebeb"></path><path d="M62.44,317.47c5.24,3,5.27,7.93.06,10.95s-13.68,3-18.92,0-5.26-7.93-.06-10.95S57.2,314.44,62.44,317.47Z" style="fill:#e0e0e0"></path><g style="opacity:0.15"><path d="M62.44,317.47c5.24,3,5.27,7.93.06,10.95s-13.68,3-18.92,0-5.26-7.93-.06-10.95S57.2,314.44,62.44,317.47Z"></path></g><path d="M44.27,287.86c-2.79-3.46-6-6.57-8.59-10.21-1.74-2.48-3.2-5.52-2.47-8.47a7.6,7.6,0,0,1,6-5.28,11.49,11.49,0,0,1,8.05,1.8,24.63,24.63,0,0,1,6.09,5.79,60.5,60.5,0,0,1,12.74,43.2,9.06,9.06,0,0,1-1.59,5,5,5,0,0,1-5.12,1.56c-4.67-1.38-4-7.69-4.82-11.4a51.9,51.9,0,0,0-5.36-14.57A50.88,50.88,0,0,0,44.27,287.86Z" style="fill:#90CAF9"></path><path d="M44.27,287.86c-2.79-3.46-6-6.57-8.59-10.21-1.74-2.48-3.2-5.52-2.47-8.47a7.6,7.6,0,0,1,6-5.28,11.49,11.49,0,0,1,8.05,1.8,24.63,24.63,0,0,1,6.09,5.79,60.5,60.5,0,0,1,12.74,43.2,9.06,9.06,0,0,1-1.59,5,5,5,0,0,1-5.12,1.56c-4.67-1.38-4-7.69-4.82-11.4a51.9,51.9,0,0,0-5.36-14.57A50.88,50.88,0,0,0,44.27,287.86Z" style="fill:#fff;opacity:0.2"></path><path d="M59.68,316.52a.41.41,0,0,1-.33-.38c-.33-7.5-2.77-33.09-20.4-47.61a.4.4,0,0,1-.06-.57.41.41,0,0,1,.58-.06c17.89,14.74,20.36,40.62,20.69,48.2a.41.41,0,0,1-.39.43Z" style="fill:#f0f0f0"></path><path d="M62.25,317.33a12.51,12.51,0,0,1-5.72,7.94,16,16,0,0,1-8.67,1.45,38.13,38.13,0,0,1-8.79-2.08c-1.42-.48-3-1.12-3.14-2.87a3.14,3.14,0,0,1,1-2.47,11.62,11.62,0,0,1,.91-.78.91.91,0,0,0-.48-1.63,21.24,21.24,0,0,1-2.51-.31,11,11,0,0,1-5.26-2.38,8.72,8.72,0,0,1-2.43-3.6c-.42-1.18-.54-2.65.35-3.53a3.79,3.79,0,0,1,1.95-.85c.62-.14,1.25-.25,1.88-.35a.84.84,0,0,0,.2-1.6l-2.66-1.11a4.86,4.86,0,0,1-2-1.25,4.39,4.39,0,0,1-.51-3.66c.32-1.67.9-3.27,1.29-4.93a10.59,10.59,0,0,0,.18-5,42.39,42.39,0,0,1,14.89,1,10.79,10.79,0,0,1,4.07,1.78c1.66,1.33,2.09,3.32,1.91,5.48a.39.39,0,0,0,.73.2l1.7-3.13a2,2,0,0,1,2.64-.84,12.24,12.24,0,0,1,3.89,3.05,6.78,6.78,0,0,1,1.66,5,44.19,44.19,0,0,1-1.24,7.3.68.68,0,0,0,1.06.71l.08-.06a2.3,2.3,0,0,1,1.6-.46c1.5.19,1.89,1.71,2,3A25,25,0,0,1,62.25,317.33Z" style="fill:#90CAF9"></path><path d="M62.25,317.33a12.51,12.51,0,0,1-5.72,7.94,16,16,0,0,1-8.67,1.45,38.13,38.13,0,0,1-8.79-2.08c-1.42-.48-3-1.12-3.14-2.87a3.14,3.14,0,0,1,1-2.47,11.62,11.62,0,0,1,.91-.78.91.91,0,0,0-.48-1.63,21.24,21.24,0,0,1-2.51-.31,11,11,0,0,1-5.26-2.38,8.72,8.72,0,0,1-2.43-3.6c-.42-1.18-.54-2.65.35-3.53a3.79,3.79,0,0,1,1.95-.85c.62-.14,1.25-.25,1.88-.35a.84.84,0,0,0,.2-1.6l-2.66-1.11a4.86,4.86,0,0,1-2-1.25,4.39,4.39,0,0,1-.51-3.66c.32-1.67.9-3.27,1.29-4.93a10.59,10.59,0,0,0,.18-5,42.39,42.39,0,0,1,14.89,1,10.79,10.79,0,0,1,4.07,1.78c1.66,1.33,2.09,3.32,1.91,5.48a.39.39,0,0,0,.73.2l1.7-3.13a2,2,0,0,1,2.64-.84,12.24,12.24,0,0,1,3.89,3.05,6.78,6.78,0,0,1,1.66,5,44.19,44.19,0,0,1-1.24,7.3.68.68,0,0,0,1.06.71l.08-.06a2.3,2.3,0,0,1,1.6-.46c1.5.19,1.89,1.71,2,3A25,25,0,0,1,62.25,317.33Z" style="opacity:0.2"></path><path d="M62.25,317.33a12.51,12.51,0,0,1-5.72,7.94,16,16,0,0,1-8.67,1.45,38.13,38.13,0,0,1-8.79-2.08c-1.42-.48-3-1.12-3.14-2.87a3.14,3.14,0,0,1,1-2.47,11.62,11.62,0,0,1,.91-.78.91.91,0,0,0-.48-1.63,21.24,21.24,0,0,1-2.51-.31,11,11,0,0,1-5.26-2.38,8.72,8.72,0,0,1-2.43-3.6c-.42-1.18-.54-2.65.35-3.53a3.79,3.79,0,0,1,1.95-.85c.62-.14,1.25-.25,1.88-.35a.84.84,0,0,0,.2-1.6l-2.66-1.11a4.86,4.86,0,0,1-2-1.25,4.39,4.39,0,0,1-.51-3.66c.32-1.67.9-3.27,1.29-4.93a10.59,10.59,0,0,0,.18-5,42.39,42.39,0,0,1,14.89,1,10.79,10.79,0,0,1,4.07,1.78c1.66,1.33,2.09,3.32,1.91,5.48a.39.39,0,0,0,.73.2l1.7-3.13a2,2,0,0,1,2.64-.84,12.24,12.24,0,0,1,3.89,3.05,6.78,6.78,0,0,1,1.66,5,44.19,44.19,0,0,1-1.24,7.3.68.68,0,0,0,1.06.71l.08-.06a2.3,2.3,0,0,1,1.6-.46c1.5.19,1.89,1.71,2,3A25,25,0,0,1,62.25,317.33Z" style="fill:#fff;opacity:0.2"></path><path d="M54.35,324.86a60.59,60.59,0,0,0-4-11.61.37.37,0,0,0-.14-.3l-.28-.61a37.53,37.53,0,0,1,4-13.3.4.4,0,1,0-.7-.4A37.87,37.87,0,0,0,49.27,311c-3.39-6.8-8.8-14.75-17.15-20.57a.41.41,0,0,0-.57.11.4.4,0,0,0,.1.56c8.62,6,14.05,14.31,17.36,21.21a25,25,0,0,0-14.2-1.92.41.41,0,0,0-.33.48.41.41,0,0,0,.32.32H35c.08,0,7.87-1.43,14.62,2.34a59.54,59.54,0,0,1,4,11.5.42.42,0,0,0,.32.32.43.43,0,0,0,.16,0A.4.4,0,0,0,54.35,324.86Z" style="fill:#f0f0f0"></path></g><g id="freepik--Device--inject-63"><path d="M191.56,45.52h0c-.81-2.84-6.58-8.24-12.32-8.13a4.86,4.86,0,0,0-1.61.32L66.13,101.14a10.78,10.78,0,0,0-5.39,9.27v241.2c0,6.14,7.08,12,13.74,9.18l0,0a2.56,2.56,0,0,0,.43-.17L186.46,297a10.65,10.65,0,0,0,5.39-9.26V46.68A2.62,2.62,0,0,0,191.56,45.52Z" style="fill:#455a64"></path><path d="M76.29,135.9a5.31,5.31,0,0,1,2.7-4.63L182.53,72.36a2.66,2.66,0,0,1,4,2.32V269.17a5.36,5.36,0,0,1-2.69,4.64l-103.54,59a2.67,2.67,0,0,1-4-2.32Z" style="fill:#90CAF9"></path><path d="M76.29,135.9a5.31,5.31,0,0,1,2.7-4.63L182.53,72.36a2.66,2.66,0,0,1,4,2.32V269.17a5.36,5.36,0,0,1-2.69,4.64l-103.54,59a2.67,2.67,0,0,1-4-2.32Z" style="opacity:0.2"></path><path d="M60.74,110.41v241.2c0,6.14,7.08,12,13.74,9.18l0,0A2.65,2.65,0,0,1,71,358.27V117.07a10.68,10.68,0,0,1,1.8-5.89l-10.92-5.45A10.66,10.66,0,0,0,60.74,110.41Z" style="opacity:0.30000000000000004"></path><path d="M179.25,37.38a4.86,4.86,0,0,0-1.61.32L66.13,101.14a10.66,10.66,0,0,0-4.29,4.59l10.92,5.45a10.77,10.77,0,0,1,3.59-3.38L187.86,44.36a2.66,2.66,0,0,1,3.7,1.16h0C190.76,42.67,185,37.27,179.25,37.38Z" style="fill:#fff;opacity:0.1"></path><path d="M145.15,84.19c.78-.45,1.43-.1,1.43.8a3.17,3.17,0,0,1-1.42,2.47l-21.88,12.63c-.79.45-1.42.07-1.42-.83a3.12,3.12,0,0,1,1.41-2.44Z" style="fill:#263238"></path><path d="M117.65,100.07c.78-.46,1.42-.1,1.42.8a3.14,3.14,0,0,1-1.41,2.46c-.78.46-1.43.09-1.43-.81A3.11,3.11,0,0,1,117.65,100.07Z" style="fill:#263238"></path><path d="M131.65,82.35c1.57-.9,2.83-.18,2.84,1.62a6.24,6.24,0,0,1-2.82,4.91c-1.56.91-2.86.17-2.86-1.63A6.26,6.26,0,0,1,131.65,82.35Z" style="fill:#263238"></path><path d="M131.66,309.42c3.19-1.84,5.76-.37,5.77,3.29a12.74,12.74,0,0,1-5.73,10c-3.19,1.84-5.83.33-5.84-3.33A12.76,12.76,0,0,1,131.66,309.42Z" style="fill:#263238"></path></g><g id="freepik--Screen--inject-63"><path d="M212,86.9h0c-.74-2.58-6-7.48-11.18-7.38a4.47,4.47,0,0,0-1.47.29L98.12,137.38a9.81,9.81,0,0,0-4.89,8.42V364.73c0,5.58,6.43,10.9,12.46,8.34l0,0a1.68,1.68,0,0,0,.39-.16L207.34,315.2a9.68,9.68,0,0,0,4.89-8.41V88A2.27,2.27,0,0,0,212,86.9Z" style="fill:#90CAF9"></path><path d="M93.23,145.8V364.73c0,5.58,6.43,10.9,12.46,8.34l0,0a2.41,2.41,0,0,1-3.23-2.26V151.85a9.65,9.65,0,0,1,1.64-5.35l-9.91-4.95A9.59,9.59,0,0,0,93.23,145.8Z" style="fill:#fff;opacity:0.2"></path><path d="M200.8,79.51a4.47,4.47,0,0,0-1.47.29L98.12,137.38a9.66,9.66,0,0,0-3.89,4.17l9.91,4.95a9.6,9.6,0,0,1,3.26-3.07L208.61,85.85A2.41,2.41,0,0,1,212,86.9h0C211.24,84.31,206,79.41,200.8,79.51Z" style="fill:#fff;opacity:0.4"></path><path d="M212,86.9h0c-.74-2.58-6-7.48-11.18-7.38a4.47,4.47,0,0,0-1.47.29L98.12,137.38a9.81,9.81,0,0,0-4.89,8.41V364.73c0,5.58,6.43,10.9,12.46,8.34l0,0a1.8,1.8,0,0,0,.38-.16L207.34,315.2a9.68,9.68,0,0,0,4.89-8.41V88A2.27,2.27,0,0,0,212,86.9Z" style="fill:#fff;opacity:0.30000000000000004"></path><path d="M203.32,116.83c1-.56,1.76-.12,1.76,1l0,10.67a3.9,3.9,0,0,1-1.75,3l-92.47,53.17c-1,.56-1.76.11-1.76-1l0-10.66a3.85,3.85,0,0,1,1.75-3Z" style="fill:#90CAF9"></path><g style="opacity:0.7000000000000001"><path d="M203.32,116.83c1-.56,1.76-.12,1.76,1l0,10.67a3.9,3.9,0,0,1-1.75,3l-92.47,53.17c-1,.56-1.76.11-1.76-1l0-10.66a3.85,3.85,0,0,1,1.75-3Z" style="fill:#fff"></path></g><path d="M112.62,152.51a.35.35,0,0,1,.31,0c.2.09.21.43,0,.75L111.46,156l5.08-2.93c.26-.15.47,0,.47.27a1,1,0,0,1-.47.81l-5.08,2.93,1.52,1c.18.11.16.46,0,.77a1,1,0,0,1-.31.33.32.32,0,0,1-.35,0l-2.24-1.51a.31.31,0,0,1-.09-.11.52.52,0,0,1,0-.18,1.5,1.5,0,0,1,0-.2c0-.09.06-.15.09-.22l2.23-4.1A1.08,1.08,0,0,1,112.62,152.51Z" style="fill:#90CAF9"></path><path d="M125.45,145.11a.31.31,0,0,1,.34,0l2.24,1.51a.34.34,0,0,1,.09.12.53.53,0,0,1,0,.18,1.25,1.25,0,0,1,0,.19,1.65,1.65,0,0,1-.09.22l-2.23,4.11a.9.9,0,0,1-.35.37.3.3,0,0,1-.31,0c-.19-.09-.21-.42,0-.74l1.5-2.77-5.08,2.93c-.25.15-.47,0-.47-.27a1,1,0,0,1,.47-.81l5.08-2.93-1.52-1c-.17-.12-.16-.47,0-.78A.89.89,0,0,1,125.45,145.11Z" style="fill:#90CAF9"></path><path d="M134.83,139.69a2.47,2.47,0,0,1,1.56-.38,1,1,0,0,1,.46-.73h0c.26-.14.46,0,.45.3l0,1.2a1,1,0,0,1-.45.77l-1,.65h0c-.25.14-.46,0-.47-.25a1,1,0,0,1,.36-.75,1.87,1.87,0,0,0-.85.27,4.34,4.34,0,0,0-2,3.39c0,1.25.89,1.75,2,1.13a4.31,4.31,0,0,0,1.73-2.18,1.05,1.05,0,0,1,.41-.52.41.41,0,0,1,.23-.07c.22,0,.31.29.19.63a6.43,6.43,0,0,1-2.55,3.22c-1.61.92-2.91.17-2.92-1.67A6.41,6.41,0,0,1,134.83,139.69Z" style="fill:#90CAF9"></path><g style="opacity:0.7000000000000001"><path d="M112.62,152.51a.35.35,0,0,1,.31,0c.2.09.21.43,0,.75L111.46,156l5.08-2.93c.26-.15.47,0,.47.27a1,1,0,0,1-.47.81l-5.08,2.93,1.52,1c.18.11.16.46,0,.77a1,1,0,0,1-.31.33.32.32,0,0,1-.35,0l-2.24-1.51a.31.31,0,0,1-.09-.11.52.52,0,0,1,0-.18,1.5,1.5,0,0,1,0-.2c0-.09.06-.15.09-.22l2.23-4.1A1.08,1.08,0,0,1,112.62,152.51Z" style="fill:#fff"></path><path d="M125.45,145.11a.31.31,0,0,1,.34,0l2.24,1.51a.34.34,0,0,1,.09.12.53.53,0,0,1,0,.18,1.25,1.25,0,0,1,0,.19,1.65,1.65,0,0,1-.09.22l-2.23,4.11a.9.9,0,0,1-.35.37.3.3,0,0,1-.31,0c-.19-.09-.21-.42,0-.74l1.5-2.77-5.08,2.93c-.25.15-.47,0-.47-.27a1,1,0,0,1,.47-.81l5.08-2.93-1.52-1c-.17-.12-.16-.47,0-.78A.89.89,0,0,1,125.45,145.11Z" style="fill:#fff"></path><path d="M134.83,139.69a2.47,2.47,0,0,1,1.56-.38,1,1,0,0,1,.46-.73h0c.26-.14.46,0,.45.3l0,1.2a1,1,0,0,1-.45.77l-1,.65h0c-.25.14-.46,0-.47-.25a1,1,0,0,1,.36-.75,1.87,1.87,0,0,0-.85.27,4.34,4.34,0,0,0-2,3.39c0,1.25.89,1.75,2,1.13a4.31,4.31,0,0,0,1.73-2.18,1.05,1.05,0,0,1,.41-.52.41.41,0,0,1,.23-.07c.22,0,.31.29.19.63a6.43,6.43,0,0,1-2.55,3.22c-1.61.92-2.91.17-2.92-1.67A6.41,6.41,0,0,1,134.83,139.69Z" style="fill:#fff"></path></g><path d="M189.6,106.94a1.89,1.89,0,0,1,1.85-.2c1,.6,1,2.47,0,4.23l-.68,1.17-3.66,6.34L182.76,116c-1-.59-1-2.47,0-4.23a5.11,5.11,0,0,1,1.83-1.93,1.82,1.82,0,0,1,1.83-.19l.69.39.66-1.17A5.28,5.28,0,0,1,189.6,106.94Z" style="fill:#90CAF9"></path><polygon points="204.82 98.15 204.85 108.89 200.82 108.73 196.82 113.52 196.79 102.79 204.82 98.15" style="fill:#90CAF9"></polygon><g style="opacity:0.7000000000000001"><path d="M189.6,106.94a1.89,1.89,0,0,1,1.85-.2c1,.6,1,2.47,0,4.23l-.68,1.17-3.66,6.34L182.76,116c-1-.59-1-2.47,0-4.23a5.11,5.11,0,0,1,1.83-1.93,1.82,1.82,0,0,1,1.83-.19l.69.39.66-1.17A5.28,5.28,0,0,1,189.6,106.94Z" style="fill:#fff"></path><polygon points="204.82 98.15 204.85 108.89 200.82 108.73 196.82 113.52 196.79 102.79 204.82 98.15" style="fill:#fff"></polygon></g><path d="M201.3,144.47c2-1.16,3.63-.23,3.63,2.07l.18,62.87a7.94,7.94,0,0,1-3.6,6.25L114.1,266.12c-2,1.16-3.63.23-3.63-2.06l-.18-62.88a7.94,7.94,0,0,1,3.6-6.25Z" style="fill:#90CAF9"></path><g style="opacity:0.2"><path d="M201.3,144.47c2-1.16,3.63-.23,3.63,2.07l.18,62.87a7.94,7.94,0,0,1-3.6,6.25L114.1,266.12c-2,1.16-3.63.23-3.63-2.06l-.18-62.88a7.94,7.94,0,0,1,3.6-6.25Z"></path></g><polygon points="151.28 199.01 173.39 197.63 151.35 221.73 151.28 199.01" style="fill:#90CAF9"></polygon><g style="opacity:0.4"><polygon points="151.28 199.01 173.39 197.63 151.35 221.73 151.28 199.01" style="fill:#fff"></polygon></g><path d="M201.3,222.23c2-1.16,3.63-.22,3.63,2.07l.18,28.89a7.9,7.9,0,0,1-3.6,6.24L114.1,309.9c-2,1.15-3.63.23-3.63-2.07L110.29,279a7.92,7.92,0,0,1,3.6-6.25Z" style="fill:#90CAF9"></path><g style="opacity:0.1"><path d="M201.3,222.23c2-1.16,3.63-.22,3.63,2.07l.18,28.89a7.9,7.9,0,0,1-3.6,6.24L114.1,309.9c-2,1.15-3.63.23-3.63-2.07L110.29,279a7.92,7.92,0,0,1,3.6-6.25Z" style="fill:#fff"></path></g><path d="M149.73,256.92c.77-.44,1.39-.09,1.39.79l.07,24.08a3,3,0,0,1-1.38,2.39l-33.47,19.33c-.77.44-1.39.09-1.39-.79l-.07-24.08a3,3,0,0,1,1.38-2.39Z" style="fill:#90CAF9"></path><g style="opacity:0.2"><path d="M149.73,256.92c.77-.44,1.39-.09,1.39.79l.07,24.08a3,3,0,0,1-1.38,2.39l-33.47,19.33c-.77.44-1.39.09-1.39-.79l-.07-24.08a3,3,0,0,1,1.38-2.39Z"></path></g><polygon points="130.58 277.81 139.05 277.28 130.6 286.51 130.58 277.81" style="fill:#90CAF9"></polygon><g style="opacity:0.4"><polygon points="130.58 277.81 139.05 277.28 130.6 286.51 130.58 277.81" style="fill:#fff"></polygon></g><polygon points="176.79 244.9 176.8 248.23 155.38 260.6 155.38 257.26 176.79 244.9" style="fill:#90CAF9"></polygon><polygon points="200 237.5 200.01 240.84 155.4 266.59 155.39 263.25 200 237.5" style="fill:#90CAF9"></polygon><polygon points="200.02 243.5 200.03 246.84 155.42 272.59 155.41 269.26 200.02 243.5" style="fill:#90CAF9"></polygon><polygon points="186.84 257.12 186.85 260.45 155.44 278.59 155.43 275.25 186.84 257.12" style="fill:#90CAF9"></polygon><g style="opacity:0.5"><polygon points="176.79 244.9 176.8 248.23 155.38 260.6 155.38 257.26 176.79 244.9" style="fill:#fff"></polygon><polygon points="200 237.5 200.01 240.84 155.4 266.59 155.39 263.25 200 237.5" style="fill:#fff"></polygon><polygon points="200.02 243.5 200.03 246.84 155.42 272.59 155.41 269.26 200.02 243.5" style="fill:#fff"></polygon><polygon points="186.84 257.12 186.85 260.45 155.44 278.59 155.43 275.25 186.84 257.12" style="fill:#fff"></polygon></g><path d="M201.3,267.59c2-1.16,3.63-.23,3.63,2.07l.18,28.88a7.94,7.94,0,0,1-3.6,6.25L114.1,355.25c-2,1.16-3.63.24-3.63-2.06l-.18-28.89a7.94,7.94,0,0,1,3.6-6.25Z" style="fill:#90CAF9"></path><g style="opacity:0.1"><path d="M201.3,267.59c2-1.16,3.63-.23,3.63,2.07l.18,28.88a7.94,7.94,0,0,1-3.6,6.25L114.1,355.25c-2,1.16-3.63.24-3.63-2.06l-.18-28.89a7.94,7.94,0,0,1,3.6-6.25Z" style="fill:#fff"></path></g><path d="M149.73,302.28c.77-.45,1.39-.09,1.39.79l.07,24.08a3,3,0,0,1-1.38,2.39l-33.47,19.33c-.77.44-1.39.09-1.39-.79L114.88,324a3.06,3.06,0,0,1,1.38-2.4Z" style="fill:#90CAF9"></path><g style="opacity:0.2"><path d="M149.73,302.28c.77-.45,1.39-.09,1.39.79l.07,24.08a3,3,0,0,1-1.38,2.39l-33.47,19.33c-.77.44-1.39.09-1.39-.79L114.88,324a3.06,3.06,0,0,1,1.38-2.4Z"></path></g><polygon points="130.58 323.17 139.05 322.63 130.6 331.87 130.58 323.17" style="fill:#90CAF9"></polygon><g style="opacity:0.4"><polygon points="130.58 323.17 139.05 322.63 130.6 331.87 130.58 323.17" style="fill:#fff"></polygon></g><polygon points="187.35 284.31 187.36 287.65 155.38 305.95 155.38 302.61 187.35 284.31" style="fill:#90CAF9"></polygon><polygon points="200 282.86 200.01 286.19 155.4 311.95 155.39 308.61 200 282.86" style="fill:#90CAF9"></polygon><polygon points="184.67 297.81 184.68 301.15 155.42 317.95 155.41 314.61 184.67 297.81" style="fill:#90CAF9"></polygon><polygon points="169.46 312.54 169.47 315.88 155.44 323.94 155.43 320.61 169.46 312.54" style="fill:#90CAF9"></polygon><g style="opacity:0.5"><polygon points="187.35 284.31 187.36 287.65 155.38 305.95 155.38 302.61 187.35 284.31" style="fill:#fff"></polygon><polygon points="200 282.86 200.01 286.19 155.4 311.95 155.39 308.61 200 282.86" style="fill:#fff"></polygon><polygon points="184.67 297.81 184.68 301.15 155.42 317.95 155.41 314.61 184.67 297.81" style="fill:#fff"></polygon><polygon points="169.46 312.54 169.47 315.88 155.44 323.94 155.43 320.61 169.46 312.54" style="fill:#fff"></polygon></g></g><g id="freepik--Clock--inject-63"><path d="M408.38,40.63h0l-.36-.27h0Z" style="fill:none"></path><path d="M410.37,42.29l-.07-.06.06.06Z" style="fill:none"></path><path d="M396.34,34.53l-.5-.1.47.09Z" style="fill:none"></path><path d="M397.48,34.81,397,34.7l.44.11Z" style="fill:none"></path><path d="M402.27,36.7l0,0,0,0Z" style="fill:none"></path><path d="M417.85,95.75c.32-.1.63-.21.94-.33C418.48,95.54,418.17,95.65,417.85,95.75Z" style="fill:none"></path><path d="M421.51,56.11h0l-.21-.35h0Z" style="fill:none"></path><path d="M420.28,54.1l-.24-.39h0Z" style="fill:none"></path><path d="M412.36,44.16l-.22-.21.22.21Z" style="fill:none"></path><polygon points="413.7 45.53 413.69 45.52 413.7 45.53 413.7 45.53" style="fill:none"></polygon><path d="M417,49.44l0,0h0Z" style="fill:none"></path><path d="M415.2,96.24c.34,0,.69-.07,1-.12C415.89,96.17,415.54,96.21,415.2,96.24Z" style="fill:none"></path><path d="M396.11,87.24c.52.51,1,1,1.58,1.47C397.15,88.24,396.63,87.75,396.11,87.24Z" style="fill:none"></path><path d="M403.71,93.1c.49.29,1,.54,1.47.79C404.69,93.64,404.2,93.39,403.71,93.1Z" style="fill:none"></path><path d="M401.88,92c.6.41,1.21.79,1.83,1.15C403.09,92.74,402.48,92.36,401.88,92Z" style="fill:none"></path><path d="M411.18,96a5.12,5.12,0,0,0,.54.1A5.12,5.12,0,0,1,411.18,96Z" style="fill:none"></path><path d="M423.63,60.1l-.07-.15h0Z" style="fill:none"></path><path d="M390.33,34.29h0Z" style="fill:none"></path><path d="M393.85,34.16h0Z" style="fill:none"></path><path d="M391.71,34.14h0l-.29,0h0Z" style="fill:none"></path><path d="M395.18,34.31h0l-.53-.07.47.06Z" style="fill:none"></path><path d="M388.73,34.64h0l-.18.06.09,0Z" style="fill:none"></path><path d="M387.56,35.05l-.17.07.15-.06Z" style="fill:none"></path><path d="M406.18,39,406.1,39l.08.05Z" style="fill:none"></path><path d="M428.49,85.69c0,.24-.07.49-.12.72C428.42,86.18,428.45,85.93,428.49,85.69Z" style="fill:none"></path><path d="M427.93,88.19l-.18.62Z" style="fill:none"></path><path d="M428.24,87c-.05.22-.1.45-.15.66C428.14,87.43,428.19,87.2,428.24,87Z" style="fill:none"></path><path d="M427.14,90.42l-.24.55Z" style="fill:none"></path><path d="M427.56,89.33c-.07.2-.13.4-.21.6C427.43,89.73,427.49,89.53,427.56,89.33Z" style="fill:none"></path><path d="M426.66,91.44c-.09.18-.17.35-.26.52C426.49,91.79,426.57,91.62,426.66,91.44Z" style="fill:none"></path><polygon points="426.52 67.18 426.52 67.18 426.52 67.18 426.52 67.18" style="fill:none"></polygon><path d="M403.87,37.55l1,.64Z" style="fill:none"></path><path d="M428.82,82.83l-.06,1Z" style="fill:none"></path><path d="M428.69,84.3c0,.27-.06.55-.1.82C428.63,84.85,428.66,84.57,428.69,84.3Z" style="fill:none"></path><path d="M428.89,80.91c0,.5,0,1,0,1.46C428.88,81.89,428.89,81.41,428.89,80.91Z" style="fill:none"></path><path d="M428.82,78.73v-.14a.61.61,0,0,1,0,.14Z" style="fill:none"></path><path d="M428.58,76.12l0-.28,0,.28Z" style="fill:none"></path><path d="M423.88,95.26l.37-.37Z" style="fill:none"></path><path d="M428,72.84c0-.06,0-.11,0-.17a1,1,0,0,0,0,.17Z" style="fill:none"></path><path d="M428.35,74.5h0l-.12-.68h0Z" style="fill:none"></path><path d="M426.13,92.4c-.09.16-.19.33-.29.48C425.94,92.73,426,92.56,426.13,92.4Z" style="fill:none"></path><path d="M422.77,96.21l-.42.31Z" style="fill:none"></path><path d="M424.92,94.12c-.11.14-.22.28-.34.41C424.7,94.4,424.81,94.26,424.92,94.12Z" style="fill:none"></path><path d="M425.55,93.3c-.1.15-.2.3-.31.44C425.35,93.6,425.45,93.45,425.55,93.3Z" style="fill:none"></path><path d="M423.53,95.58l-.39.34Z" style="fill:none"></path><path d="M387,38.32l-.38.24Z" style="fill:none"></path><path d="M383.49,67.77c-.25-.65-.48-1.29-.7-1.94.22.65.45,1.29.7,1.94Z" style="fill:none"></path><path d="M382.74,65.68h0c-.22-.67-.42-1.34-.61-2h0C382.32,64.34,382.52,65,382.74,65.68Z" style="fill:none"></path><path d="M422.38,92.54a8.87,8.87,0,0,1-1.05.12l-.23,0a11.92,11.92,0,0,1-1.34,0h-.31c-.51,0-1-.08-1.55-.16-.35,0-.7-.12-1-.19l-.34-.08-.72-.18q-.63-.18-1.26-.39l-.25-.1c-.34-.12-.68-.24-1-.39l-.39-.16c-.37-.16-.73-.33-1.11-.51l-.42-.21c-.48-.24-1-.5-1.47-.79s-1.22-.74-1.83-1.14l-.31-.21c-.57-.39-1.14-.81-1.71-1.24l-.32-.26c-.58-.45-1.14-.91-1.7-1.4l-.15-.13c-.53-.48-1.06-1-1.58-1.48l-.26-.25c-.4-.39-.79-.8-1.18-1.21a.46.46,0,0,0-.07-.07c-.36-.4-.73-.8-1.08-1.21l-.24-.27c-.58-.67-1.15-1.37-1.7-2.08l-.18-.23c-.44-.57-.87-1.16-1.29-1.75l-.19-.26c-.4-.57-.79-1.16-1.17-1.76l-.27-.42c-.31-.49-.61-1-.91-1.48l-.18-.32c-.34-.57-.66-1.14-1-1.72-.07-.15-.15-.29-.22-.43-.24-.46-.48-.93-.71-1.4-.08-.15-.15-.31-.23-.46-.28-.6-.55-1.19-.81-1.79,0-.08-.07-.17-.11-.26-.23-.53-.45-1.07-.66-1.61-.07-.17-.13-.33-.19-.49-.24-.64-.48-1.29-.69-1.93a1,1,0,0,1-.05-.16c-.22-.66-.42-1.33-.61-2,0-.13-.08-.25-.11-.38-.22-.78-.4-1.55-.57-2.33,0-.16-.08-.33-.11-.5l-.18-.91c0-.21-.07-.42-.11-.63s-.1-.63-.14-.94S387,54,387,53.85c-.08-.66-.15-1.33-.19-2l0-.42c0-.68-.06-1.35-.06-2,0-5.51,1.48-9.79,4-12.6,3.75-.8,8.29.08,13.17,2.9,12.83,7.41,23.2,25.36,23.15,40.11,0,5.49-1.48,9.77-4,12.58l-.34.08Z" style="fill:none"></path><path d="M388.47,77.72c-.31-.48-.61-1-.9-1.47.29.49.59,1,.9,1.47Z" style="fill:none"></path><path d="M393.28,84.23c-.58-.68-1.15-1.37-1.71-2.08.56.71,1.13,1.4,1.71,2.08Z" style="fill:none"></path><path d="M385.49,72.38c.23.46.46.93.7,1.39C386,73.31,385.72,72.84,385.49,72.38Z" style="fill:none"></path><path d="M387.38,75.93h0c-.33-.57-.65-1.14-1-1.73h0C386.73,74.79,387.05,75.36,387.38,75.93Z" style="fill:none"></path><path d="M420,94.87l.07,0a10.22,10.22,0,0,1-.94.46h0A8.48,8.48,0,0,0,420,94.87Z" style="fill:none"></path><path d="M389.92,79.91c-.4-.58-.79-1.16-1.18-1.76.39.6.78,1.18,1.18,1.76Z" style="fill:none"></path><path d="M394.59,85.69c-.36-.39-.72-.78-1.08-1.19h0C393.87,84.91,394.23,85.3,394.59,85.69Z" style="fill:none"></path><path d="M399.53,90.25c-.6-.47-1.2-1-1.78-1.48l.09.08C398.39,89.34,399,89.8,399.53,90.25Z" style="fill:none"></path><path d="M401.57,91.75l.23.15c-.73-.49-1.45-1-2.15-1.56l.21.17C400.42,90.94,401,91.35,401.57,91.75Z" style="fill:none"></path><path d="M420.15,94.77h0Z" style="fill:none"></path><path d="M395.85,87c-.4-.4-.8-.8-1.19-1.22C395.05,86.19,395.45,86.59,395.85,87Z" style="fill:none"></path><path d="M406.71,94.6h0c-.45-.19-.9-.4-1.35-.62l.24.12C406,94.28,406.34,94.45,406.71,94.6Z" style="fill:none"></path><path d="M408.12,95.16l.26.1c.42.14.83.26,1.24.38a23,23,0,0,1-2.53-.87h0Q407.61,95,408.12,95.16Z" style="fill:none"></path><path d="M413.3,96.25l-.74,0,.74,0Z" style="fill:none"></path><path d="M414.93,96.26a12,12,0,0,1-1.34,0h0C414.05,96.29,414.49,96.28,414.93,96.26Z" style="fill:none"></path><path d="M417.68,95.8a11.29,11.29,0,0,1-1.15.27h0A10.88,10.88,0,0,0,417.68,95.8Z" style="fill:none"></path><path d="M410.67,95.9l-.4-.1.09,0Z" style="fill:none"></path><path d="M391.39,81.91h0c-.44-.57-.87-1.15-1.28-1.74h0C390.52,80.76,391,81.34,391.39,81.91Z" style="fill:none"></path><path d="M383.64,41.55c-.09.12-.18.24-.26.37C383.46,41.79,383.55,41.67,383.64,41.55Z" style="fill:none"></path><path d="M384.22,40.78l-.28.35Z" style="fill:none"></path><path d="M383.1,42.37l-.24.41Z" style="fill:none"></path><path d="M385.52,39.42l-.33.3Z" style="fill:none"></path><path d="M386.23,38.84l-.36.27Z" style="fill:none"></path><path d="M384.85,40.07l-.31.32Z" style="fill:none"></path><path d="M383.67,68.25q.31.81.66,1.62Q384,69.06,383.67,68.25Z" style="fill:none"></path><path d="M384.44,70.13c.26.6.54,1.19.82,1.78C385,71.32,384.7,70.73,384.44,70.13Z" style="fill:none"></path><path d="M394.59,85.69c-.36-.39-.72-.78-1.08-1.19h0l-.23-.27h0c-.58-.68-1.15-1.37-1.71-2.08l-.18-.24h0c-.44-.57-.87-1.15-1.28-1.74h0l-.19-.26h0c-.4-.58-.79-1.16-1.18-1.76l-.27-.43h0c-.31-.48-.61-1-.9-1.47l-.19-.32h0c-.33-.57-.65-1.14-1-1.73h0l-.23-.43c-.24-.46-.47-.93-.7-1.39-.08-.16-.16-.31-.23-.47-.28-.59-.56-1.18-.82-1.78,0-.09-.07-.17-.11-.26q-.34-.81-.66-1.62l-.18-.48h0c-.25-.65-.48-1.29-.7-1.94,0,0,0-.1-.05-.15h0c-.22-.67-.42-1.34-.61-2h0c0-.13-.07-.26-.11-.39-.21-.77-.4-1.55-.57-2.32h0c0-.17-.07-.34-.11-.51s-.11-.6-.17-.9-.07-.39-.1-.58v-.06c-.05-.31-.1-.62-.14-.93s-.06-.37-.08-.56c-.09-.67-.15-1.33-.2-2,0-.14,0-.28,0-.42,0-.68-.07-1.35-.07-2,0-.46,0-.91,0-1.35,0-.17,0-.33,0-.49s0-.55.06-.81l.06-.5c0-.25.05-.5.09-.75l.09-.52c0-.22.07-.45.12-.67s.08-.35.12-.52.09-.42.14-.62.1-.34.14-.5.11-.4.17-.58l.18-.49c.06-.18.12-.37.19-.54s.13-.31.2-.46.14-.35.22-.51.14-.29.22-.43.16-.33.24-.48l.24-.41c.09-.15.18-.3.28-.45s.17-.25.26-.37.19-.29.3-.42l.28-.35.32-.39.31-.32c.11-.12.22-.24.34-.35l.33-.3.35-.31.36-.27.37-.28.38-.24a11.31,11.31,0,0,1,3.71-1.5c-2.5,2.81-4,7.09-4,12.6,0,.67,0,1.34.06,2l0,.42c0,.66.11,1.33.19,2,0,.19.05.38.08.56s.09.62.14.94.08.42.11.63l.18.91c0,.17.07.34.11.5.17.78.35,1.55.57,2.33,0,.13.07.25.11.38.19.67.39,1.34.61,2a1,1,0,0,0,.05.16c.21.64.45,1.29.69,1.93.06.16.12.32.19.49.21.54.43,1.08.66,1.61,0,.09.07.18.11.26.26.6.53,1.19.81,1.79.08.15.15.31.23.46.23.47.47.94.71,1.4.07.14.15.28.22.43.31.58.63,1.15,1,1.72l.18.32c.3.5.6,1,.91,1.48l.27.42c.38.6.77,1.19,1.17,1.76l.19.26c.42.59.85,1.18,1.29,1.75l.18.23c.55.71,1.12,1.41,1.7,2.08l.24.27c.35.41.72.81,1.08,1.21a.46.46,0,0,1,.07.07c.39.41.78.82,1.18,1.21l.26.25c.52.51,1.05,1,1.58,1.48l.15.13c.56.49,1.12,1,1.7,1.4l.32.26c.57.43,1.14.85,1.71,1.24l.31.21c.61.4,1.22.79,1.83,1.14s1,.55,1.47.79l.42.21c.38.18.74.35,1.11.51l.39.16c.35.15.69.27,1,.39l.25.1q.63.21,1.26.39l.72.18.34.08c.35.07.7.14,1,.19.53.08,1,.13,1.55.16h.31a11.92,11.92,0,0,0,1.34,0l.23,0a8.87,8.87,0,0,0,1.05-.12l.32-.05.34-.08a11.09,11.09,0,0,1-2.88,2.35h0l-.12.06-.07,0a8.48,8.48,0,0,1-.86.41h0l-.3.13c-.31.12-.62.23-.94.33l-.17,0a10.88,10.88,0,0,1-1.13.26h0l-.3.05c-.34,0-.69.09-1,.12l-.27,0c-.44,0-.88,0-1.33,0h0l-.29,0h0l-.74,0c-.28,0-.56-.06-.84-.11a5.12,5.12,0,0,1-.54-.1c-.17,0-.34,0-.51-.09l-.31-.08-.09,0-.65-.16c-.41-.12-.82-.24-1.24-.38l-.26-.1q-.51-.18-1-.39h0l-.38-.17h0c-.37-.15-.74-.32-1.11-.5l-.24-.12-.18-.09c-.49-.25-1-.5-1.47-.79s-1.23-.74-1.83-1.15l-.08,0-.23-.15c-.58-.4-1.15-.81-1.71-1.24l-.21-.17-.12-.09c-.57-.45-1.14-.91-1.69-1.4l-.09-.08-.06-.06c-.54-.47-1.06-1-1.58-1.47l-.26-.25c-.4-.4-.8-.8-1.19-1.22Z" style="fill:#ebebeb"></path><polygon points="422.65 73.02 422.65 74.45 426.68 76.78 426.68 75.35 422.65 73.02" style="fill:#fff"></polygon><polygon points="390.04 42.88 389.42 43.76 392.9 48.09 393.53 47.22 390.04 42.88" style="fill:#fff"></polygon><path d="M430.09,78c0,14.74-10.48,20.68-23.3,13.27S383.59,66,383.63,51.21s10.48-20.69,23.31-13.28S430.13,63.29,430.09,78ZM396.37,63.79a1.36,1.36,0,0,0,.56.76.52.52,0,0,0,.25.08l9.87.78a.32.32,0,0,0,.36-.15l6.46-10.94a1.12,1.12,0,0,0-.28-1.12,1,1,0,0,0-.27-.23c-.23-.13-.45-.11-.56.07l-6.35,10.77L396.69,63c-.31,0-.46.32-.32.75m19-9.66,2-2.85L416.29,50l-2,2.85,1.07,1.33m.85,36,1.07-.09-2-5.18-1.08.09,2,5.18M390,66.89l3.5-.3L392.86,65l-3.51.3.62,1.59m33.72,19.47.62-.88-3.49-4.33-.62.87,3.49,4.34M390,42.89l-.63.87,3.49,4.33.63-.87L390,42.89m30.83,21.35,3.5-.3-.62-1.59-3.5.3.62,1.59M397.54,39.13l-1.07.09,2,5.18,1.07-.09-2-5.18m-.11,40.16,2-2.86-1.07-1.32-2,2.85,1.07,1.33m-6.36-23.07V54.79l-4-2.33v1.43l4,2.33m35.61,19.13-4-2.33v1.43l4,2.33V75.35M406.18,87l1.24.71V83.12l-1.24-.72V87m1.37-44.84-1.24-.71,0,4.63,1.24.72,0-4.64" style="fill:#e0e0e0"></path><polygon points="406.31 41.49 406.29 46.12 407.53 46.84 407.55 42.2 406.31 41.49" style="fill:#fff"></polygon><polygon points="416.29 49.95 414.26 52.8 415.33 54.13 417.36 51.28 416.29 49.95" style="fill:#fff"></polygon><polygon points="423.75 62.35 420.25 62.65 420.87 64.24 424.37 63.94 423.75 62.35" style="fill:#fff"></polygon><polygon points="420.82 81.14 420.2 82.02 423.69 86.36 424.31 85.48 420.82 81.14" style="fill:#fff"></polygon><polygon points="415.25 84.84 414.17 84.93 416.18 90.11 417.25 90.02 415.25 84.84" style="fill:#fff"></polygon><polygon points="406.19 82.4 406.18 87.04 407.42 87.75 407.43 83.12 406.19 82.4" style="fill:#fff"></polygon><polygon points="398.39 75.11 396.36 77.96 397.43 79.29 399.46 76.43 398.39 75.11" style="fill:#fff"></polygon><polygon points="392.86 65 389.35 65.3 389.97 66.89 393.47 66.59 392.86 65" style="fill:#fff"></polygon><polygon points="387.04 52.46 387.04 53.89 391.07 56.22 391.08 54.79 387.04 52.46" style="fill:#fff"></polygon><polygon points="397.54 39.13 396.47 39.22 398.48 44.4 399.55 44.31 397.54 39.13" style="fill:#fff"></polygon><path d="M406.87,63.91a.52.52,0,0,0-.25-.08l-.21,0L396.69,63c-.31,0-.46.32-.32.75a1.36,1.36,0,0,0,.56.76.52.52,0,0,0,.25.08l9.87.78h.06c.31,0,.45-.3.32-.75A1.41,1.41,0,0,0,406.87,63.91Z" style="fill:#fff"></path><path d="M413.32,53c-.23-.13-.45-.11-.56.07l-6.35,10.77.21,0a.52.52,0,0,1,.25.08,1.41,1.41,0,0,1,.56.75c.13.45,0,.78-.32.75h-.06a.32.32,0,0,0,.36-.15l6.46-10.94a1.12,1.12,0,0,0-.28-1.12A1,1,0,0,0,413.32,53Z" style="fill:#f5f5f5"></path><path d="M422.77,96.21l.37-.29.39-.34.35-.32.37-.37c.11-.12.23-.23.33-.36s.23-.27.34-.41.22-.25.32-.38.21-.29.31-.44.2-.27.29-.42.2-.32.29-.48l.27-.44c.09-.17.17-.34.26-.52l.24-.47.24-.55.21-.49c.08-.2.14-.4.21-.6s.13-.34.19-.52l.18-.62c.05-.18.11-.36.16-.55s.1-.44.15-.66.09-.37.13-.57.08-.48.12-.72.07-.37.1-.57.07-.55.1-.82.05-.35.07-.52l.06-1c0-.15,0-.3,0-.46,0-.48,0-1,0-1.46,0-.72,0-1.45-.07-2.18h0a.61.61,0,0,0,0-.14c-.05-.82-.12-1.64-.23-2.47h0l0-.28c-.06-.44-.13-.89-.2-1.34h0l-.12-.68h0c-.06-.33-.13-.66-.19-1h0a1,1,0,0,1,0-.17,49.14,49.14,0,0,0-1.48-5.49h0a57.19,57.19,0,0,0-2.89-7.08l-.07-.15h0c-.64-1.3-1.32-2.58-2.05-3.84h0l-.21-.35h0c-.33-.56-.67-1.11-1-1.66l-.24-.39h0c-1-1.47-2-2.9-3-4.27l0,0h0q-1.58-2-3.28-3.86h0c-.44-.47-.88-.93-1.33-1.37h0l-.22-.21c-.58-.57-1.17-1.13-1.77-1.66h0l-.06-.06c-.63-.56-1.27-1.09-1.92-1.6h0l-.35-.27h0c-.6-.47-1.22-.92-1.84-1.34h0L406.1,39c-.39-.27-.79-.53-1.19-.78l-1-.64c-.54-.3-1.07-.58-1.6-.85h0l0,0a25.92,25.92,0,0,0-4.75-1.87h0L397,34.7l-.68-.17h0l-.47-.09-.64-.11h-.06l-.47-.06-.82-.09h-.32a13.39,13.39,0,0,0-1.79,0h0l-.24,0h0c-.38,0-.75.07-1.12.13h0a12.9,12.9,0,0,0-1.55.33h0l-.06,0-.09,0q-.52.16-1,.36h0l-.15.06a13,13,0,0,0-1.35.66l-.05,0,6.16-3.57.14-.08.16-.08q.45-.24.93-.45l.17-.09.15-.05c.36-.15.74-.28,1.13-.4l0,0h0a12.83,12.83,0,0,1,1.26-.29l.14,0,.21,0c.37-.06.75-.11,1.13-.14l.18,0h.07a14,14,0,0,1,1.45,0h.14l.48,0,.33,0q.51,0,1,.12h0c.37.05.75.13,1.13.21l.36.08.72.18.07,0q.66.18,1.35.42l.28.1,1.1.42.15.06.28.12c.39.17.79.36,1.19.55l.46.22c.52.27,1.05.55,1.59.86s1.32.8,2,1.24l.33.22c.62.42,1.24.87,1.85,1.34l.35.28c.62.48,1.23,1,1.83,1.51l.16.15c.58.51,1.15,1,1.72,1.59l.17.17.1.1c.44.43.86.87,1.28,1.32l.07.07c.4.42.79.86,1.18,1.3l.11.13.14.16c.63.74,1.25,1.48,1.85,2.25a.18.18,0,0,0,.05.07l.13.18c.48.62.94,1.25,1.4,1.89a1.33,1.33,0,0,0,.14.19l.06.1c.44.62.86,1.25,1.27,1.89l.12.18.17.28c.34.53.66,1.06,1,1.6l.15.25a.31.31,0,0,1,.05.1c.36.61.71,1.23,1,1.86l.09.15a3,3,0,0,0,.16.31c.26.5.51,1,.76,1.51l.16.32.09.19c.3.64.6,1.28.88,1.93l0,.06c0,.06.05.13.08.2q.38.87.72,1.77l.12.28a2.34,2.34,0,0,0,.09.24c.26.7.51,1.39.75,2.09v0a.56.56,0,0,0,0,.12c.23.72.45,1.45.66,2.17,0,.09.06.18.08.27a.83.83,0,0,0,0,.15c.23.84.43,1.67.61,2.51l.06.22.06.33c.07.33.13.66.19,1l.12.69c.06.34.11.67.15,1,0,.16.05.32.08.48a.49.49,0,0,0,0,.12q.13,1.08.21,2.16l0,.45c0,.73.07,1.46.07,2.18,0,7.92-2.82,13.49-7.33,16.11L421.57,97l.39-.25.39-.25Z" style="fill:#ebebeb"></path><path d="M378.67,51.91c-.05,15.93,11.16,35.35,25,43.36,7.18,4.14,13.67,4.41,18.26,1.5l.39-.25.42-.31.37-.29.39-.34.35-.32.37-.37c.11-.12.23-.23.33-.36s.23-.27.34-.41.22-.25.32-.38.21-.29.31-.44.2-.27.29-.42.2-.32.29-.48l.27-.44c.09-.17.17-.34.26-.52l.24-.47.24-.55.21-.49c.08-.2.14-.4.21-.6s.13-.34.19-.52l.18-.62c.05-.18.11-.36.16-.55s.1-.44.15-.66.09-.37.13-.57.08-.48.12-.72.07-.37.1-.57.07-.55.1-.82.05-.35.07-.52l.06-1c0-.15,0-.3,0-.46,0-.48,0-1,0-1.46,0-.72,0-1.45-.07-2.18v-.14c-.05-.82-.12-1.64-.23-2.47l0-.28c-.06-.44-.13-.89-.2-1.34l-.12-.68c-.06-.33-.13-.66-.19-1,0-.06,0-.11,0-.17a49.14,49.14,0,0,0-1.48-5.49h0a57.19,57.19,0,0,0-2.89-7.08l-.07-.15c-.64-1.3-1.32-2.58-2.05-3.84l-.21-.35c-.33-.56-.67-1.11-1-1.66l-.24-.39c-1-1.47-2-2.9-3-4.27l0,0q-1.58-2-3.28-3.86h0c-.44-.47-.88-.93-1.33-1.37l-.22-.21c-.58-.57-1.17-1.13-1.77-1.66l-.07-.06c-.63-.56-1.27-1.09-1.92-1.6l-.36-.27c-.6-.47-1.22-.92-1.84-1.34L406.1,39c-.39-.27-.79-.53-1.19-.78l-1-.64c-.54-.3-1.07-.58-1.6-.85l0,0a25.92,25.92,0,0,0-4.75-1.87L397,34.7l-.68-.17-.5-.1-.64-.11-.53-.07-.82-.09h-.32a13.39,13.39,0,0,0-1.79,0l-.29,0c-.38,0-.75.07-1.12.13h0a12.9,12.9,0,0,0-1.55.33l-.18.06q-.52.16-1,.36l-.17.07a13,13,0,0,0-1.35.66C381.51,38.39,378.69,44,378.67,51.91Zm16,33.86-.07-.08c-.36-.39-.72-.78-1.08-1.19l-.23-.27c-.58-.68-1.15-1.37-1.71-2.08l-.18-.24c-.44-.57-.87-1.15-1.28-1.74l-.19-.26c-.4-.58-.79-1.16-1.18-1.76l-.27-.43c-.31-.48-.61-1-.9-1.47l-.19-.32c-.33-.57-.65-1.14-1-1.73l-.23-.43c-.24-.46-.47-.93-.7-1.39-.08-.16-.16-.31-.23-.47-.28-.59-.56-1.18-.82-1.78,0-.09-.07-.17-.11-.26q-.34-.81-.66-1.62l-.18-.48c-.25-.65-.48-1.29-.7-1.94,0,0,0-.1-.05-.15-.22-.67-.42-1.34-.61-2,0-.13-.07-.26-.11-.39-.21-.77-.4-1.55-.57-2.32,0-.17-.07-.34-.11-.51s-.11-.6-.17-.9-.07-.39-.1-.58-.11-.66-.15-1-.06-.37-.08-.56c-.09-.67-.15-1.33-.2-2,0-.14,0-.28,0-.42,0-.68-.07-1.35-.07-2,0-.46,0-.91,0-1.35,0-.17,0-.33,0-.49s0-.55.06-.81l.06-.5c0-.25.05-.5.09-.75l.09-.52c0-.22.07-.45.12-.67s.08-.35.12-.52.09-.42.14-.62.1-.34.14-.5.11-.4.17-.58l.18-.49c.06-.18.12-.37.19-.54s.13-.31.2-.46.14-.35.22-.51.14-.29.22-.43.16-.33.24-.48l.24-.41c.09-.15.18-.3.28-.45s.17-.25.26-.37.19-.29.3-.42l.28-.35.32-.39.31-.32c.11-.12.22-.24.34-.35l.33-.3.35-.31.36-.27.37-.28.38-.24a11.31,11.31,0,0,1,3.71-1.5c3.75-.8,8.29.08,13.17,2.9,12.83,7.41,23.2,25.36,23.15,40.11,0,5.49-1.48,9.77-4,12.58a11.09,11.09,0,0,1-2.88,2.35h0l-.12.06a10.22,10.22,0,0,1-.94.46l-.3.13c-.31.12-.62.23-.94.33l-.17,0a11.29,11.29,0,0,1-1.15.27l-.3.05c-.34,0-.69.09-1,.12l-.27,0a12,12,0,0,1-1.34,0l-.29,0-.74,0c-.28,0-.56-.06-.84-.11a5.12,5.12,0,0,1-.54-.1c-.17,0-.34,0-.51-.09l-.4-.1-.65-.16a23,23,0,0,1-2.53-.87l-.38-.17c-.45-.19-.9-.4-1.35-.62l-.18-.09c-.49-.25-1-.5-1.47-.79s-1.23-.74-1.83-1.15l-.08,0c-.73-.49-1.45-1-2.15-1.56l-.12-.09c-.6-.47-1.2-1-1.78-1.48l-.06-.06c-.54-.47-1.06-1-1.58-1.47l-.26-.25C395.45,86.59,395.05,86.19,394.66,85.77Z" style="fill:#fff"></path></g><g id="freepik--speech-bubble--inject-63"><path d="M304.73,60.34a.7.7,0,0,0-.36-.61h0L301.21,58h0a.69.69,0,0,0-.68,0l-63.84,37.1a2.11,2.11,0,0,0-1,1.84l0,8-7.5,7.75c-.67.7-.74,1.75-.22,1.91l3,1.65a.47.47,0,0,0,.41.14l4.35-.53,0,5.91a.7.7,0,0,0,.34.6h0l3.14,1.75,0,0,0,0a.71.71,0,0,0,.65,0l63.83-37.11a2.1,2.1,0,0,0,1.06-1.83Zm-65.39,36.9-.07.08Zm-.21.26a.35.35,0,0,1,0,.08A.35.35,0,0,0,239.13,97.5Zm-.3.71a.29.29,0,0,1,0,.09A.29.29,0,0,0,238.83,98.21Zm.67-1.13.07-.06Z" style="fill:#90CAF9"></path><path d="M238.85,123.55a.71.71,0,0,0,.33.6L236,122.4h0a.7.7,0,0,1-.34-.6l0-5.91,3.17-.39Z" style="opacity:0.1"></path><path d="M236.66,95.07,300.5,58a.69.69,0,0,1,.68,0h0l3.16,1.76h0a.7.7,0,0,0-.7,0l-63.83,37.1a2.14,2.14,0,0,0-.9,1L235.79,96A2.15,2.15,0,0,1,236.66,95.07Z" style="fill:#fff;opacity:0.2"></path><path d="M235.63,105l0-8a2.15,2.15,0,0,1,.18-.87l3.15,1.82a2,2,0,0,0-.16.81l0,8.06L235.63,105Z" style="fill:#fff;opacity:0.1"></path><path d="M228.13,112.71l7.5-7.75,3.17,1.77h0l-7.49,7.75c-.58.6-.72,1.46-.41,1.79l-3-1.65C227.39,114.46,227.46,113.41,228.13,112.71Z" style="fill:#fff;opacity:0.05"></path><path d="M250.78,103.58c.77-.12,1.25.27,1.26,1.22,0,1.34-1,2.7-2.8,3.75l-3.67,2.12,0-7.81,3.47-2c1.8-1,2.67-.7,2.67.5A3.45,3.45,0,0,1,250.78,103.58ZM249.09,107a1.65,1.65,0,0,0,1-1.36c0-.54-.35-.6-1-.22l-1.62.93V108l1.62-.94m-1.63-3.68v1.5l1.33-.76a1.57,1.57,0,0,0,1-1.32c0-.49-.33-.56-1-.19l-1.32.77" style="fill:#fff"></path><path d="M255.58,98.73c1.74-1,3-.42,3,1.4a6,6,0,0,1-3,4.86c-1.72,1-3,.41-3-1.43A6,6,0,0,1,255.58,98.73Zm0,4.56a2.37,2.37,0,0,0,1.11-2.08c0-.92-.48-1.15-1.12-.79a2.4,2.4,0,0,0-1.1,2.07c0,.93.49,1.16,1.11.8" style="fill:#fff"></path><path d="M262.05,95c1.74-1,3-.42,3,1.39a6,6,0,0,1-3,4.86c-1.72,1-3,.41-3-1.42A6,6,0,0,1,262.05,95Zm0,4.56a2.4,2.4,0,0,0,1.11-2.09c0-.91-.48-1.15-1.12-.78a2.4,2.4,0,0,0-1.1,2.06c0,.93.49,1.17,1.11.81" style="fill:#fff"></path><polygon points="267.72 89.59 267.73 93.93 269.61 90.73 271.79 89.47 269.61 93.33 271.99 95.42 269.76 96.71 268.28 95.44 267.74 96.38 267.74 97.87 265.9 98.94 265.88 90.66 267.72 89.59" style="fill:#fff"></polygon><path d="M279.38,85c1.22-.7,2.13-.4,2.13,1.47v3.46L279.68,91V87.87c0-.87-.32-1.06-.8-.78A2,2,0,0,0,278,89v3L276.11,93V89.93c0-.88-.31-1.07-.8-.79a2.05,2.05,0,0,0-.93,1.89v3l-1.85,1.06v-6l1.75-1v.64A4.3,4.3,0,0,1,275.86,87c.71-.42,1.32-.47,1.7,0A4.74,4.74,0,0,1,279.38,85Z" style="fill:#fff"></path><path d="M284.92,81.79c1.7-1,2.69-.68,2.7,1.25v3.35l-1.72,1V86.6a3.3,3.3,0,0,1-1.55,1.78c-1.26.73-2,.31-2-.73s.7-2.22,2.33-3.16l1-.61c0-.59-.39-.72-1.12-.3a4.52,4.52,0,0,0-1.42,1.34l-.63-1.08A8.22,8.22,0,0,1,284.92,81.79Zm.86,3.73V85l-.81.46c-.59.34-.8.71-.8,1.08s.26.47.69.22a2,2,0,0,0,.92-1.23" style="fill:#fff"></path><path d="M292.3,77.53v1.91a4.1,4.1,0,0,0-.42.21,2.42,2.42,0,0,0-1.26,2.23v2.78l-1.84,1.06,0-6,1.76-1v.73A4.43,4.43,0,0,1,292.3,77.53Z" style="fill:#fff"></path><polygon points="294.9 73.9 294.91 78.24 296.79 75.04 298.98 73.78 296.8 77.64 299.17 79.73 296.94 81.01 295.46 79.75 294.92 80.69 294.92 82.18 293.08 83.25 293.05 74.97 294.9 73.9" style="fill:#fff"></polygon></g><g id="freepik--Pictures--inject-63"><polygon points="418.5 125.6 452.46 145.2 452.38 171.16 418.43 151.55 418.5 125.6" style="fill:none"></polygon><polygon points="418.5 125.6 418.43 151.55 415.28 153.38 415.36 123.79 418.5 125.6" style="fill:#f0f0f0"></polygon><polygon points="452.38 171.16 452.37 174.79 415.28 153.38 418.43 151.55 452.38 171.16" style="fill:#f5f5f5"></polygon><path d="M411.47,155.55l44.69,25.81.11-38.32-44.69-25.81Zm3.81-2.17.08-29.59,3.14,1.81,34,19.6-.08,26v3.63Z" style="fill:#e0e0e0"></path><polygon points="411.57 117.23 414.72 115.4 459.42 141.21 456.27 143.03 411.57 117.23" style="fill:#f5f5f5"></polygon><polygon points="459.42 141.21 459.31 179.53 456.16 181.36 456.27 143.03 459.42 141.21" style="fill:#f0f0f0"></polygon><polygon points="363.25 93.85 397.2 113.45 397.13 139.41 363.17 119.8 363.25 93.85" style="fill:none"></polygon><polygon points="363.25 93.85 363.17 119.8 360.03 121.63 360.11 92.04 363.25 93.85" style="fill:#f0f0f0"></polygon><polygon points="397.13 139.41 397.12 143.04 360.03 121.63 363.17 119.8 397.13 139.41" style="fill:#f5f5f5"></polygon><path d="M356.21,123.8l44.7,25.81.11-38.32-44.7-25.81Zm3.82-2.17L360.11,92l3.14,1.81,33.95,19.6-.07,26V143Z" style="fill:#e0e0e0"></path><polygon points="356.32 85.48 359.47 83.65 404.16 109.46 401.02 111.28 356.32 85.48" style="fill:#f5f5f5"></polygon><polygon points="404.16 109.46 404.06 147.78 400.91 149.61 401.02 111.28 404.16 109.46" style="fill:#f0f0f0"></polygon><polygon points="429.29 135.45 420.03 142.74 420.01 149.87 450.81 167.65 450.83 160.53 444.96 148.87 439.69 152.96 441.55 158.75 438.85 153.61 429.29 135.45" style="fill:#e0e0e0"></polygon><path d="M439.41,139c-1.45-.84-2.63-.16-2.64,1.5a5.76,5.76,0,0,0,2.62,4.53c1.45.84,2.63.17,2.63-1.5A5.76,5.76,0,0,0,439.41,139Z" style="fill:#e0e0e0"></path><polygon points="374.04 103.7 364.77 110.99 364.75 118.12 395.56 135.9 395.58 128.78 389.71 117.12 384.44 121.21 386.3 127 383.59 121.86 374.04 103.7" style="fill:#e0e0e0"></polygon><path d="M384.15,107.29c-1.45-.84-2.63-.16-2.63,1.5a5.74,5.74,0,0,0,2.62,4.53c1.45.84,2.62.17,2.63-1.5A5.79,5.79,0,0,0,384.15,107.29Z" style="fill:#e0e0e0"></path></g><g id="freepik--Books--inject-63"><polygon points="381.76 386.1 469.12 335.66 452.91 326.24 381.7 367.35 381.76 386.1" style="fill:#263238"></polygon><polygon points="469.12 335.66 381.76 386.1 381.7 367.35 452.91 326.24 469.06 316.92 469.06 313.86 379.03 365.84 379.1 390.7 469.13 338.72 469.12 335.66" style="fill:#455a64"></polygon><polygon points="469.12 335.66 381.76 386.1 381.7 367.35 452.91 326.24 469.06 316.92 469.06 313.86 379.03 365.84 379.1 390.7 469.13 338.72 469.12 335.66" style="opacity:0.30000000000000004"></polygon><polygon points="469.12 335.66 381.76 386.1 381.7 367.35 452.91 326.24 469.06 316.92 469.06 313.86 379.03 365.84 379.1 390.7 469.13 338.72 469.12 335.66" style="fill:#fff;opacity:0.1"></polygon><polygon points="379.03 365.84 249.36 290.48 249.43 315.35 379.1 390.7 379.03 365.84" style="fill:#455a64"></polygon><polygon points="379.03 365.84 249.36 290.48 249.43 315.35 379.1 390.7 379.03 365.84" style="opacity:0.2"></polygon><polygon points="379.03 365.84 249.36 290.48 249.43 315.35 379.1 390.7 379.03 365.84" style="fill:#fff;opacity:0.1"></polygon><polygon points="379.03 365.84 469.06 313.86 339.39 238.5 249.36 290.48 379.03 365.84" style="fill:#455a64"></polygon><polygon points="379.03 365.84 469.06 313.86 339.39 238.5 249.36 290.48 379.03 365.84" style="fill:#fff;opacity:0.1"></polygon><polygon points="466.64 318.31 466.64 337.09 381.76 386.1 381.7 367.35 466.64 318.31" style="fill:#f5f5f5"></polygon><path d="M397.57,391.64l1.89-6.79,6.48,2c-7.19-7-2.07-15.68-10.47-20.36l-8.37,4.83C394.93,377,390.53,383.54,397.57,391.64Z" style="fill:#90CAF9"></path><g style="opacity:0.2"><path d="M397.57,391.64l1.89-6.79,6.48,2c-7.19-7-2.07-15.68-10.47-20.36l-8.37,4.83C394.93,377,390.53,383.54,397.57,391.64Z" style="fill:#fff"></path></g><path d="M336.51,256,280.1,288.55a2.28,2.28,0,0,0,0,3.95l30.68,17.83a5.7,5.7,0,0,0,5.72,0l56.41-32.57a2.28,2.28,0,0,0,0-3.95L342.23,256A5.7,5.7,0,0,0,336.51,256Z" style="fill:#455a64"></path><polygon points="383.42 279.46 320.73 315.66 325.66 318.52 388.35 282.33 383.42 279.46" style="fill:#455a64"></polygon><polygon points="328 320.47 332.94 323.33 366.18 304.14 361.25 301.27 328 320.47" style="fill:#455a64"></polygon><polygon points="434.86 289.89 434.85 289.89 437.14 288.57 437.14 288.57 460.39 275.17 460.38 275.17 462.67 273.85 377.79 224.84 268.64 287.78 353.52 336.79 434.86 289.89" style="fill:#90CAF9"></polygon><path d="M462.67,273.85h0l-2.29,1.32h0l-23.25,13.4h0l-2.29,1.32h0l-81.34,46.9a2.47,2.47,0,0,1,1.14,2l-.08,29.42a.81.81,0,0,1-.32.72h0L463.38,306l0,0h0a.81.81,0,0,0,.31-.72l.08-29.41A2.48,2.48,0,0,0,462.67,273.85Z" style="fill:#90CAF9"></path><path d="M354.66,338.76a2.47,2.47,0,0,0-1.14-2l-84.88-49v2.63l83.74,48.35-.08,26.78-83.74-48.35v2.63l84.88,49a.8.8,0,0,0,.83.07.81.81,0,0,0,.32-.72Z" style="fill:#90CAF9"></path><polygon points="434.86 289.89 434.85 289.89 437.14 288.57 437.14 288.57 460.39 275.17 460.38 275.17 462.67 273.85 377.79 224.84 268.64 287.78 353.52 336.79 434.86 289.89" style="opacity:0.2"></polygon><path d="M462.67,273.85h0l-2.29,1.32h0l-23.25,13.4h0l-2.29,1.32h0l-81.34,46.9a2.47,2.47,0,0,1,1.14,2l-.08,29.42a.81.81,0,0,1-.32.72h0L463.38,306l0,0h0a.81.81,0,0,0,.31-.72l.08-29.41A2.48,2.48,0,0,0,462.67,273.85Z" style="opacity:0.4"></path><path d="M354.66,338.76a2.47,2.47,0,0,0-1.14-2l-84.88-49v2.63l83.74,48.35-.08,26.78-83.74-48.35v2.63l84.88,49a.8.8,0,0,0,.83.07.81.81,0,0,0,.32-.72Z" style="opacity:0.30000000000000004"></path><polygon points="273.86 293.43 273.86 315.24 352.31 360.79 352.37 338.76 273.86 293.43" style="fill:#f5f5f5"></polygon><polygon points="268.55 317.19 273.86 314.06 273.86 315.24 352.31 360.79 352.29 365.54 268.55 317.19" style="fill:#90CAF9"></polygon><polygon points="268.55 317.19 273.86 314.06 273.86 315.24 352.31 360.79 352.29 365.54 268.55 317.19" style="opacity:0.4"></polygon><path d="M462.67,273.85h0l-84.88-49L268.64,287.78v2.63l83.74,48.35-.08,26.78,0-4.76-78.45-45.54v-1.18l-5.31,3.13v2.63l84.88,49a.8.8,0,0,0,.83.07h0L463.38,306l0,0h0a.81.81,0,0,0,.31-.72l.08-29.41A2.48,2.48,0,0,0,462.67,273.85Z" style="fill:#fff;opacity:0.1"></path><path d="M337.65,359.69l-1.89-6.79-6.47,2c7.18-7,2.07-15.68,10.47-20.37l8.36,4.83C340.3,345.06,344.69,351.59,337.65,359.69Z" style="fill:#90CAF9"></path><g style="opacity:0.2"><path d="M337.65,359.69l-1.89-6.79-6.47,2c7.18-7,2.07-15.68,10.47-20.37l8.36,4.83C340.3,345.06,344.69,351.59,337.65,359.69Z" style="fill:#fff"></path></g><polygon points="387.34 333.09 466.46 287.41 451.78 278.88 387.29 316.11 387.34 333.09" style="fill:#263238"></polygon><polygon points="466.46 287.41 387.34 333.09 387.29 316.11 451.78 278.88 466.42 270.43 466.41 267.66 384.87 314.74 384.93 337.26 466.47 290.18 466.46 287.41" style="fill:#455a64"></polygon><polygon points="466.46 287.41 387.34 333.09 387.29 316.11 451.78 278.88 466.42 270.43 466.41 267.66 384.87 314.74 384.93 337.26 466.47 290.18 466.46 287.41" style="opacity:0.30000000000000004"></polygon><polygon points="466.46 287.41 387.34 333.09 387.29 316.11 451.78 278.88 466.42 270.43 466.41 267.66 384.87 314.74 384.93 337.26 466.47 290.18 466.46 287.41" style="fill:#fff;opacity:0.1"></polygon><polygon points="384.87 314.74 267.42 246.49 267.49 269.01 384.93 337.26 384.87 314.74" style="fill:#455a64"></polygon><polygon points="384.87 314.74 267.42 246.49 267.49 269.01 384.93 337.26 384.87 314.74" style="opacity:0.2"></polygon><polygon points="384.87 314.74 267.42 246.49 267.49 269.01 384.93 337.26 384.87 314.74" style="fill:#fff;opacity:0.1"></polygon><polygon points="384.87 314.74 466.41 267.66 348.97 199.41 267.42 246.49 384.87 314.74" style="fill:#455a64"></polygon><polygon points="384.87 314.74 466.41 267.66 348.97 199.41 267.42 246.49 384.87 314.74" style="fill:#fff;opacity:0.1"></polygon><polygon points="464.22 271.69 464.22 288.7 387.34 333.09 387.29 316.11 464.22 271.69" style="fill:#f5f5f5"></polygon><path d="M346.35,215.24l-51.09,29.5a2.07,2.07,0,0,0,0,3.58L323,264.46a5.16,5.16,0,0,0,5.18,0L379.31,235a2.07,2.07,0,0,0,0-3.58l-27.78-16.14A5.18,5.18,0,0,0,346.35,215.24Z" style="fill:#455a64"></path><polygon points="388.84 236.51 332.06 269.29 336.53 271.88 393.31 239.1 388.84 236.51" style="fill:#455a64"></polygon><polygon points="338.65 273.64 343.12 276.24 373.23 258.85 368.76 256.26 338.65 273.64" style="fill:#455a64"></polygon><polygon points="416.64 305.76 485.74 265.87 472.92 258.42 416.6 290.93 416.64 305.76" style="fill:#e0e0e0"></polygon><polygon points="485.74 265.87 416.64 305.76 416.6 290.93 472.92 258.42 485.69 251.04 485.69 248.63 414.48 289.74 414.54 309.4 485.74 268.29 485.74 265.87" style="fill:#e6e6e6"></polygon><polygon points="485.74 265.87 416.64 305.76 416.6 290.93 472.92 258.42 485.69 251.04 485.69 248.63 414.48 289.74 414.54 309.4 485.74 268.29 485.74 265.87" style="opacity:0.30000000000000004"></polygon><polygon points="485.74 265.87 416.64 305.76 416.6 290.93 472.92 258.42 485.69 251.04 485.69 248.63 414.48 289.74 414.54 309.4 485.74 268.29 485.74 265.87" style="fill:#fff;opacity:0.1"></polygon><polygon points="414.48 289.74 311.93 230.14 311.99 249.8 414.54 309.4 414.48 289.74" style="fill:#e6e6e6"></polygon><polygon points="414.48 289.74 311.93 230.14 311.99 249.8 414.54 309.4 414.48 289.74" style="opacity:0.2"></polygon><polygon points="414.48 289.74 311.93 230.14 311.99 249.8 414.54 309.4 414.48 289.74" style="fill:#fff;opacity:0.1"></polygon><polygon points="414.48 289.74 485.69 248.63 383.14 189.03 311.93 230.14 414.48 289.74" style="fill:#e6e6e6"></polygon><polygon points="414.48 289.74 485.69 248.63 383.14 189.03 311.93 230.14 414.48 289.74" style="fill:#fff;opacity:0.1"></polygon><polygon points="483.78 252.15 483.78 267 416.64 305.76 416.6 290.93 483.78 252.15" style="fill:#f5f5f5"></polygon><path d="M435.24,307.28l1.49-5.37,5.13,1.55c-5.69-5.51-1.64-12.4-8.28-16.11L427,291.17C433.15,295.71,429.67,300.88,435.24,307.28Z" style="fill:#455a64"></path><g style="opacity:0.2"><path d="M435.24,307.28l1.49-5.37,5.13,1.55c-5.69-5.51-1.64-12.4-8.28-16.11L427,291.17C433.15,295.71,429.67,300.88,435.24,307.28Z" style="fill:#fff"></path></g><path d="M380.86,202.85l-44.62,25.76a1.81,1.81,0,0,0,0,3.13l24.26,14.09a4.48,4.48,0,0,0,4.52,0l44.62-25.76a1.8,1.8,0,0,0,0-3.12l-24.26-14.1A4.51,4.51,0,0,0,380.86,202.85Z" style="fill:#e6e6e6"></path><polygon points="417.96 221.42 368.38 250.05 372.28 252.31 421.86 223.69 417.96 221.42" style="fill:#e6e6e6"></polygon><polygon points="374.13 253.85 378.03 256.12 404.32 240.94 400.42 238.67 374.13 253.85" style="fill:#e6e6e6"></polygon><g style="opacity:0.1"><path d="M380.86,202.85l-44.62,25.76a1.81,1.81,0,0,0,0,3.13l24.26,14.09a4.48,4.48,0,0,0,4.52,0l44.62-25.76a1.8,1.8,0,0,0,0-3.12l-24.26-14.1A4.51,4.51,0,0,0,380.86,202.85Z"></path><polygon points="417.96 221.42 368.38 250.05 372.28 252.31 421.86 223.69 417.96 221.42"></polygon><polygon points="374.13 253.85 378.03 256.12 404.32 240.94 400.42 238.67 374.13 253.85"></polygon></g></g><g id="freepik--Character--inject-63"><path d="M210,409a10.22,10.22,0,0,0,7.68,2.83,23.14,23.14,0,0,0,8.13-2.05c2.6-1.07,5.86-4.06,8.67-4a68.38,68.38,0,0,0,8.22-.57,42.81,42.81,0,0,0-1.17-11.13l-13.12-.34c-3.54,4.85-10.43,8.88-15.64,10.4a4.59,4.59,0,0,0-3.24,3.45.19.19,0,0,1,0,.08A5.53,5.53,0,0,0,210,409Z" style="fill:#455a64"></path><path d="M234.51,405.82c-2.81-.06-6.07,2.93-8.67,4a23.14,23.14,0,0,1-8.13,2.05A10.22,10.22,0,0,1,210,409a5.53,5.53,0,0,1-.46-1.33.19.19,0,0,0,0-.08,4.25,4.25,0,0,0,0,1.74,5.74,5.74,0,0,0,.46,1.34,10.21,10.21,0,0,0,7.68,2.82,23.14,23.14,0,0,0,8.13-2c2.6-1.06,5.86-4.06,8.67-4a60.88,60.88,0,0,0,8.09-.47c.06-.58.1-1.17.13-1.76A68.38,68.38,0,0,1,234.51,405.82Z" style="fill:#263238"></path><path d="M274.92,416.35a20.34,20.34,0,0,1-.42,4.27,9.86,9.86,0,0,1-3.9,6.22,12.52,12.52,0,0,1-6.2,1.65,13.76,13.76,0,0,1-5.68-.58,6.45,6.45,0,0,1-3.32-2.71s0,.05,0,.07a5.92,5.92,0,0,0,3.82,4,13.72,13.72,0,0,0,5.67.58,12.52,12.52,0,0,0,6.2-1.65A9.91,9.91,0,0,0,275,422a20.34,20.34,0,0,0,.42-4.27,7.19,7.19,0,0,1,2.29-5.22,13.86,13.86,0,0,0,1-1,2.51,2.51,0,0,0,.6-1.86c0-.26,0-.52-.08-.78-.51.6-1.73,2-2,2.33A7.22,7.22,0,0,0,274.92,416.35Z" style="fill:#263238"></path><path d="M264.16,401.48a15.61,15.61,0,0,1-1.1,8.65,32.62,32.62,0,0,1-4.58,7.53,23.59,23.59,0,0,0-2.4,3.5,6.35,6.35,0,0,0-.68,4,6.45,6.45,0,0,0,3.32,2.71,13.76,13.76,0,0,0,5.68.58,12.52,12.52,0,0,0,6.2-1.65,9.86,9.86,0,0,0,3.9-6.22,20.34,20.34,0,0,0,.42-4.27,7.22,7.22,0,0,1,2.29-5.22c.31-.29,1.53-1.73,2-2.33a15.85,15.85,0,0,0-2.1-6Z" style="fill:#455a64"></path><path d="M227.89,278.77s-3.31,43.57-3,55.69,1.51,60,1.51,60c6.79,4,16.6,1,16.6,1,.8-38.24,4.4-46.46,1.95-60.46,1.73-10.39,4.12-34.6,4.12-34.6,3.38,29.12,5.84,44.12,5.84,44.12l8.08,58.3c6.63,3.46,15,0,15,0,0-33.23.72-47.29-2.74-69.22-.18-33.76-1.89-54.27-1.89-54.27Z" style="fill:#455a64"></path><path d="M227.89,278.77s-3.31,43.57-3,55.69,1.51,60,1.51,60c6.79,4,16.6,1,16.6,1,.8-38.24,4.4-46.46,1.95-60.46,1.73-10.39,4.12-34.6,4.12-34.6,3.38,29.12,5.84,44.12,5.84,44.12l8.08,58.3c6.63,3.46,15,0,15,0,0-33.23.72-47.29-2.74-69.22-.18-33.76-1.89-54.27-1.89-54.27Z" style="fill:#fff;opacity:0.5"></path><path d="M235.92,290c2.31,5.68,9.58,5.68,9.58,5.68l1.3,6.45-.49,23c1.4-11.16,2.73-24.66,2.73-24.66l-.9-6.91A19.14,19.14,0,0,1,235.92,290Z" style="opacity:0.2"></path><path d="M203.15,217l-6.71,1.92-7.54-25.55a11.75,11.75,0,0,1-.24-6l.76-3.45a9.34,9.34,0,0,0,.19-2.74c-.1-1.39-.25-2.81-.3-4.17a2,2,0,0,0-.32-1.22,1.22,1.22,0,0,0-1.36-.28,2,2,0,0,0-1,1,5.89,5.89,0,0,0-.4,1.42c-.14.76-.29,1.51-.43,2.26a2.91,2.91,0,0,1-.28.91,1,1,0,0,1-.73.55c-.72.06-5.11-11.23-4.8-15.28.09-1.08-3-1.94-3.1,2.61a2.87,2.87,0,0,0-1.94,1.65c-.54,1-1.08,2-1.63,2.95a12.2,12.2,0,0,0-1.33,3,10,10,0,0,0,.32,4.9,20.32,20.32,0,0,0,4.25,7.81,12,12,0,0,1,2.73,6.09l4.65,30.08a9.86,9.86,0,0,0,12,8.3l9.11-2.11Z" style="fill:#ffa8a7"></path><path d="M234.05,210.46c-6.82-1.67-12.6,0-18.44,1.84s-13.79,4.42-13.79,4.42a16.81,16.81,0,0,0,2.63,15.92l23.3-3.54Z" style="fill:#455a64"></path><path d="M274.5,282.07s-26.35,9.64-47.75-2.37c0,0,1.3-15.34,1.68-24.28s-2.69-26.19-3.16-30.82.16-12.63,5.61-13.85c10.11-2.14,29.12,0,29.12,0l11.35,12.54C276.13,247.79,275.31,273.52,274.5,282.07Z" style="fill:#455a64"></path><path d="M274.5,282.07s-26.35,9.64-47.75-2.37c0,0,1.3-15.34,1.68-24.28s-2.69-26.19-3.16-30.82.16-12.63,5.61-13.85c10.11-2.14,29.12,0,29.12,0l11.35,12.54C276.13,247.79,275.31,273.52,274.5,282.07Z" style="fill:#fff;opacity:0.30000000000000004"></path><path d="M207.7,276.37v0h0v0s0,0,0-.06,0,0,0-.05a.14.14,0,0,1,0-.06l0,0a.14.14,0,0,0,0-.06l0-.05h0l-10.48-20-1.49,1.66,10.48,20a1,1,0,0,1,.13.36h0a.23.23,0,0,1-.05.22h0l1.49-1.66a.2.2,0,0,0,0-.08.15.15,0,0,0,0-.07A.06.06,0,0,0,207.7,276.37Z" style="fill:#fff;opacity:0.15"></path><path d="M197.06,255.88a.21.21,0,0,1,0-.06l0-.06,0-.06,0-.07,0-.06-.05-.07-.05-.06,0-.06,0-.06,0,0,0-.05,0,0,0,0,0,0,0,0,0,0,0,0,0,0,0,0,0,0,0,0,0,0,0,0,0,0,0,0,0,0,0,0,0,0,0,0,0,0,0,0,0,0,0,0,0,0,0,0-.15-.14,0,0,0,0,0,0,0,0,0,0,0,0,0,0,0,0,0,0h0l0,0,0,0,0,0h0l0,0,0,0,0,0,0,0,0,0,0,0,0,0,0,0,0,0,0,0,0,0,0,0-.05,0-.06,0,0,0-.07,0-.06-.05-.07,0,0,0-12.23-7.06,0,0-.07,0-.07,0-.07,0-.07,0-.06,0-.07,0-.06,0-.07,0-.06,0h-.23a.27.27,0,0,0-.19.07L180,248c.06-.08.19-.1.36-.06h0a2.4,2.4,0,0,1,.68.29l12.23,7.06a6.51,6.51,0,0,1,.69.47h0c.23.18.46.38.67.58h0a6.65,6.65,0,0,1,.58.63h0a3.62,3.62,0,0,1,.4.59l1.49-1.66Z" style="fill:#fff;opacity:0.2"></path><path d="M197.76,276.27c-4.13-2.59-7.22-7.66-6.59-12.5,0,0,7.72,4.06,11.19,1.89l-1.78-3.4A21.15,21.15,0,0,1,214,267a99.54,99.54,0,0,0,21.47-6.22,43.22,43.22,0,0,1,6.2-2.22,11.15,11.15,0,0,1,6.5.18,6.5,6.5,0,0,1,4.21,4.69,7,7,0,0,1-2.41,6.11,17,17,0,0,1-6,3.23C235.11,276,201.9,278.87,197.76,276.27Z" style="fill:#ffa8a7"></path><path d="M222.56,190.73a10.7,10.7,0,0,1-3-14.13,5.84,5.84,0,0,1-2.82-2.66,3.12,3.12,0,0,1,4.05-4.15,4.38,4.38,0,0,1,1.74-5.11,4.12,4.12,0,0,1,5.13.95,2.8,2.8,0,0,1,1.91-2.74,5.66,5.66,0,0,1,3.56.22c1.14.39,2.22,1,3.38,1.33a26.61,26.61,0,0,0,6.06.77,12.14,12.14,0,0,1,5.85,1.56c1.72,1.11,3.23,3.7,2.31,5.94a3.35,3.35,0,0,1,2.43-1.29,3.3,3.3,0,0,1,2.5,1.06c-1.28.79-2.51,1.64-3.79,2.43,1.28-.58,3.2.33,3.89,1.55a7.75,7.75,0,0,1,.69,4.11,55.08,55.08,0,0,1-2.82,15.73c-.87,2.62-2.13,5.4-4.62,6.61Z" style="fill:#37474f"></path><path d="M236.08,203.36l.56,6.27a2.43,2.43,0,0,1-.35,1.38,3.54,3.54,0,0,0,.55,4.1,4.76,4.76,0,0,0,2.8.94,13.51,13.51,0,0,0,10.36-4,3,3,0,0,0,.82-2.15l-.41-15.9Z" style="fill:#ffa8a7"></path><path d="M249.15,194.83l-13.07,8.53.5,5.56c3-.72,6.09-1.59,8.5-3.55A11.66,11.66,0,0,0,249.15,194.83Z" style="opacity:0.30000000000000004"></path><path d="M221.83,177.81a56,56,0,0,0,1.41,21.75A17.25,17.25,0,0,0,225,204a7.21,7.21,0,0,0,3.53,3.13c1.84.69,3.89.36,5.83,0,3.55-.63,7.19-1.28,10.27-3.15s5.53-5.24,5.23-8.83a6.15,6.15,0,0,0,5.89.33,6.28,6.28,0,0,0,3.24-5c.13-2-1-4.25-3-4.64a4.32,4.32,0,0,0-3.44,1,13.07,13.07,0,0,0-2.39,2.79,4.2,4.2,0,0,1-1.2,1.28,1.44,1.44,0,0,1-1.64,0,2.15,2.15,0,0,1-.47-1.79l.21-4.55a1.83,1.83,0,0,0-1-1.7,4.44,4.44,0,0,1-2-2.34,9.44,9.44,0,0,1-.58-2.74,1.12,1.12,0,0,0-1.53-1C235.75,179.32,228.13,179.43,221.83,177.81Z" style="fill:#ffa8a7"></path><polygon points="231.84 188.85 227.75 195.74 232.63 196.65 231.84 188.85" style="fill:#f28f8f"></polygon><path d="M237.33,199l-3.7,1.8a2.42,2.42,0,0,0,2.81.8A2.19,2.19,0,0,0,237.33,199Z" style="fill:#f28f8f"></path><path d="M237.33,199l-3.7,1.8a2.42,2.42,0,0,0,2.81.8A2.19,2.19,0,0,0,237.33,199Z" style="opacity:0.30000000000000004"></path><path d="M235.15,201.75a2.25,2.25,0,0,0,1.29-.12,2,2,0,0,0,1-1.95,2.33,2.33,0,0,0-1.46.5A2.36,2.36,0,0,0,235.15,201.75Z" style="fill:#f28f8f"></path><path d="M238.91,189.12a1.4,1.4,0,0,1-1.25,1.54,1.42,1.42,0,0,1-1.54-1.26,1.4,1.4,0,0,1,2.79-.28Z" style="fill:#263238"></path><path d="M227.16,189.85a1.4,1.4,0,0,1-2.79.28,1.39,1.39,0,0,1,1.25-1.53A1.4,1.4,0,0,1,227.16,189.85Z" style="fill:#263238"></path><path d="M225.24,184.44l-2.88,2.44a2,2,0,0,1,.39-2.24A2.35,2.35,0,0,1,225.24,184.44Z" style="fill:#263238"></path><path d="M237.16,183.06l3.31,1.83a2,2,0,0,0-.82-2.13A2.39,2.39,0,0,0,237.16,183.06Z" style="fill:#263238"></path><path d="M246.38,244.39l-6.31,16.27,7,10.85c10.14-4.61,8.06-3.3,15.07-20.25Z" style="fill:#ffa8a7"></path><path d="M260,210.75c-7.61,9-10.46,24.45-14.39,34.39,4.4,8.32,16.65,7.51,16.65,7.51C273.47,229.3,278.21,211.7,260,210.75Z" style="fill:#455a64"></path><path d="M207.7,276.37v0h0v0s0,0,0-.06,0,0,0-.05a.14.14,0,0,1,0-.06l0,0a.14.14,0,0,0,0-.06l0-.05h0l-10.48-20,0-.06a.21.21,0,0,1,0-.06l0-.06,0-.06,0-.07,0-.06-.05-.07-.05-.06,0-.06,0-.06,0,0,0-.05,0,0,0,0,0,0,0,0,0,0,0,0,0,0,0,0,0,0,0,0,0,0,0,0,0,0,0,0,0,0,0,0,0,0,0,0,0,0,0,0,0,0,0,0,0,0,0,0-.15-.14,0,0,0,0,0,0,0,0,0,0,0,0,0,0,0,0,0,0h0l0,0,0,0,0,0h0l0,0,0,0,0,0,0,0,0,0,0,0,0,0,0,0,0,0,0,0,0,0,0,0-.05,0-.06,0,0,0-.07,0-.06-.05-.07,0,0,0-12.23-7.06,0,0-.07,0-.07,0-.07,0-.07,0-.06,0-.07,0-.06,0-.07,0-.06,0h-.23a.27.27,0,0,0-.19.07L180,248h0c-.12.09-.13.29,0,.62l10.49,20a6.77,6.77,0,0,0,2.33,2.27L205.12,278c.63.37,1,.38,1.07.12,0,0,0,.09,0,.11h0l1.49-1.66a.2.2,0,0,0,0-.08.15.15,0,0,0,0-.07A.06.06,0,0,0,207.7,276.37ZM180.27,248s0,0,.08,0h0l.05,0Zm14,8.11c.11.1.23.19.33.29h0C194.52,256.28,194.4,256.19,194.29,256.09Zm.76.76.15.16h0Zm11.16,21.2a1,1,0,0,0-.13-.4,1,1,0,0,1,.13.36h0S206.21,278,206.21,278.05Z" style="fill:#455a64"></path></g></svg>