<svg xmlns="http://www.w3.org/2000/svg" viewBox="0 0 500 500"><g id="freepik--background-complete--inject-14"><path d="M82.59,327.06l-13.12.27-6.66.12c-2.23,0-4.47,0-6.7.05h-.44v-.44l-.06-11.19v-.51h.5l13.24.06c4.42,0,8.83.11,13.24.16h.28v.27c0,1.89-.09,3.78-.13,5.65Zm0,0-.14-5.66c0-1.86-.11-3.7-.13-5.53l.27.27c-4.41.05-8.82.16-13.24.16l-13.24.07.5-.5,0,11.19-.45-.45c2.18,0,4.36,0,6.55.05l6.58.12Z" style="fill:#ebebeb"></path><path d="M67.82,341.17l-13.12.27-6.66.12c-2.23,0-4.47,0-6.7.05H40.9v-.44L40.84,330v-.51h.5l13.24.06c4.41,0,8.83.11,13.24.16h.28V330c0,1.89-.08,3.78-.13,5.65Zm0,0-.14-5.66c-.05-1.86-.11-3.7-.13-5.53l.27.27c-4.41.05-8.83.16-13.24.16l-13.24.06.5-.49-.05,11.19-.45-.45c2.18,0,4.36,0,6.55,0l6.58.12Z" style="fill:#ebebeb"></path><path d="M406.5,202.49l-13.12.28-6.66.11c-2.23.05-4.47,0-6.7.06h-.44v-.45l-.06-11.19v-.5h.5l13.24.07c4.42,0,8.83.11,13.24.16h.28v.27c0,1.9-.09,3.79-.14,5.66Zm0,0-.14-5.65c0-1.86-.11-3.71-.13-5.54l.27.28c-4.41,0-8.82.15-13.24.16L380,191.8l.5-.5,0,11.19-.45-.44c2.18,0,4.36,0,6.55,0l6.58.11Z" style="fill:#ebebeb"></path><path d="M391.73,216.6l-13.12.28L372,217c-2.23,0-4.47,0-6.7.06h-.44v-.45l-.05-11.19v-.5h.5l13.24.07c4.41,0,8.83.11,13.24.16H392v.27c0,1.9-.08,3.79-.13,5.66Zm0,0-.14-5.65c0-1.86-.11-3.71-.13-5.54l.27.28c-4.41.05-8.83.15-13.24.16l-13.24.06.5-.5-.05,11.19-.45-.44c2.18,0,4.36,0,6.55.05l6.58.11Z" style="fill:#ebebeb"></path><path d="M377,202.49l-13.13.28-6.66.11c-2.22.05-4.46,0-6.69.06h-.45v-.45l0-11.19v-.5h.51l13.24.07c4.41,0,8.82.11,13.24.16h.27v.27c0,1.9-.09,3.79-.13,5.66Zm0,0-.14-5.65c-.05-1.86-.12-3.71-.14-5.54l.28.28c-4.42,0-8.83.15-13.24.16l-13.24.06.5-.5L351,202.49l-.44-.44c2.18,0,4.35,0,6.54,0l6.58.11Z" style="fill:#ebebeb"></path><path d="M458.66,341.17l-13.13.27-6.66.12c-2.22,0-4.46,0-6.69.05h-.45v-.44L431.68,330v-.51h.5l13.24.06c4.41,0,8.83.11,13.24.16h.27V330c0,1.89-.08,3.78-.13,5.65Zm0,0-.14-5.66c0-1.86-.12-3.7-.13-5.53l.27.27c-4.41.05-8.83.16-13.24.16l-13.24.06.5-.49-.06,11.19-.44-.45c2.18,0,4.36,0,6.54,0l6.58.12Z" style="fill:#ebebeb"></path><path d="M443.89,67.49l-13.13.27-6.66.12c-2.22,0-4.46,0-6.69.05H417v-.45l0-11.19v-.51h.51l13.24.06c4.41,0,8.82.11,13.24.16h.27v.27c0,1.9-.09,3.78-.13,5.65Zm0,0-.14-5.66c-.05-1.86-.12-3.7-.14-5.53l.28.27c-4.42,0-8.83.16-13.24.16l-13.24.07.5-.5-.06,11.19-.44-.45c2.18,0,4.35,0,6.54.06l6.58.11Z" style="fill:#ebebeb"></path><path d="M458.66,81.6l-13.13.27-6.66.12c-2.22,0-4.46,0-6.69.05h-.45V81.6l-.05-11.19V69.9h.5l13.24.06c4.41,0,8.83.11,13.24.16h.27v.27c0,1.89-.08,3.78-.13,5.65Zm0,0-.14-5.66c0-1.86-.12-3.7-.13-5.53l.27.27c-4.41,0-8.83.16-13.24.16l-13.24.07.5-.5-.06,11.19-.44-.45c2.18,0,4.36,0,6.54.06l6.58.11Z" style="fill:#ebebeb"></path><path d="M82.59,67.49l-13.12.27-6.66.12c-2.23,0-4.47,0-6.7.05h-.44v-.45L55.61,56.3v-.51h.5l13.24.06c4.42,0,8.83.11,13.24.16h.28v.27c0,1.9-.09,3.78-.13,5.65Zm0,0-.14-5.66c0-1.86-.11-3.7-.13-5.53l.27.27c-4.41,0-8.82.16-13.24.16l-13.24.07.5-.5,0,11.19L56.11,67c2.18,0,4.36,0,6.55.06l6.58.11Z" style="fill:#ebebeb"></path><rect x="43.56" y="45.82" width="144.07" height="190.35" style="fill:#ebebeb"></rect><rect x="50.32" y="53.44" width="62.39" height="84.67" style="fill:#fff"></rect><rect x="118.47" y="53.44" width="62.39" height="84.67" style="fill:#fff"></rect><rect x="50.32" y="143.88" width="62.39" height="84.67" style="fill:#fff"></rect><rect x="118.47" y="143.88" width="62.39" height="84.67" style="fill:#fff"></rect><polygon points="139.49 45.82 187.63 45.82 187.63 318.14 159.76 318.14 179.21 179.57 139.49 45.82" style="fill:#dbdbdb"></polygon><polygon points="147.83 53.18 155.91 84.72 163.84 116.3 179.69 179.45 179.72 179.54 179.71 179.63 172.2 245.67 168.45 278.7 164.53 311.7 167.96 278.64 171.54 245.6 178.72 179.52 178.73 179.69 163.2 116.46 155.44 84.84 147.83 53.18" style="fill:#ebebeb"></polygon><polygon points="184.76 58.77 185 86.08 185.14 113.39 185.26 168.01 185.15 222.63 185 249.94 184.76 277.25 184.52 249.94 184.38 222.63 184.26 168.01 184.38 113.39 184.52 86.08 184.76 58.77" style="fill:#ebebeb"></polygon><polygon points="175.77 63.88 177.7 92.89 179.54 121.9 183.07 179.92 183.08 179.94 183.08 179.97 181.3 244.63 180.31 276.97 179.21 309.3 179.8 276.95 180.5 244.61 182.1 179.94 182.1 179.98 178.81 121.94 177.24 92.92 175.77 63.88" style="fill:#ebebeb"></polygon><path d="M169.5,305.11l2.65-31.38,2.75-31.37c1.92-20.91,3.76-41.82,5.76-62.72v.13L172,130.93l-4.27-24.44L163.52,82l4.61,24.38,4.54,24.38,8.94,48.8v.13c-1.88,20.91-3.92,41.8-5.87,62.71l-3.07,31.34Z" style="fill:#ebebeb"></path><rect x="176.75" y="177.29" width="10.87" height="6.35" style="fill:#dbdbdb"></rect><polygon points="91.81 45.82 43.67 45.82 43.67 318.14 71.53 318.14 52.08 179.57 91.81 45.82" style="fill:#dbdbdb"></polygon><polygon points="83.47 53.18 75.86 84.84 68.09 116.46 52.56 179.69 52.58 179.52 59.75 245.6 63.34 278.64 66.76 311.7 62.84 278.7 59.09 245.67 51.59 179.63 51.58 179.54 51.6 179.45 67.45 116.3 75.39 84.72 83.47 53.18" style="fill:#ebebeb"></polygon><polygon points="46.53 58.77 46.78 86.08 46.92 113.39 47.03 168.01 46.92 222.63 46.78 249.94 46.53 277.25 46.29 249.94 46.15 222.63 46.03 168.01 46.15 113.39 46.29 86.08 46.53 58.77" style="fill:#ebebeb"></polygon><polygon points="55.53 63.88 54.05 92.92 52.48 121.94 49.2 179.98 49.2 179.94 50.79 244.61 51.49 276.95 52.08 309.3 50.98 276.97 50 244.63 48.22 179.97 48.22 179.94 48.22 179.92 51.75 121.9 53.59 92.89 55.53 63.88" style="fill:#ebebeb"></polygon><path d="M61.79,305.11l-3.17-31.33-3.06-31.34c-2-20.91-4-41.8-5.88-62.71v-.13l8.93-48.8,4.54-24.38L67.77,82l-4.19,24.45-4.27,24.44-8.69,48.84v-.13c2,20.9,3.84,41.81,5.76,62.72l2.76,31.37Z" style="fill:#ebebeb"></path><rect x="43.67" y="177.29" width="10.87" height="6.35" transform="translate(98.21 360.92) rotate(180)" style="fill:#dbdbdb"></rect><rect x="348.37" y="54.96" width="56.46" height="68.49" style="fill:#ebebeb"></rect><rect x="354.82" y="61.22" width="43.56" height="55.99" style="fill:#fff"></rect><rect x="354.82" y="61.22" width="1.7" height="55.99" style="fill:#dbdbdb"></rect><rect x="404.83" y="54.96" width="1.7" height="68.49" style="fill:#dbdbdb"></rect><rect x="369.42" y="68.93" width="10.27" height="30.6" style="fill:#dbdbdb"></rect><path d="M392.82,105.26H364.44v-16h28.38Zm-27.38-1h26.38v-14H365.44Z" style="fill:#ebebeb"></path><rect x="400.35" y="140.07" width="56.46" height="68.49" style="fill:#ebebeb"></rect><rect x="406.8" y="146.32" width="43.56" height="55.99" style="fill:#fff"></rect><rect x="406.8" y="146.32" width="1.7" height="55.99" style="fill:#dbdbdb"></rect><rect x="456.81" y="140.07" width="1.7" height="68.49" style="fill:#dbdbdb"></rect><rect x="424.36" y="160.79" width="8.8" height="22.25" style="fill:#ebebeb"></rect><path d="M442.92,190.15H418.29V173.81h24.63Zm-23.63-1h22.63V174.81H419.29Z" style="fill:#dbdbdb"></path><polygon points="268.27 391.38 454.63 391.38 458.51 314.9 264.39 314.9 268.27 391.38" style="fill:#ebebeb"></polygon><path d="M445.8,349.91H367.89l-1.46-26.55h81.08Zm-77-.94h76.14l1.58-24.67H367.42Z" style="fill:#dbdbdb"></path><path d="M444.36,380.45H370.94l-1.19-24h76.11Zm-72.53-.94h71.65l1.38-22.08H370.73Z" style="fill:#dbdbdb"></path><path d="M414.35,339.51h-13.1l-.82-6.4h14.74Zm-12.27-.94h11.44l.58-4.52H401.5Z" style="fill:#dbdbdb"></path><path d="M414.35,371.67h-13.1l-.82-6.4h14.74Zm-12.27-.94h11.44l.58-4.52H401.5Z" style="fill:#dbdbdb"></path><path d="M354.15,349.91H276.24l-1.46-26.55h81.08Zm-77-.94h76.14l1.59-24.67H275.77Z" style="fill:#dbdbdb"></path><path d="M352.72,380.45H279.29l-1.19-24h76.11Zm-72.53-.94h71.64l1.38-22.08H279.09Z" style="fill:#dbdbdb"></path><path d="M322.7,339.51H309.61l-.83-6.4h14.74Zm-12.27-.94h11.44l.59-4.52H309.85Z" style="fill:#dbdbdb"></path><path d="M322.7,371.67H309.61l-.83-6.4h14.74Zm-12.27-.94h11.44l.59-4.52H309.85Z" style="fill:#dbdbdb"></path><polygon points="284.98 391.38 283.81 399.71 281.46 416.44 276.85 416.44 276.85 391.38 284.98 391.38" style="fill:#ebebeb"></polygon><polygon points="284.98 391.38 283.81 399.71 276.85 399.71 276.85 391.38 284.98 391.38" style="fill:#dbdbdb"></polygon><polygon points="437.92 391.38 439.09 399.71 441.44 416.44 446.05 416.44 446.05 391.38 437.92 391.38" style="fill:#ebebeb"></polygon><polygon points="437.92 391.38 439.09 399.71 446.05 399.71 446.05 391.38 437.92 391.38" style="fill:#dbdbdb"></polygon></g><g id="freepik--Shadow--inject-14"><ellipse cx="283.88" cy="451.11" rx="167.14" ry="15.08" style="fill:#ebebeb"></ellipse></g><g id="freepik--Floor--inject-14"><polygon points="41.49 416.44 93.62 416.2 145.75 416.11 250 415.95 354.25 416.11 406.38 416.2 458.51 416.44 406.38 416.69 354.25 416.78 250 416.94 145.75 416.78 93.62 416.69 41.49 416.44" style="fill:#263238"></polygon></g><g id="freepik--Plant--inject-14"><path d="M97.08,334.19C104,320,116,312.76,129.6,316.78s15.69,23,5.55,27.74-20.28-9.18-25.64-12S97.08,334.19,97.08,334.19Z" style="fill:#90CAF9"></path><path d="M90.41,371.88c0-1.71.1-3.41.16-5.12l.36-10.22c.24-6.23.91-12.35,3.49-18.1a28.08,28.08,0,0,1,10.92-12.59,23,23,0,0,1,5.75-2.48,13.39,13.39,0,0,1,6.7-3.68,27.41,27.41,0,0,1,9.56-.24c.11,0,.11.19,0,.18a23,23,0,0,0-9,.64,19.21,19.21,0,0,0-3.64,1.42,17.1,17.1,0,0,0-2.11,1.34,19.37,19.37,0,0,1,8.3.08,17,17,0,0,1,2.88.95,8.76,8.76,0,0,1,2.27-.2,13.9,13.9,0,0,1,2.94.42,22.43,22.43,0,0,1,5.59,2.44c.1.06,0,.21-.1.16a20.41,20.41,0,0,0-5.45-2.06,18.9,18.9,0,0,0-2.8-.41c-.52,0-1,0-1.56,0a18,18,0,0,1,8.78,8.76c0,.1-.11.19-.16.08a16.51,16.51,0,0,0-11.19-9c-.3-.08-.61-.12-.91-.18a13.33,13.33,0,0,1,.15,1.37c.09.69.2,1.38.34,2.06a34.6,34.6,0,0,0,1.11,4.14,32,32,0,0,0,1.64,4,19.17,19.17,0,0,0,2.3,3.88.09.09,0,1,1-.14.1c-.82-1.27-1.77-2.45-2.51-3.78a27.81,27.81,0,0,1-1.85-3.95A28.59,28.59,0,0,1,121,327.7c-.15-.76-.27-1.53-.35-2.3a5.08,5.08,0,0,1-.09-1.4,18.09,18.09,0,0,0-4.82-.1c.6,3.37,1.25,6.89,3.14,9.83.06.09-.1.19-.16.08a39,39,0,0,1-2.33-4.83,18.51,18.51,0,0,1-1.17-5,22.31,22.31,0,0,0-8,2.68A26.35,26.35,0,0,0,96.6,338.24a43.92,43.92,0,0,0-3.94,16.65c-.45,7.24-.54,14.52-1.26,21.73-.05.47-.8.63-.89.1A26.07,26.07,0,0,1,90.41,371.88Z" style="fill:#263238"></path><path d="M106.33,324.71a7.92,7.92,0,0,1,1.56-1.44c.57-.47,1.15-.92,1.75-1.33a13.22,13.22,0,0,1,3.92-1.82c.11,0,.15.15,0,.18a10.41,10.41,0,0,0-3.86,1.9c-.58.42-1.13.87-1.67,1.34a9.51,9.51,0,0,1-1.58,1.34A.12.12,0,0,1,106.33,324.71Z" style="fill:#263238"></path><path d="M128.31,329.85a40.18,40.18,0,0,1,3.16,4.18,25.36,25.36,0,0,1,2.35,4.65c0,.05-.06.08-.08,0a55.34,55.34,0,0,0-5.56-8.75C128.11,329.88,128.24,329.76,128.31,329.85Z" style="fill:#263238"></path><path d="M113.49,328.44a10.46,10.46,0,0,0,.78,2.57,17.12,17.12,0,0,0,1.31,2.27s0,.09-.08.05a9.21,9.21,0,0,1-2.18-4.84C113.3,328.37,113.47,328.33,113.49,328.44Z" style="fill:#263238"></path><path d="M91.37,334.54s-9.75-12.26-28.57-7.91c-17.9,4.13-26.15,36.93-8.07,40.86s14.89-26.43,21.48-31.59C81,332.12,88,332.94,91.37,334.54Z" style="fill:#90CAF9"></path><path d="M48.26,344.54a36.2,36.2,0,0,1,3.88-3,16.62,16.62,0,0,1,4.13-2.06,24.94,24.94,0,0,1,2.45-3.16,24.2,24.2,0,0,1,5.69-4.53l-.56,0c-1,0-2,0-3,0a16.73,16.73,0,0,0-5.81,1.45c-.11.05-.18-.12-.08-.16a26.37,26.37,0,0,1,5.8-1.75,16.14,16.14,0,0,1,2.94-.25c.53,0,1.06,0,1.59.09l.3,0a25.34,25.34,0,0,1,5.42-2l-.52-.14a23.86,23.86,0,0,0-2.79-.46,22.1,22.1,0,0,0-5.63.08c-.12,0-.15-.16,0-.17a35,35,0,0,1,5.7-.23,23.85,23.85,0,0,1,4.73.61,26,26,0,0,1,3.44-.39c6.56-.28,13.71,2.18,17.75,7.57s4.84,12.6,5.55,19.12a145.46,145.46,0,0,1,.72,27.36c0,.53-.8.44-.82-.08-.24-7.73-.51-15.47-1.25-23.18-.35-3.57-.73-7.15-1.32-10.69a31.41,31.41,0,0,0-2.6-8.8A16.1,16.1,0,0,0,87.59,333a21.45,21.45,0,0,0-9-2.77,24.19,24.19,0,0,0-8.44.79,5.49,5.49,0,0,1,0,1.67,9.06,9.06,0,0,1-.41,2.06,10.12,10.12,0,0,1-.79,1.82c-.34.65-.78,1.22-1.17,1.84-.06.1-.22,0-.15-.1a8.56,8.56,0,0,0,1.46-3.71,15.48,15.48,0,0,0,.23-1.92c0-.48,0-1,0-1.46a25,25,0,0,0-8.22,4.34c-.45.37-.89.76-1.33,1.16a8.71,8.71,0,0,1,1.6,2,18.49,18.49,0,0,1,1.67,3,25.09,25.09,0,0,1,1.74,6.54c0,.12-.16.15-.17,0A19.25,19.25,0,0,0,62.51,342a25.48,25.48,0,0,0-1.67-2.75c-.32-.46-.65-.91-1-1.34-.19-.23-.39-.47-.56-.72A25.75,25.75,0,0,0,54,344.73h0a13,13,0,0,1,2.21,3.17A29.34,29.34,0,0,1,58,351.68a62,62,0,0,1,2.25,7.68c0,.11-.16.14-.18,0a32.24,32.24,0,0,0-2.67-7.56c-.56-1.18-1.15-2.34-1.78-3.49a32.58,32.58,0,0,1-1.77-3.29,24.2,24.2,0,0,0-2.15,8.72c0,.11-.18.1-.17,0a30.31,30.31,0,0,1,4.22-13.38c-1.15.49-2.31,1-3.41,1.56a19.47,19.47,0,0,0-3.92,2.75C48.29,344.76,48.17,344.62,48.26,344.54Z" style="fill:#263238"></path><path d="M62.06,345.24c.57,1.86,1.28,3.66,1.79,5.54a21.15,21.15,0,0,1,.83,5.53,0,0,0,0,1-.09,0,53.69,53.69,0,0,0-2.7-11A.09.09,0,1,1,62.06,345.24Z" style="fill:#263238"></path><path d="M50.14,340.63a10.39,10.39,0,0,1,2.49-1.78,17.4,17.4,0,0,1,2.89-1c.1,0,.14.15,0,.17a11.42,11.42,0,0,0-2.78,1.15,21.67,21.67,0,0,0-2.56,1.57A.06.06,0,0,1,50.14,340.63Z" style="fill:#263238"></path><path d="M82.1,318.17s-1.8-22-18.17-29.16c-13.67-6-21.5,9.4-11.83,18.81C59.92,315.42,72.45,312,82.1,318.17Z" style="fill:#90CAF9"></path><path d="M55.13,293.28a70.06,70.06,0,0,1,7.28,3.44,56,56,0,0,1,5.65,3.76c-.27-.56-.51-1.14-.78-1.69-.43-.85-.89-1.68-1.39-2.49a23.38,23.38,0,0,0-3.61-4.56c-.08-.08,0-.21.13-.12a36.22,36.22,0,0,1,3.8,4.41,28.06,28.06,0,0,1,1.55,2.5,9.81,9.81,0,0,1,1.1,2.53l.18.13a53.88,53.88,0,0,1,7.82,7.65c0-.21-.09-.43-.14-.63-.31-1.07-.64-2.14-1-3.2a27.47,27.47,0,0,0-3-6.42c-.07-.1.09-.19.15-.09a51.47,51.47,0,0,1,3.43,6.27A24.48,24.48,0,0,1,77.48,308a13.47,13.47,0,0,1,.53,2.21c.72.91,1.42,1.82,2.08,2.76,7,10,10.55,22.11,11.4,34.21a106.17,106.17,0,0,1,.18,10.85,67.29,67.29,0,0,1-1,10.89c0,.23-.4.16-.39-.07.08-3.18.41-6.34.47-9.53a95.32,95.32,0,0,0-.31-9.56A88.62,88.62,0,0,0,86.91,331a66.85,66.85,0,0,0-8.32-17.61c-.69-.14-1.38-.32-2-.5-.82-.21-1.64-.42-2.45-.65a23.81,23.81,0,0,1-4.57-1.67c-.1-.05,0-.21.1-.15a14.78,14.78,0,0,0,4.63,1.59c1.28.26,2.61.43,3.89.72a61.47,61.47,0,0,0-3.8-5,28.4,28.4,0,0,1-9.32-.7,38.64,38.64,0,0,1-4.77-1.48c-1.64-.63-3.19-1.45-4.81-2.12a.09.09,0,1,1,.08-.17A27,27,0,0,0,65,306.39a58.11,58.11,0,0,0,8.83.73c-1.16-1.33-2.36-2.63-3.65-3.85-4.3-4.1-9.4-7.86-15.07-9.82C55,293.41,55,293.23,55.13,293.28Z" style="fill:#263238"></path><path d="M68.45,293.35a24.5,24.5,0,0,1,2,2.93,16.31,16.31,0,0,1,1.44,3.42s-.05.06-.07,0c-.54-1.08-1-2.2-1.56-3.27a15.93,15.93,0,0,0-2-3C68.24,293.38,68.38,293.25,68.45,293.35Z" style="fill:#263238"></path><path d="M53.23,300.68a17.57,17.57,0,0,0,3.35,1.4A30.74,30.74,0,0,0,60,303c.06,0,0,.11,0,.1a16.32,16.32,0,0,1-3.54-.77,30.86,30.86,0,0,1-3.32-1.49C53,300.78,53.12,300.62,53.23,300.68Z" style="fill:#263238"></path><path d="M94.83,314.21c.1,1,2.47-8,16.32-15.94,12.57-7.21,27.57-26,15.25-37.82C116.45,250.88,90.24,271.73,94.83,314.21Z" style="fill:#90CAF9"></path><path d="M85.3,365.5a244.76,244.76,0,0,1,2.2-27.84,125.27,125.27,0,0,1,5.84-24.91q1.56-4.37,3.49-8.59a20.13,20.13,0,0,1,.06-3.3c.06-1.41.19-2.81.32-4.22s.27-2.81.44-4.21.46-2.8.52-4.2a.09.09,0,1,1,.18,0,30.29,30.29,0,0,0-.5,4.46c-.1,1.35-.18,2.71-.22,4.07s0,2.73,0,4.09c0,.49,0,1,0,1.54,1.31-2.75,2.7-5.46,4.21-8.1-.94-5.74.28-11.73,1.45-17.35,0-.11.2-.06.18.06a49.11,49.11,0,0,0-.92,8.89c0,2.36.06,4.71.07,7.07.33-.56.66-1.13,1-1.69q2.7-4.4,5.75-8.59a13.37,13.37,0,0,1,.14-4.09,31.34,31.34,0,0,1,1-4.47q.66-2.19,1.53-4.32c.6-1.45,1.4-2.83,2-4.29,0-.12.23,0,.16.07a21.48,21.48,0,0,0-1.73,4.34,40.16,40.16,0,0,0-1.13,4.31c-.3,1.46-.54,2.92-.74,4.39-.14,1-.22,2-.39,3a106.48,106.48,0,0,1,9.69-11.28.09.09,0,0,1,.13.13,127.94,127.94,0,0,0-14.08,19.14c-.15.26-.29.52-.44.77.76-.47,1.64-.85,2.35-1.25,1.35-.75,2.69-1.49,4-2.22s2.62-1.42,3.92-2.14c.67-.38,1.34-.76,2-1.11a16.64,16.64,0,0,0,2.34-1.3c.11-.08.22.08.11.14-1.33.73-2.51,1.82-3.8,2.64s-2.61,1.62-4,2.37c-2.46,1.37-5.13,2.36-7.55,3.78-1.69,2.94-3.23,6-4.66,9,1.47-.94,3-1.83,4.49-2.69,1-.55,2-1.09,3-1.61a14.92,14.92,0,0,0,2.79-1.69c.09-.07.21.05.13.13a26.11,26.11,0,0,1-5.32,3.7c-1.78,1-3.58,2-5.43,2.95q-2.22,4.86-4,9.91c-5.83,16.5-8,34-9,51.4-.31,5.19-.47,10.37-.53,15.56s.21,10.37.2,15.55c0,.15-.25.19-.27,0-.63-4.6-.74-9.27-.94-13.9S85.2,370.21,85.3,365.5Z" style="fill:#263238"></path><path d="M110.45,290.81a66.35,66.35,0,0,0,7.35-3.8,77.07,77.07,0,0,0,7-4.44s.08,0,0,.07a59.74,59.74,0,0,1-6.71,4.69,69.52,69.52,0,0,1-7.59,3.64C110.43,291,110.34,290.85,110.45,290.81Z" style="fill:#263238"></path><path d="M106.44,272.16c.2-.8.46-1.59.73-2.38a.08.08,0,0,1,0-.09l.54-1.33.07-.16c0-.09.07-.17.1-.25s.06,0,0,0-.09.31-.14.46a2.33,2.33,0,0,1-.07.25,64.3,64.3,0,0,0-2.05,9.4c0,.1-.17.1-.17,0A31.17,31.17,0,0,1,106.44,272.16Z" style="fill:#263238"></path><polygon points="70.67 368.84 71.66 380.55 74.69 416.25 107.08 416.25 110.1 380.55 111.08 368.84 70.67 368.84" style="fill:#455a64"></polygon><polygon points="70.67 368.84 71.66 380.55 110.1 380.55 111.08 368.84 70.67 368.84" style="fill:#263238"></polygon><rect x="67.5" y="364.14" width="46.77" height="11.23" transform="translate(181.76 739.52) rotate(180)" style="fill:#455a64"></rect></g><g id="freepik--Device--inject-14"><path d="M313.16,59.89H144.1A17.26,17.26,0,0,0,127,77.31v348a17.27,17.27,0,0,0,17.1,17.42H313.16a17.29,17.29,0,0,0,17.12-17.42v-348A17.28,17.28,0,0,0,313.16,59.89Zm6.42,354.67c0,9.16-6.86,16.57-15.32,16.57H153c-8.48,0-15.34-7.41-15.34-16.57V90.5c0-18.66,6.86-19.57,15.34-19.57h30.3c1.76,0,3.2,2,3.2,4.48v1.07c0,5.81,3.18,5.83,7.08,5.83h70.06c3.94,0,7.1,0,7.1-5.83V75.41c0-2.48,1.42-4.48,3.21-4.48h30.29c8.46,0,15.32,2.48,15.32,19.57Z" style="fill:#263238"></path><path d="M319.58,90.5V414.56c0,9.16-6.86,16.57-15.32,16.57H153c-8.48,0-15.34-7.41-15.34-16.57V90.5c0-18.66,6.86-19.57,15.34-19.57h30.3c1.76,0,3.2,2,3.2,4.48v1.07c0,5.81,3.18,5.83,7.08,5.83h70.06c3.94,0,7.1,0,7.1-5.83V75.41c0-2.48,1.42-4.48,3.21-4.48h30.29C312.72,70.93,319.58,73.41,319.58,90.5Z" style="fill:#fff"></path><g id="freepik--u5Zjqx--inject-14"><path d="M178.09,78.21l-.3.29-.16.17a4,4,0,0,0-5.65,0l-.15-.17a4,4,0,0,1-.29-.29h0l0,0c.12-.11.24-.22.37-.32a4.06,4.06,0,0,1,.86-.55,4.18,4.18,0,0,1,1.13-.38c.19,0,.38-.05.57-.08H175l.39,0a4.64,4.64,0,0,1,1,.25,4.58,4.58,0,0,1,.71.33,5.06,5.06,0,0,1,.67.47l.31.28Z" style="fill:#c7c7c7"></path><path d="M172.91,79.59c-.15-.16-.3-.31-.46-.46a3.32,3.32,0,0,1,4.71,0l-.46.46a2.68,2.68,0,0,0-3.79,0Z" style="fill:#c7c7c7"></path><path d="M176.24,80.05l-.46.46a1.31,1.31,0,0,0-1-.4,1.35,1.35,0,0,0-1,.4l-.46-.46A2,2,0,0,1,176.24,80.05Z" style="fill:#c7c7c7"></path><path d="M175.22,80.92a.41.41,0,0,1-.41.42.42.42,0,1,1,0-.83A.41.41,0,0,1,175.22,80.92Z" style="fill:#c7c7c7"></path></g><path d="M149.54,79.09a1.21,1.21,0,1,1,1.21,1.21A1.21,1.21,0,0,1,149.54,79.09Z" style="fill:#c7c7c7"></path><path d="M153.34,79.09a1.21,1.21,0,1,1,1.21,1.21A1.21,1.21,0,0,1,153.34,79.09Z" style="fill:#c7c7c7"></path><path d="M157.14,79.09a1.21,1.21,0,1,1,1.2,1.21A1.2,1.2,0,0,1,157.14,79.09Z" style="fill:#c7c7c7"></path><path d="M160.93,79.09a1.21,1.21,0,1,1,1.21,1.21A1.21,1.21,0,0,1,160.93,79.09Z" style="fill:#c7c7c7"></path><path d="M164.73,79.09a1.21,1.21,0,1,1,1.21,1.21A1.21,1.21,0,0,1,164.73,79.09Z" style="fill:#c7c7c7"></path><path d="M305.94,81.72h-9.82V77.18h9.82Zm-9.32-.5h8.82V77.68h-8.82Z" style="fill:#c7c7c7"></path><rect x="296.94" y="77.95" width="6.33" height="3" style="fill:#c7c7c7"></rect><rect x="305.94" y="78.24" width="0.87" height="2.43" style="fill:#c7c7c7"></rect><path d="M238.19,75.05H219.08a1.18,1.18,0,0,1-1.18-1.18h0a1.18,1.18,0,0,1,1.18-1.18h19.11a1.18,1.18,0,0,1,1.18,1.18h0A1.18,1.18,0,0,1,238.19,75.05Z" style="fill:#fff"></path><circle cx="228.64" cy="176.12" r="43.18" transform="translate(-57.57 213.26) rotate(-45)" style="fill:#90CAF9"></circle><path d="M228.64,223.23a47.11,47.11,0,1,1,47.11-47.11A47.17,47.17,0,0,1,228.64,223.23Zm0-93.72a46.61,46.61,0,1,0,46.61,46.61A46.67,46.67,0,0,0,228.64,129.51Z" style="fill:#90CAF9"></path><rect x="220.28" y="151.2" width="16.72" height="33.98" style="fill:#fff"></rect><path d="M228.67,201a1,1,0,0,1-1-1V188.14a1,1,0,0,1,2,0V200A1,1,0,0,1,228.67,201Z" style="fill:#fff"></path><path d="M241.34,188.14a1,1,0,0,1-1,1h-23.4a1,1,0,1,1,0-2h23.4A1,1,0,0,1,241.34,188.14Z" style="fill:#fff"></path><path d="M216.93,173.46a1,1,0,0,1,1,1v13.67a1,1,0,1,1-2,0V174.47A1,1,0,0,1,216.93,173.46Z" style="fill:#fff"></path><path d="M240.33,173.46a1,1,0,0,1,1,1v13.67a1,1,0,1,1-2,0V174.47A1,1,0,0,1,240.33,173.46Z" style="fill:#fff"></path><path d="M235.14,201h-13a1,1,0,0,1,0-2h13a1,1,0,0,1,0,2Z" style="fill:#fff"></path><path d="M319.58,300.3v1.54c-10.14,0-22.84.25-25.5,1.22-17.71,6.48-17.4,20.4-23.72,20.4-4.88,0-14.31-20.85-22.73-20.85s-10.75,7.21-16.51,7.21-7.21-7.21-20.4-7.21-16.68,13.5-24.33,13.5-15.63-14.27-24.94-14.27H137.68V300.3h23.77c9.31,0,17.29-14.26,24.94-14.26s11.14,13.5,24.33,13.5,14.63-7.21,20.4-7.21,8.09,7.21,16.51,7.21,17.85-20.85,22.73-20.85c6.32,0,6,13.92,23.72,20.4C296.74,300.06,309.44,300.3,319.58,300.3Z" style="fill:#90CAF9;opacity:0.4"></path><path d="M319.58,300.31v1.54c-13.19,0-16.3,25.27-27.26,25.27-7.89,0-15.89-21.26-26.09-21.26-9.73,0-10.34,9.2-16.32,9.2-6.15,0-9.37-13.1-18.79-13.1-11.16,0-13.89,29.65-23.53,29.65s-13.89-27.6-23-27.6-9.72,4.47-17.5,4.47-14.83-6.63-22.81-6.63h-6.65v-1.54h6.65c8,0,15-6.62,22.81-6.62s8.44,4.46,17.5,4.46,13.31-27.6,23-27.6S220,300.2,231.12,300.2c9.42,0,12.64-13.1,18.79-13.1,6,0,6.59,9.2,16.32,9.2,10.2,0,18.2-21.25,26.09-21.25C303.28,275.05,306.39,300.31,319.58,300.31Z" style="fill:#90CAF9;opacity:0.6000000000000001"></path><path d="M137.68,300.49v-.85h0a15.18,15.18,0,0,0,6.36-1.42,21.39,21.39,0,0,0,5.36-3.75c1.61-1.47,3.09-3.09,4.64-4.65a25.25,25.25,0,0,1,5.08-4.19,10.94,10.94,0,0,1,6.35-1.61,13.64,13.64,0,0,1,6.13,2.42c3.69,2.42,6.93,5.42,10.63,7.73a20.1,20.1,0,0,0,5.9,2.62,14.26,14.26,0,0,0,6.4,0,13.5,13.5,0,0,0,5.74-2.82c.85-.67,1.68-1.39,2.6-2a7.55,7.55,0,0,1,3.1-1.37,4.7,4.7,0,0,1,.84-.1,4.12,4.12,0,0,1,.86,0l.85.08.83.21a10.76,10.76,0,0,1,3,1.53c1.83,1.28,3.43,2.78,5.21,4a15.23,15.23,0,0,0,5.82,2.65,11.52,11.52,0,0,0,6.3-.35,14.65,14.65,0,0,0,5.25-3.62c1.52-1.54,2.86-3.27,4.24-5a30.59,30.59,0,0,1,4.56-4.83A9.42,9.42,0,0,1,250,283a10,10,0,0,1,6.19,2.55,32.89,32.89,0,0,1,4.48,4.9,34.58,34.58,0,0,0,4.34,4.83,8.37,8.37,0,0,0,5.7,2.26,14.38,14.38,0,0,0,6.18-1.45,51.54,51.54,0,0,0,5.55-3.42,15.05,15.05,0,0,1,6.24-2.47,13.21,13.21,0,0,1,6.64,1.1c4.14,1.74,7.63,4.51,11.54,6.34a14.37,14.37,0,0,0,6.11,1.56h7.08V301H313a14.37,14.37,0,0,0-6.11,1.56c-3.91,1.83-7.4,4.6-11.54,6.34a13.11,13.11,0,0,1-6.64,1.09,14.92,14.92,0,0,1-6.24-2.47,50.6,50.6,0,0,0-5.56-3.41,14.33,14.33,0,0,0-6.17-1.45,8.4,8.4,0,0,0-5.7,2.26,34.58,34.58,0,0,0-4.34,4.83,34,34,0,0,1-4.48,4.91,10.08,10.08,0,0,1-6.19,2.54,9.42,9.42,0,0,1-6.3-2.24,30.59,30.59,0,0,1-4.56-4.83c-1.38-1.71-2.72-3.44-4.24-5a14.65,14.65,0,0,0-5.25-3.62,11.52,11.52,0,0,0-6.3-.35,15.23,15.23,0,0,0-5.82,2.65c-1.78,1.24-3.38,2.74-5.21,4a10.52,10.52,0,0,1-3,1.54l-.82.21-.86.08a4,4,0,0,1-.85,0,4.71,4.71,0,0,1-.85-.1,7.55,7.55,0,0,1-3.1-1.37c-.91-.64-1.74-1.36-2.6-2a13.52,13.52,0,0,0-5.73-2.82,14.45,14.45,0,0,0-6.41,0,20.64,20.64,0,0,0-5.9,2.62c-3.7,2.32-6.94,5.32-10.63,7.73a13.53,13.53,0,0,1-6.13,2.42,10.93,10.93,0,0,1-6.35-1.6,25.64,25.64,0,0,1-5.08-4.2c-1.55-1.55-3-3.17-4.64-4.65A21.91,21.91,0,0,0,144,301.9,15.32,15.32,0,0,0,137.68,300.49Zm0,0a15.32,15.32,0,0,1,6.39,1.36,21.76,21.76,0,0,1,5.41,3.71c1.64,1.47,3.13,3.08,4.69,4.61a25.63,25.63,0,0,0,5.07,4.12,10.65,10.65,0,0,0,6.21,1.5,13.18,13.18,0,0,0,6-2.41c3.63-2.42,6.84-5.46,10.57-7.84a20.54,20.54,0,0,1,6-2.71,15,15,0,0,1,6.64,0,13.17,13.17,0,0,1,3.16,1.1,16.35,16.35,0,0,1,2.8,1.81c1.74,1.33,3.35,2.93,5.46,3.27a4.16,4.16,0,0,0,.79.09,3.39,3.39,0,0,0,.78,0l.78-.07.76-.21a10,10,0,0,0,2.83-1.46c1.77-1.23,3.37-2.76,5.19-4,3.53-2.63,8.38-3.95,12.71-2.42a15.31,15.31,0,0,1,5.51,3.77c1.56,1.58,2.92,3.32,4.3,5a30.22,30.22,0,0,0,4.46,4.71,8.66,8.66,0,0,0,5.82,2.06,9.25,9.25,0,0,0,5.72-2.38,32.82,32.82,0,0,0,4.36-4.81,35,35,0,0,1,4.43-4.95,11,11,0,0,1,2.87-1.83,8.46,8.46,0,0,1,3.37-.65,15.21,15.21,0,0,1,6.53,1.51,53.27,53.27,0,0,1,5.66,3.44,14.09,14.09,0,0,0,5.88,2.33,12.37,12.37,0,0,0,6.18-1c4-1.68,7.45-4.45,11.48-6.36A15.27,15.27,0,0,1,313,300h6.58l-.5.5v-.85l.5.5H313a15.27,15.27,0,0,1-6.52-1.68c-4-1.91-7.51-4.68-11.48-6.36a12.15,12.15,0,0,0-6.18-1,14.07,14.07,0,0,0-5.88,2.32,50.8,50.8,0,0,1-5.66,3.45,15.21,15.21,0,0,1-6.53,1.51,8.5,8.5,0,0,1-3.37-.65,11,11,0,0,1-2.87-1.83,35,35,0,0,1-4.43-4.95,33.25,33.25,0,0,0-4.35-4.8A9.26,9.26,0,0,0,250,283.7a8.66,8.66,0,0,0-5.82,2.06,30.22,30.22,0,0,0-4.46,4.71c-1.38,1.69-2.74,3.43-4.3,5a15.31,15.31,0,0,1-5.51,3.77c-4.33,1.53-9.18.21-12.71-2.42-1.82-1.27-3.42-2.8-5.19-4a10,10,0,0,0-2.83-1.46l-.76-.21-.78-.07a3.49,3.49,0,0,0-.79,0,5.18,5.18,0,0,0-.78.09c-2.11.34-3.73,1.94-5.46,3.27a14.15,14.15,0,0,1-6,2.91,14.88,14.88,0,0,1-6.64,0,20.6,20.6,0,0,1-6-2.71c-3.72-2.39-6.93-5.42-10.56-7.84a13.19,13.19,0,0,0-6-2.42,10.73,10.73,0,0,0-6.21,1.51,25.28,25.28,0,0,0-5.07,4.12c-1.55,1.53-3,3.14-4.69,4.61a21.58,21.58,0,0,1-5.41,3.71,15.33,15.33,0,0,1-6.39,1.37h0Z" style="fill:#90CAF9"></path><path d="M169.5,244.47a.52.52,0,0,1,.71-.07,3.19,3.19,0,0,0,1.86.75,2.12,2.12,0,0,0,1.21-.36.88.88,0,0,0,.42-.7.54.54,0,0,0-.09-.31,1,1,0,0,0-.29-.29A3.84,3.84,0,0,0,172,243h0a4.69,4.69,0,0,1-1.25-.38,2,2,0,0,1-.9-.75,1.49,1.49,0,0,1-.23-.8,1.8,1.8,0,0,1,.78-1.42,2.86,2.86,0,0,1,1.68-.51,3.77,3.77,0,0,1,2.11.78.5.5,0,0,1,.14.69.49.49,0,0,1-.69.14,2.83,2.83,0,0,0-1.56-.62,1.88,1.88,0,0,0-1.09.33.78.78,0,0,0-.37.61.43.43,0,0,0,.07.27,1.06,1.06,0,0,0,.26.26,3.3,3.3,0,0,0,1.21.42h0a6,6,0,0,1,1.34.41,2.21,2.21,0,0,1,1,.81,1.52,1.52,0,0,1,.24.82,1.85,1.85,0,0,1-.84,1.5,3,3,0,0,1-1.79.56,4.26,4.26,0,0,1-2.49-1A.53.53,0,0,1,169.5,244.47Z" style="fill:#263238"></path><path d="M175.74,243.73a2.4,2.4,0,0,1,2.37-2.42,2.32,2.32,0,0,1,2.34,2.25v.05a.25.25,0,0,1,0,.08.46.46,0,0,1-.5.39h-3.09a1.31,1.31,0,0,0,.33.64,1.51,1.51,0,0,0,.93.44,1.6,1.6,0,0,0,1-.24.54.54,0,0,1,.73,0,.44.44,0,0,1,0,.63,2.5,2.5,0,0,1-1.74.64A2.41,2.41,0,0,1,175.74,243.73Zm1.06-.47h2.75a1.59,1.59,0,0,0-1.44-1A1.36,1.36,0,0,0,176.8,243.26Z" style="fill:#263238"></path><path d="M183.79,241.84a.54.54,0,0,1-.54.53H183v2.71a.54.54,0,0,1,0,1.08,1.08,1.08,0,0,1-1.07-1.08v-2.71h-.28a.54.54,0,0,1-.54-.53.53.53,0,0,1,.54-.53h.28V239.9a.54.54,0,0,1,.54-.54.53.53,0,0,1,.53.54v1.41h.25A.54.54,0,0,1,183.79,241.84Z" style="fill:#263238"></path><path d="M192.51,243.74v1.9a.53.53,0,0,1-.52.52.52.52,0,0,1-.5-.42,2.24,2.24,0,0,1-2.94-.29,2.48,2.48,0,0,1-.66-1.71,2.45,2.45,0,0,1,.66-1.71,2.23,2.23,0,0,1,2.94-.3.51.51,0,0,1,.5-.42.52.52,0,0,1,.52.52Zm-1,0a1.43,1.43,0,0,0-.38-1,1.22,1.22,0,0,0-1.81,0,1.43,1.43,0,0,0-.37,1,1.46,1.46,0,0,0,.37,1,1.27,1.27,0,0,0,1.81,0A1.47,1.47,0,0,0,191.48,243.74Z" style="fill:#263238"></path><path d="M198.36,243.32v2.32a.52.52,0,0,1-.51.52.53.53,0,0,1-.51-.52v-2.32a1,1,0,0,0-1-1,1,1,0,0,0-1,1v2.32a.2.2,0,0,1,0,.1.54.54,0,0,1-.52.42.51.51,0,0,1-.51-.52v-3.82a.51.51,0,0,1,.51-.51.52.52,0,0,1,.48.3,1.89,1.89,0,0,1,1-.3A2,2,0,0,1,198.36,243.32Z" style="fill:#263238"></path><path d="M207.28,243.74v1.9a.51.51,0,0,1-1,.1,2.24,2.24,0,0,1-2.94-.29,2.48,2.48,0,0,1-.66-1.71,2.45,2.45,0,0,1,.66-1.71,2.23,2.23,0,0,1,2.94-.3.51.51,0,0,1,1,.1Zm-1,0a1.43,1.43,0,0,0-.38-1,1.22,1.22,0,0,0-1.81,0,1.42,1.42,0,0,0-.36,1,1.46,1.46,0,0,0,.36,1,1.27,1.27,0,0,0,1.81,0A1.47,1.47,0,0,0,206.25,243.74Z" style="fill:#263238"></path><path d="M209.92,239.36a.54.54,0,0,1,.54.54v5.72a.54.54,0,0,1-1.08,0V239.9A.54.54,0,0,1,209.92,239.36Z" style="fill:#263238"></path><path d="M215.84,243.74v1.9a.53.53,0,0,1-.52.52.52.52,0,0,1-.5-.42,2.24,2.24,0,0,1-2.94-.29,2.48,2.48,0,0,1-.66-1.71,2.45,2.45,0,0,1,.66-1.71,2.23,2.23,0,0,1,2.94-.3.51.51,0,0,1,.5-.42.52.52,0,0,1,.52.52Zm-1,0a1.43,1.43,0,0,0-.38-1,1.22,1.22,0,0,0-1.81,0,1.43,1.43,0,0,0-.37,1,1.46,1.46,0,0,0,.37,1,1.27,1.27,0,0,0,1.81,0A1.47,1.47,0,0,0,214.81,243.74Z" style="fill:#263238"></path><path d="M220.73,241.82a.52.52,0,0,1-.52.51.92.92,0,0,0-.58.19,1.64,1.64,0,0,0-.45.46,3.11,3.11,0,0,0-.39.82v1.84a.54.54,0,0,1-.54.52.52.52,0,0,1-.51-.52v-3.82a.5.5,0,0,1,.51-.5.52.52,0,0,1,.54.5v.07a1,1,0,0,1,.2-.2,2.15,2.15,0,0,1,1.22-.37A.51.51,0,0,1,220.73,241.82Z" style="fill:#263238"></path><path d="M226.06,243.31v2.33a.53.53,0,0,1-.52.52.54.54,0,0,1-.52-.52v-2.33a1,1,0,0,0-1-1,1,1,0,0,0-1,1v2.3s0,.05,0,.07v0s0,0,0,.06v0a.58.58,0,0,1-.49.31h-.09a.52.52,0,0,1-.42-.51v-2.3h0v-1.5a.51.51,0,0,1,.51-.52.49.49,0,0,1,.47.29,2,2,0,0,1,2.56.38,2,2,0,0,1,1.52-.67,2,2,0,0,1,2,2v2.3a.52.52,0,0,1-.51.52.54.54,0,0,1-.53-.52v-2.3a1,1,0,0,0-2,0Z" style="fill:#263238"></path><path d="M235.73,241v.13H236a.54.54,0,0,1,.54.53.54.54,0,0,1-.54.54h-.29v3.42a.53.53,0,0,1-.53.54.54.54,0,0,1-.54-.54v-3.42h-.25a.54.54,0,0,1-.54-.54.53.53,0,0,1,.54-.53h.25V241a2,2,0,0,1,.19-1,1.15,1.15,0,0,1,.7-.6,1.89,1.89,0,0,1,.58-.08.54.54,0,0,1,.53.54.54.54,0,0,1-.53.54.65.65,0,0,0-.25,0,.1.1,0,0,0-.06,0A.88.88,0,0,0,235.73,241Z" style="fill:#263238"></path><path d="M238,245.45a2.42,2.42,0,0,1-.67-1.71A2.5,2.5,0,0,1,238,242a2.29,2.29,0,0,1,1.67-.73,2.16,2.16,0,0,1,1.62.73,2.42,2.42,0,0,1,.68,1.7,2.34,2.34,0,0,1-.68,1.71,2.14,2.14,0,0,1-1.62.74A2.26,2.26,0,0,1,238,245.45Zm.39-1.71a1.58,1.58,0,0,0,.35,1,1.32,1.32,0,0,0,.93.36,1.27,1.27,0,0,0,.89-.36,1.45,1.45,0,0,0,.38-1,1.42,1.42,0,0,0-.38-1,1.38,1.38,0,0,0-.89-.37,1.42,1.42,0,0,0-.93.37A1.55,1.55,0,0,0,238.37,243.74Z" style="fill:#263238"></path><path d="M246.4,241.82a.52.52,0,0,1-.52.51.9.9,0,0,0-.58.19,1.64,1.64,0,0,0-.45.46,2.82,2.82,0,0,0-.39.82v1.84a.54.54,0,0,1-.54.52.52.52,0,0,1-.51-.52v-3.82a.5.5,0,0,1,.51-.5.52.52,0,0,1,.54.5v.07a1,1,0,0,1,.2-.2,2.15,2.15,0,0,1,1.22-.37A.51.51,0,0,1,246.4,241.82Z" style="fill:#263238"></path><path d="M254.66,240.1l-2.43,5.74a.52.52,0,0,1-.5.32.54.54,0,0,1-.2,0,.55.55,0,0,1-.29-.7l2.1-5h-2.51a.54.54,0,0,1-.53-.54.54.54,0,0,1,.53-.54h3.43a.84.84,0,0,1,.2.08l0,0a.08.08,0,0,1,0,0l0,0,0,0a.11.11,0,0,1,0,.05.08.08,0,0,0,0,0v.05a.06.06,0,0,1,0,0,.81.81,0,0,1,0,.22S254.66,240.07,254.66,240.1Z" style="fill:#263238"></path><path d="M256.94,240.92a.73.73,0,0,1,.72.73.72.72,0,1,1-.72-.73Zm0,3.86a.73.73,0,0,1,.72.73.72.72,0,1,1-.72-.73Z" style="fill:#263238"></path><path d="M262,242a2.37,2.37,0,0,1,.71,1.7,2.42,2.42,0,0,1-2.42,2.42,2.37,2.37,0,0,1-1.69-.71.54.54,0,0,1,0-.78.55.55,0,0,1,.77,0,1.25,1.25,0,0,0,.92.38,1.29,1.29,0,0,0,.93-.38,1.26,1.26,0,0,0,.39-.93,1.23,1.23,0,0,0-.39-.92,1.3,1.3,0,0,0-.92-.39.51.51,0,0,1-.4-.17h0a.54.54,0,0,1,0-.78l1-1H259.3a.54.54,0,0,1-.54-.55.55.55,0,0,1,.54-.55h2.87a.55.55,0,0,1,.55.55.56.56,0,0,1-.07.26.71.71,0,0,1-.1.14l-1.22,1.26A2.13,2.13,0,0,1,262,242Z" style="fill:#263238"></path><path d="M264.25,242.76a4.22,4.22,0,0,1,.66-2.32,2,2,0,0,1,3.6,0,4.47,4.47,0,0,1,0,4.64,2,2,0,0,1-3.6,0A4.25,4.25,0,0,1,264.25,242.76Zm3.84,0a3.25,3.25,0,0,0-.47-1.73,1.14,1.14,0,0,0-.9-.59,1.18,1.18,0,0,0-.92.59,3.16,3.16,0,0,0-.47,1.73,3.13,3.13,0,0,0,.47,1.72,1.17,1.17,0,0,0,.92.6,1.13,1.13,0,0,0,.9-.6A3.21,3.21,0,0,0,268.09,242.76Z" style="fill:#263238"></path><path d="M278.43,243.74v1.9a.52.52,0,0,1-.51.52.54.54,0,0,1-.51-.42,2.21,2.21,0,0,1-1.29.42,2.25,2.25,0,0,1-1.65-.71,2.53,2.53,0,0,1-.66-1.71,2.49,2.49,0,0,1,.66-1.71,2.26,2.26,0,0,1,1.65-.72,2.21,2.21,0,0,1,1.29.42.53.53,0,0,1,.51-.42.51.51,0,0,1,.51.52Zm-1,0a1.43,1.43,0,0,0-.37-1,1.24,1.24,0,0,0-.91-.4,1.17,1.17,0,0,0-.9.4,1.43,1.43,0,0,0-.37,1,1.46,1.46,0,0,0,.37,1,1.22,1.22,0,0,0,.9.38,1.3,1.3,0,0,0,.91-.38A1.46,1.46,0,0,0,277.4,243.74Z" style="fill:#263238"></path><path d="M284.39,243.31v2.33a.52.52,0,0,1-.51.52.55.55,0,0,1-.53-.52v-2.33a1,1,0,0,0-2,0v2.3s0,.05,0,.07v0s0,0,0,.06v0a.56.56,0,0,1-.48.31h-.1a.53.53,0,0,1-.42-.51v-2.3h0v-1.5a.52.52,0,0,1,.52-.52.47.47,0,0,1,.46.29,2.05,2.05,0,0,1,2.57.38,2,2,0,0,1,1.52-.67,2,2,0,0,1,2,2v2.3a.52.52,0,0,1-.52.52.53.53,0,0,1-.52-.52v-2.3a1,1,0,0,0-1-1A1,1,0,0,0,284.39,243.31Z" style="fill:#263238"></path><rect x="197.62" y="357.59" width="62.04" height="19.51" style="fill:#90CAF9"></rect><path d="M212.74,367.11a3,3,0,0,1,2.95-2.89,3,3,0,0,1,1.86.63.48.48,0,0,1,.08.64.48.48,0,0,1-.65.09,2,2,0,0,0-1.29-.44,2.12,2.12,0,0,0-1.45.58,2,2,0,0,0-.58,1.39,2,2,0,0,0,.58,1.4,2.12,2.12,0,0,0,1.45.58,2,2,0,0,0,1.29-.44.5.5,0,0,1,.65.09.48.48,0,0,1-.08.64,3,3,0,0,1-1.86.63A2.94,2.94,0,0,1,212.74,367.11Z" style="fill:#fff"></path><path d="M221.94,368.68h-2l-.39,1.05a.44.44,0,0,1-.42.28l-.15,0a.46.46,0,0,1-.27-.58l1.78-4.74a.44.44,0,0,1,.43-.28.43.43,0,0,1,.42.28l1.78,4.74a.46.46,0,0,1-.26.58l-.16,0a.44.44,0,0,1-.41-.28Zm-.33-.88-.65-1.73-.65,1.73Z" style="fill:#fff"></path><path d="M225.15,369.57a.44.44,0,0,1-.44.44.44.44,0,0,1-.44-.44V364.9h0a.43.43,0,0,1,.18-.37.44.44,0,0,1,.61.09l2.6,3.6V364.9a.44.44,0,0,1,.43-.44.44.44,0,0,1,.44.44v4.67a.44.44,0,0,1-.44.44.42.42,0,0,1-.33-.16l0-.05-2.57-3.57Z" style="fill:#fff"></path><path d="M230.21,367.11a3,3,0,0,1,4.81-2.26.46.46,0,0,1,.08.64.47.47,0,0,1-.64.09,2,2,0,0,0-1.29-.44,2.1,2.1,0,0,0-1.45.58,2,2,0,0,0-.59,1.39,2,2,0,0,0,.59,1.4,2.1,2.1,0,0,0,1.45.58,2,2,0,0,0,1.29-.44.48.48,0,0,1,.64.09.46.46,0,0,1-.08.64,3,3,0,0,1-4.81-2.27Z" style="fill:#fff"></path><path d="M236.66,369.57v-4.75a.44.44,0,0,1,.45-.44h2.63a.44.44,0,0,1,.44.44.45.45,0,0,1-.44.45h-2.18v1.48h1.87a.45.45,0,0,1,0,.89h-1.87v1.48h2.18a.45.45,0,0,1,0,.89h-2.63A.45.45,0,0,1,236.66,369.57Z" style="fill:#fff"></path><path d="M241.43,369.57v-4.75a.45.45,0,0,1,.9,0v4.3h2.18a.45.45,0,0,1,0,.89h-2.63A.45.45,0,0,1,241.43,369.57Z" style="fill:#fff"></path><path d="M216.75,255.86h-1.43a.16.16,0,0,1-.16-.17.16.16,0,0,1,.16-.16h3.19a.16.16,0,0,1,.16.16.17.17,0,0,1-.16.17h-1.43v4.25a.17.17,0,0,1-.17.16.16.16,0,0,1-.16-.16Z" style="fill:#c7c7c7"></path><path d="M221.71,257.11v3a.16.16,0,1,1-.32,0v-.5a1.54,1.54,0,0,1-1.25.66,1.66,1.66,0,0,1,0-3.32,1.56,1.56,0,0,1,1.25.65v-.49a.16.16,0,1,1,.32,0Zm-.32,1.5a1.25,1.25,0,1,0-1.25,1.33A1.3,1.3,0,0,0,221.39,258.61Z" style="fill:#c7c7c7"></path><path d="M223.13,258.66v-1.55a.16.16,0,0,1,.16-.16.17.17,0,0,1,.17.16v.48a1.57,1.57,0,0,1,1.26-.64,1.65,1.65,0,0,1,0,3.3,1.55,1.55,0,0,1-1.26-.65v1.9a.17.17,0,0,1-.17.16.16.16,0,0,1-.16-.16Zm.33-.06a1.29,1.29,0,1,0,0-.06Z" style="fill:#c7c7c7"></path><path d="M230.8,257.11a.19.19,0,0,1-.17.17h-.42v2.41a.26.26,0,0,0,.24.25.19.19,0,0,1,.17.17.18.18,0,0,1-.17.16.56.56,0,0,1-.58-.58v-2.41h-.42c-.16,0-.16-.09-.16-.17s0-.16.16-.16h.42v-1.23a.17.17,0,0,1,.16-.16.18.18,0,0,1,.18.16V257h.42A.18.18,0,0,1,230.8,257.11Z" style="fill:#c7c7c7"></path><path d="M233.66,257a1.66,1.66,0,1,1-1.57,1.66A1.62,1.62,0,0,1,233.66,257Zm0,3a1.34,1.34,0,1,0-1.24-1.33A1.3,1.3,0,0,0,233.66,259.94Z" style="fill:#c7c7c7"></path><path d="M238.28,258.62a1.64,1.64,0,0,1,1.61-1.67,1.62,1.62,0,0,1,1.6,1.54h0v0a.15.15,0,0,1-.16.15h-2.72a1.29,1.29,0,0,0,1.28,1.27,1.28,1.28,0,0,0,1.08-.6.15.15,0,0,1,.21,0,.18.18,0,0,1,.06.23,1.6,1.6,0,0,1-1.35.75A1.64,1.64,0,0,1,238.28,258.62Zm.35-.27h2.51a1.27,1.27,0,0,0-2.51,0Z" style="fill:#c7c7c7"></path><path d="M245.31,259.63a1.61,1.61,0,0,1-1.28.64,1.66,1.66,0,1,1,1.28-2.67v-1.91a.16.16,0,0,1,.16-.16.17.17,0,0,1,.17.16v4.42a.17.17,0,0,1-.17.16.16.16,0,0,1-.16-.16Zm0-1v-.11a1.33,1.33,0,1,0,0,.11Z" style="fill:#c7c7c7"></path><path d="M247.13,256a.16.16,0,0,1,.16-.16.16.16,0,0,1,.17.16v.15a.17.17,0,1,1-.33,0Zm0,1.08a.16.16,0,0,1,.16-.16.16.16,0,0,1,.17.16v3a.16.16,0,0,1-.17.16.16.16,0,0,1-.16-.16Z" style="fill:#c7c7c7"></path><path d="M250.19,257.11a.18.18,0,0,1-.17.17h-.42v2.41a.26.26,0,0,0,.24.25.19.19,0,0,1,.17.17.18.18,0,0,1-.17.16.56.56,0,0,1-.58-.58v-2.41h-.41c-.17,0-.17-.09-.17-.17s0-.16.17-.16h.41v-1.23a.17.17,0,0,1,.16-.16.18.18,0,0,1,.18.16V257H250A.17.17,0,0,1,250.19,257.11Z" style="fill:#c7c7c7"></path><path d="M211.48,258a2.66,2.66,0,1,1-2.66-2.66A2.67,2.67,0,0,1,211.48,258Z" style="fill:#c7c7c7"></path><path d="M209.44,259.07a.28.28,0,0,1,0,.4.29.29,0,0,1-.4,0l-1.24-1.26s0,0,0,0h0a0,0,0,0,0,0,0v0a0,0,0,0,1,0,0V258h0s0,0,0,0h0l0,0h0l0,0,1.24-1.26a.3.3,0,0,1,.4,0,.28.28,0,0,1,0,.4L208.39,258Z" style="fill:#fff"></path></g><g id="freepik--Lines--inject-14"><path d="M392.49,112.29a8,8,0,0,1,1.55,3.22,8.75,8.75,0,0,1,.11,3.64,8.89,8.89,0,0,1-1.38,3.38,9.61,9.61,0,0,1-1.13,1.4,13.35,13.35,0,0,1-1.37,1.14c.31-.51.68-1,1-1.45a14.66,14.66,0,0,0,.85-1.49,11.15,11.15,0,0,0,1.06-3.15A13,13,0,0,0,392.49,112.29Z" style="fill:#263238"></path><path d="M396.27,111.17a10.89,10.89,0,0,1,1.86,4.11,11.21,11.21,0,0,1,.11,4.58,11.41,11.41,0,0,1-1.71,4.26,12.14,12.14,0,0,1-1.4,1.79c-.53.53-1.11,1-1.68,1.49.41-.63.91-1.18,1.3-1.8a18.9,18.9,0,0,0,1.11-1.88l.48-1,.37-1a6.29,6.29,0,0,0,.31-1,6.47,6.47,0,0,0,.23-1,13.29,13.29,0,0,0,.11-4.27A17.49,17.49,0,0,0,396.27,111.17Z" style="fill:#263238"></path><path d="M401.11,109.89a13.92,13.92,0,0,1,2.24,5.17,14.49,14.49,0,0,1-2,11,15.3,15.3,0,0,1-1.72,2.26c-.65.68-1.36,1.31-2.07,1.92.55-.77,1.18-1.45,1.69-2.22l.75-1.16a8.72,8.72,0,0,0,.68-1.19l.61-1.21.49-1.27a9.59,9.59,0,0,0,.39-1.29,8.68,8.68,0,0,0,.3-1.32,16.3,16.3,0,0,0,.1-5.4A20,20,0,0,0,401.11,109.89Z" style="fill:#263238"></path></g><g id="freepik--Character--inject-14"><path d="M353.93,344.79l-33.37,27c-6.41,5.12-11.93,9.72-14.57,12.37,0,0,0,0,0,0-1,1-1.57,1.71-1.6,2.06,0,0,0,0,0,.07C304.57,389.24,344,441.61,346,443s6-4.2,6.13-7.46-6.05-30.06-6.05-30.06l33.08-27.26Z" style="fill:#eb9481"></path><path d="M327.4,366.23l-6.84,5.53c-6.41,5.12-11.93,9.72-14.57,12.37,0,0,0,0,0,0a11.36,11.36,0,0,0-1.6,2.06s0,0,0,.07C304.57,389.24,344,441.61,346,443s6-4.2,6.13-7.46-6.05-30.06-6.05-30.06l7-5.52Z" style="fill:#ebebeb"></path><path d="M346,443c-2-1.37-41.42-53.74-41.65-56.68-.11-1.12,7.19-7.31,16.22-14.54l.28-.22L346.66,405l-.59.42s6.13,26.8,6,30.06S348,444.35,346,443Z" style="fill:#90CAF9"></path><path d="M347.57,440.86c-6.42-9-33.2-44.65-40.24-53.05-.06-.07-.11,0-.06,0,6.18,9,33.25,44.49,40.16,53.12C347.58,441.15,347.71,441.05,347.57,440.86Z" style="fill:#263238"></path><path d="M348.11,408.38c-2-4-5.7-7.81-10.17-8.6-.18,0-.22.21-.1.3a61.35,61.35,0,0,1,9.82,8.61A.28.28,0,0,0,348.11,408.38Z" style="fill:#263238"></path><path d="M348.48,412c-2-4-5.69-7.81-10.17-8.6-.17,0-.21.22-.09.3a60.91,60.91,0,0,1,9.81,8.62A.28.28,0,0,0,348.48,412Z" style="fill:#263238"></path><path d="M348.86,415.67c-2-4-5.7-7.81-10.17-8.6-.18,0-.22.21-.1.3a60.92,60.92,0,0,1,9.82,8.61A.28.28,0,0,0,348.86,415.67Z" style="fill:#263238"></path><path d="M372,312.67c-2.36,11.67-50.77,58.23-50.77,58.23l33.75,39s68.73-68.61,65.15-94.39c-3.12-22.42-36.7-112.6-36.7-112.6H344.66S374.29,301.2,372,312.67Z" style="fill:#455a64"></path><path d="M358.78,400.59c-4.48-5.58-3.12-4-7.66-9.57-2.23-2.71-16.87-20.48-19.39-22.64-.05-.05-.14,0-.11.09,1.69,2.86,16.64,20.37,18.91,23,4.65,5.44,3.38,3.83,8.09,9.22A.11.11,0,0,0,358.78,400.59Z" style="fill:#263238"></path><path d="M376.77,307c-.55-2.92-1.18-5.82-1.8-8.72q-1.89-8.88-4-17.72-4.19-17.52-9.1-34.86c-3.31-11.59-6.8-23.16-10.81-34.52q-.75-2.11-1.53-4.2a.09.09,0,0,0-.17.05c3.49,11.38,7.07,22.73,10.34,34.18s6.26,22.87,9.09,34.39c1.43,5.78,2.75,11.58,4.05,17.39.63,2.86,1.25,5.71,1.86,8.58a60.4,60.4,0,0,1,1.62,8.83,13.42,13.42,0,0,1-2.27,8c-1.46,2.38-3.16,4.61-4.82,6.85-3.3,4.49-34.83,39.62-35.84,40.58-.08.07,0,.18.12.11,4.23-3.8,31-32.75,34.37-37.23,1.68-2.22,3.32-4.47,4.93-6.73a26.85,26.85,0,0,0,3.85-6.79A16,16,0,0,0,376.77,307Z" style="fill:#263238"></path><path d="M360.08,392.87s8.37,40.71,8.36,40.74c.12,8.2.36,15.39.83,19.1a.13.13,0,0,0,0,.06,5.81,5.81,0,0,0,.64,2.52s0,0,.05,0c2.46,1.62,68,2.64,70.31,1.9s.39-7.34-2.12-9.41-27.45-13.68-27.45-13.68l-8.77-40.69Z" style="fill:#eb9481"></path><path d="M440.28,457.24c-2.29.74-67.85-.28-70.31-1.9,0,0,0,0-.05,0a5.66,5.66,0,0,1-.64-2.52.2.2,0,0,1,0-.07c-.47-3.7-.71-10.88-.83-19.08L367,426.53h42.08l1.64,7.62s24.91,11.61,27.45,13.69S442.59,456.52,440.28,457.24Z" style="fill:#ebebeb"></path><path d="M440.28,457.25c-2.3.73-67.84-.28-70.31-1.91-1-.6-1.36-10.16-1.52-21.72v-.37l42.29.19,0,.71s24.92,11.61,27.45,13.69S442.58,456.52,440.28,457.25Z" style="fill:#90CAF9"></path><path d="M439.58,454.69c-11-.44-55.63-1.18-66.58-.78-.09,0-.09.06,0,.07,10.93.68,55.53,1.06,66.58.89C439.81,454.87,439.81,454.7,439.58,454.69Z" style="fill:#263238"></path><path d="M414.26,434.34c-4.33-.88-9.66-.3-13,2.75-.13.12,0,.3.18.26a60.74,60.74,0,0,1,12.83-2.46A.28.28,0,0,0,414.26,434.34Z" style="fill:#263238"></path><path d="M417.37,436.28c-4.33-.88-9.66-.3-13,2.75-.13.12,0,.3.18.26a60.74,60.74,0,0,1,12.83-2.46A.28.28,0,0,0,417.37,436.28Z" style="fill:#263238"></path><path d="M420.48,438.22c-4.33-.88-9.66-.3-13,2.75-.13.12,0,.3.18.26a60.74,60.74,0,0,1,12.83-2.46A.28.28,0,0,0,420.48,438.22Z" style="fill:#263238"></path><path d="M379.66,202.87a156.58,156.58,0,0,0-3.33,19.32c-.81,8.11-1.82,15.28-2.9,16.17s-7.34,4.94-9.41,6.2c0,0,19.09,57.85,24,77.14,7.14,27.95,24.24,111.83,24.24,111.83H366.71s-13.85-79.85-19.91-106.46c-5.19-22.82-25.08-91.28-25.08-91.28a39.71,39.71,0,0,1,1.61-32.91S379.66,202.84,379.66,202.87Z" style="fill:#455a64"></path><path d="M410.63,424.66c-7.16,0-5.11-.13-12.27-.08-3.5,0-26.53.17-29.79.77a.07.07,0,0,0,0,.14c3.28.49,26.3-.06,29.8-.15,7.16-.18,5.11-.21,12.26-.47A.11.11,0,0,0,410.63,424.66Z" style="fill:#263238"></path><path d="M376.66,236.08a87.44,87.44,0,0,0-12.57,8.41.16.16,0,0,0,.17.26c4.26-2.67,8.62-5.27,12.73-8.16A.3.3,0,0,0,376.66,236.08Z" style="fill:#263238"></path><path d="M373.18,204.6c0-.15-.32-.14-.29,0a153.52,153.52,0,0,1,1.6,15.36c.15,2.39.28,15.67-3.95,15.36-.7,0-1.16-.67-1.42-1.68a16.76,16.76,0,0,1-.08-4.07c0-2.79,0-5.58-.22-8.36a75.75,75.75,0,0,0-2.55-15.34.14.14,0,0,0-.27,0,142.51,142.51,0,0,1,2.06,21.41c0,3.46-.9,8.81,2.71,8.78s4.69-8.91,4.77-11.31A78.94,78.94,0,0,0,373.18,204.6Z" style="fill:#263238"></path><path d="M370.71,235.68a21.1,21.1,0,0,0-.5,2.84,6.19,6.19,0,0,0,0,2.27.16.16,0,0,0,.29,0,7.83,7.83,0,0,0,.62-2.3c.18-.88.38-1.76.53-2.65A.46.46,0,0,0,370.71,235.68Z" style="fill:#263238"></path><path d="M328.18,235.46c4.66-.48,7-.69,11.54-2.18a27.32,27.32,0,0,0,11.2-6.92,21.85,21.85,0,0,0,4.29-6c0-.09.18,0,.15.07a20.15,20.15,0,0,1-3,6,23.17,23.17,0,0,1-4.93,4.71A26,26,0,0,1,334.86,236a20.39,20.39,0,0,1-6.75-.11C327.86,235.84,328,235.48,328.18,235.46Z" style="fill:#263238"></path><path d="M361.41,399.56c-.12-1.05-.26-2.11-.41-3.16-.28-2-.62-4-.93-6-.63-4.05-1.32-8.09-2-12.13-1.43-8-3.08-16.06-4.82-24-1-4.52-2.13-9-3.33-13.44-.09-.31-.53-.16-.47.15.73,4.08,1.44,8.16,2.27,12.22s1.66,8.1,2.47,12.16c1.59,8,3.07,16.05,4.66,24.07.45,2.26.85,4.53,1.3,6.79.22,1.13.44,2.26.69,3.39s.59,2.22.77,3.35c0,.11.18.06.16-.05C361.56,401.75,361.54,400.65,361.41,399.56Z" style="fill:#263238"></path><path d="M392.83,339c-1.52-7.56-3.56-15-5.62-22.45-4.14-14.95-9-29.68-13.88-44.41l-4.2-12.73c-.7-2.12-4.14-13.56-4.56-14.65a.09.09,0,0,0-.18.06c1,3.89,2.34,9.58,3.47,13.43s2.35,7.6,3.54,11.4c2.32,7.46,4.69,14.9,7,22.38,4.47,14.79,8.9,29.56,12.53,44.58,1,4.21,2,8.41,2.95,12.64s1.72,8.46,2.6,12.69a.11.11,0,0,0,.21,0C395.88,354.22,394.35,346.61,392.83,339Z" style="fill:#263238"></path><path d="M364.51,378.57c-2.51-14.42-5.52-28.77-8.84-43S348.6,307,344.49,292.86s-8.65-28.12-13.53-42a177.43,177.43,0,0,1-6.19-20c-1.5-6.74-2.26-14-.69-20.82a35.22,35.22,0,0,1,1.55-5.06c.05-.12-.12-.21-.17-.1-5.47,12.77-1.92,26.73,2.25,39.32,2.29,6.9,4.73,13.74,7,20.65q3.48,10.64,6.65,21.36Q347.66,307.5,353,329t9.35,43.32c2.75,14.58,5.06,29.21,7.41,43.85.3,1.91.54,3.82.79,5.73,0,.11.19.11.17,0C368.92,407.42,367,393,364.51,378.57Z" style="fill:#263238"></path><path d="M363.3,143.93c9.92,17.71,30.95,40.13,38.95,39.66,3.81-.22,10.67.2,15.35-4.53,10.21-10.32,16.28-25.46,20-32.9,1.7-3.38-19.18-17.41-21.63-14.19-5.74,7.53-12,21.95-13.12,21.95-4.12,0-20.88-12.48-32.92-20.78C356.48,123.83,359.34,136.87,363.3,143.93Z" style="fill:#eb9481"></path><path d="M434.7,149.9c2.14-2.34,11-14,12.74-17.76s6-15,3.2-16.68-4.27,1.57-4.27,1.57,1-5-1.9-6.43-5.1,3.67-5.1,3.67.68-5.25-2.35-6.42-4.35,4.27-4.35,4.27.84-4.77-2.05-4.69c-3.49.1-4.06,9.07-6.29,13.11-.51.92-11.62,17.85-11.62,17.85Z" style="fill:#eb9481"></path><path d="M432.79,111.66c-.43,6.6-1.76,9.41-5.59,14.67-.07.11.06.24.15.14,4.22-4.82,6.4-8.1,5.76-14.81C433.08,111.33,432.81,111.34,432.79,111.66Z" style="fill:#263238"></path><path d="M439.39,113.75c-1,6.81-2.46,9.87-6.06,15.69-.05.08.08.17.14.09,4-5.4,6.11-8.73,6.26-15.68C439.73,113.54,439.44,113.44,439.39,113.75Z" style="fill:#263238"></path><path d="M446.18,117.32c-1.49,6.52-2.9,10-7.12,15.14a.12.12,0,0,0,.18.17c4.82-4.88,6.61-9.14,7.13-15.24C446.41,117,446.27,116.91,446.18,117.32Z" style="fill:#263238"></path><path d="M452.42,110.87l-17,27.8a2,2,0,0,1-2.32.82l-14.51-5.7a1.3,1.3,0,0,1-.62-2L435,104a2,2,0,0,1,2.32-.82l14.51,5.7A1.3,1.3,0,0,1,452.42,110.87Z" style="fill:#37474f"></path><path d="M450.75,108.49l-14.51-5.7a2,2,0,0,0-2.32.82l-17,27.8a1.3,1.3,0,0,0,.61,2l14.51,5.7a2,2,0,0,0,2.32-.82l17-27.8A1.3,1.3,0,0,0,450.75,108.49ZM434,137a1.83,1.83,0,0,1-2.12.81l-13-5.1a1.2,1.2,0,0,1-.51-1.84L434.19,105c.91-1.49,1.55-1.33,2.27-1l2.6,1c.16.06.18.26.06.46l-.05.09c-.29.46,0,.57.32.7l6,2.36c.33.14.61.24.89-.22l.05-.09a.46.46,0,0,1,.5-.25l2.6,1c.72.29,1.19.72.36,2.08Z" style="fill:#263238"></path><line x1="419.37" y1="129.27" x2="419.32" y2="129.25" style="fill:none"></line><path d="M449.81,111.15,434,137a1.83,1.83,0,0,1-2.12.81l-13-5.1a1.2,1.2,0,0,1-.51-1.84L434.19,105c.91-1.49,1.55-1.33,2.27-1l2.6,1c.16.06.18.26.06.46l-.05.09c-.29.46,0,.57.32.7l6,2.36c.33.14.61.24.89-.22l.05-.09a.46.46,0,0,1,.5-.25l2.6,1C450.17,109.36,450.64,109.79,449.81,111.15Z" style="fill:#fff"></path><g id="freepik--u5zjqx--inject-14"><path d="M438.26,105.4h-.06a.32.32,0,0,0-.19-.19.51.51,0,0,0-.3,0v0h.05l.1,0H438l0,0h0l.08.06a.1.1,0,0,1,0,0,.21.21,0,0,1,0,.06v0Z" style="fill:#c7c7c7"></path><path d="M437.75,105.34l0,0a.38.38,0,0,1,.21,0,.31.31,0,0,1,.2.17l-.07,0a.2.2,0,0,0-.12-.12A.23.23,0,0,0,437.75,105.34Z" style="fill:#c7c7c7"></path><path d="M438,105.49l-.06,0a.13.13,0,0,0-.06-.07h-.11v0A.17.17,0,0,1,438,105.49Z" style="fill:#c7c7c7"></path><path d="M437.88,105.52a0,0,0,1,1-.07,0,.06.06,0,0,1,.06,0S437.89,105.5,437.88,105.52Z" style="fill:#c7c7c7"></path></g><path d="M435.77,104.51a.14.14,0,0,1,.16-.06.09.09,0,0,1,0,.14.13.13,0,0,1-.16.06A.09.09,0,0,1,435.77,104.51Z" style="fill:#c7c7c7"></path><path d="M436.09,104.64a.16.16,0,0,1,.17-.06.1.1,0,0,1,0,.14.15.15,0,0,1-.16.06A.1.1,0,0,1,436.09,104.64Z" style="fill:#c7c7c7"></path><path d="M436.42,104.77a.13.13,0,0,1,.16-.06.09.09,0,0,1,.05.14.14.14,0,0,1-.17.05A.09.09,0,0,1,436.42,104.77Z" style="fill:#c7c7c7"></path><path d="M436.74,104.89a.16.16,0,0,1,.17,0,.1.1,0,0,1,0,.14.14.14,0,0,1-.16,0A.09.09,0,0,1,436.74,104.89Z" style="fill:#c7c7c7"></path><path d="M437.07,105a.13.13,0,0,1,.16,0,.09.09,0,0,1,0,.13.13.13,0,0,1-.16.06A.09.09,0,0,1,437.07,105Z" style="fill:#c7c7c7"></path><path d="M449.06,110l-.84-.33.22-.36.84.33Zm-.77-.35.75.29.18-.28-.76-.3Z" style="fill:#c7c7c7"></path><polygon points="449.02 109.6 448.48 109.39 448.33 109.63 448.87 109.84 449.02 109.6" style="fill:#c7c7c7"></polygon><polygon points="449.19 109.94 449.12 109.91 449.23 109.71 449.31 109.74 449.19 109.94" style="fill:#c7c7c7"></polygon><path d="M443.57,107.17l-1.64-.64a.09.09,0,0,1,0-.13h0a.13.13,0,0,1,.16-.06l1.64.65a.09.09,0,0,1,0,.13h0A.13.13,0,0,1,443.57,107.17Z" style="fill:#fff"></path><path d="M441.52,116.38a5,5,0,0,1-5.81,2,3.26,3.26,0,0,1-1.6-4.91,5,5,0,0,1,5.82-2A3.24,3.24,0,0,1,441.52,116.38Z" style="fill:#90CAF9"></path><path d="M437.92,119a4.94,4.94,0,0,1-2.41-.28,3.59,3.59,0,0,1-2.19-2.22,3.75,3.75,0,0,1,.43-3.18,5.45,5.45,0,0,1,6.38-2.18,3.65,3.65,0,0,1,2.19,2.21,3.71,3.71,0,0,1-.44,3.18h0A5.46,5.46,0,0,1,437.92,119Zm-.2-8a5.38,5.38,0,0,0-3.88,2.43,3.65,3.65,0,0,0-.43,3.09,3.53,3.53,0,0,0,2.14,2.15,5.33,5.33,0,0,0,6.25-2.14h0a3.64,3.64,0,0,0,.42-3.1,3.51,3.51,0,0,0-2.13-2.15A5,5,0,0,0,437.72,111Z" style="fill:#90CAF9"></path><polygon points="438.09 115.93 436.66 115.37 438.32 112.66 439.75 113.22 438.09 115.93" style="fill:#fff"></polygon><path d="M436.6,116.92a.08.08,0,0,1,0-.12l.58-.94a.1.1,0,0,1,.13,0,.07.07,0,0,1,0,.11l-.58,1A.11.11,0,0,1,436.6,116.92Z" style="fill:#fff"></path><path d="M438.32,116.32a.11.11,0,0,1-.13,0l-2-.79a.07.07,0,0,1,0-.11.13.13,0,0,1,.14,0l2,.79A.08.08,0,0,1,438.32,116.32Z" style="fill:#fff"></path><path d="M436.94,114.32a.08.08,0,0,1,0,.12l-.67,1.09a.11.11,0,0,1-.13,0,.07.07,0,0,1,0-.11l.67-1.09A.1.1,0,0,1,436.94,114.32Z" style="fill:#fff"></path><path d="M439,115.11a.07.07,0,0,1,0,.11l-.67,1.1a.11.11,0,0,1-.13,0,.07.07,0,0,1,0-.11l.67-1.09A.1.1,0,0,1,439,115.11Z" style="fill:#fff"></path><path d="M437.16,117.14,436,116.7a.08.08,0,0,1,0-.12.11.11,0,0,1,.13,0l1.12.44a.07.07,0,0,1,0,.11A.11.11,0,0,1,437.16,117.14Z" style="fill:#fff"></path><path d="M439.56,127.91l-.07.13a14.9,14.9,0,0,0-2.25-.76c-1.84-.08-2.49,1-3,.83s-.21-2.15-.93-2.44-1.27.22-1.77,0-.26-.82-1.4-1.26-2.09.52-2.74.26-.65-1.67-1.45-2l-2-.8.08-.13,2,.81c.8.31,2.18-.56,2.83-.3s.3,1.45,1.43,1.9,1.61-.09,2.11.11.34.85,1.06,1.13,2.55-1.07,3-.9-.16,1.31,1,2.43A13.71,13.71,0,0,0,439.56,127.91Z" style="fill:#90CAF9;opacity:0.4"></path><path d="M439.56,127.91l-.07.13c-1.14-.45-2.64,1.47-3.58,1.1-.68-.27-.32-2.24-1.2-2.58s-1.34.39-1.85.19-.16-1.37-1-1.68-2.64,1.9-3.47,1.57.15-2.67-.62-3-1.06,0-1.72-.23-.95-1-1.64-1.3l-.57-.22.08-.12.57.22c.68.27,1.61,0,2.28.24s.51.64,1.28.94,2.49-1.75,3.32-1.43-.39,2.79.57,3.16c.81.32,1.73-.62,2.26-.41s.11,1,.95,1.29,2.6-1.09,3.27-.82C439.39,125.35,438.43,127.47,439.56,127.91Z" style="fill:#90CAF9;opacity:0.6000000000000001"></path><path d="M423.94,121.8l0-.07h0c.8.32,1.58-.19,2.35-.36a1,1,0,0,1,1.1.32,10.83,10.83,0,0,1,.59,1,1.33,1.33,0,0,0,1,.68,4,4,0,0,0,1.19-.12.63.63,0,0,1,.53.29,5.52,5.52,0,0,1,.28.54,1.14,1.14,0,0,0,.95.62c.81,0,1.46-.69,2.32-.62a.8.8,0,0,1,.52.32,1.63,1.63,0,0,1,.21.58c.07.39.12.85.51,1a2,2,0,0,0,1.17,0,1.32,1.32,0,0,1,1.18.23,9.69,9.69,0,0,1,.76,1,2.26,2.26,0,0,0,1,.56l.06,0,0,0,0,0v0l0,0h0a2.5,2.5,0,0,0-1.14-.31c-.4,0-.8.1-1.21.12a1.2,1.2,0,0,1-1.1-.47c-.22-.35-.41-.72-.8-.85-.79-.28-1.46.57-2.31.49a.75.75,0,0,1-.54-.29,1.42,1.42,0,0,1-.22-.58,2.14,2.14,0,0,0-.41-1.11,1.37,1.37,0,0,0-1.13-.24,2.45,2.45,0,0,1-1.2.13c-.42-.17-.39-.72-.76-.92a1.55,1.55,0,0,0-1.15-.23c-.4,0-.79.16-1.19.24a1.21,1.21,0,0,1-1.15-.19,2.57,2.57,0,0,1-.5-1.1A1.35,1.35,0,0,0,423.94,121.8Zm0,0a1.37,1.37,0,0,1,.79.87,2.65,2.65,0,0,0,.5,1.09,1.19,1.19,0,0,0,1.14.18c.39-.08.78-.19,1.19-.24a1.52,1.52,0,0,1,1.17.23c.38.21.36.76.76.91s.78-.08,1.18-.14a1.41,1.41,0,0,1,1.17.25,2,2,0,0,1,.42,1.13.87.87,0,0,0,.71.82c.81.09,1.46-.79,2.34-.51a1.88,1.88,0,0,1,.84.88,1.09,1.09,0,0,0,1,.43c.4,0,.79-.11,1.21-.13a2.83,2.83,0,0,1,1.18.31l-.06,0v0l0,0,0,.08a2.4,2.4,0,0,1-1.06-.6,10.33,10.33,0,0,0-.73-1c-.64-.6-1.55.11-2.33-.26-.44-.18-.48-.68-.55-1a.89.89,0,0,0-.67-.86c-.81-.08-1.47.64-2.32.61a1.18,1.18,0,0,1-1-.65c-.1-.18-.16-.37-.27-.54a.6.6,0,0,0-.5-.27c-.39,0-.79.22-1.2.12a1.38,1.38,0,0,1-1-.7,12,12,0,0,0-.58-1.06,1,1,0,0,0-1.09-.32c-.77.17-1.55.67-2.35.35h0Z" style="fill:#90CAF9"></path><path d="M430.09,119s.05,0,.05,0a.27.27,0,0,0,.11.1h.1a.07.07,0,0,0,0,0s0,0,0,0a0,0,0,0,0,0,0,.22.22,0,0,0-.07-.06h0l-.07-.06a.13.13,0,0,1,0-.08.13.13,0,0,1,0-.06.19.19,0,0,1,.12-.07.23.23,0,0,1,.14,0,.44.44,0,0,1,.12.11s0,0,0,0,0,0-.06,0,0-.07-.08-.08a.15.15,0,0,0-.09,0,.09.09,0,0,0-.06,0v0s0,0,0,0a.22.22,0,0,0,.07.07h0l.08.06a.11.11,0,0,1,0,.08.13.13,0,0,1,0,.06.23.23,0,0,1-.12.08.25.25,0,0,1-.15,0,.26.26,0,0,1-.14-.13A0,0,0,0,1,430.09,119Z" style="fill:#263238"></path><path d="M430.56,119.16a.25.25,0,0,1,.27-.1.16.16,0,0,1,.08.22h-.06l-.22-.09a0,0,0,0,0,0,.05.07.07,0,0,0,.05.06.11.11,0,0,0,.08,0s.05,0,.05,0a0,0,0,0,1,0,0,.17.17,0,0,1-.14,0A.15.15,0,0,1,430.56,119.16Zm.1,0,.19.07a.09.09,0,0,0-.06-.11A.11.11,0,0,0,430.66,119.16Z" style="fill:#263238"></path><path d="M431.21,119.26s0,0-.06,0h0l-.11.18s0,0,0,0a0,0,0,0,1-.06,0,.07.07,0,0,1,0-.1l.11-.18h0a0,0,0,0,1,0,0s0,0,.06,0h0l.06-.09a0,0,0,0,1,.06,0s0,0,0,0l-.06.09h0S431.23,119.24,431.21,119.26Z" style="fill:#263238"></path><path d="M431.76,119.63l-.08.12a0,0,0,0,1-.06,0s0,0,0,0a.22.22,0,0,1-.11,0,.14.14,0,0,1-.08-.09.13.13,0,0,1,0-.13.26.26,0,0,1,.11-.1.2.2,0,0,1,.15,0,.17.17,0,0,1,.08.06,0,0,0,0,1,.05,0s0,0,0,0Zm-.08,0a.13.13,0,0,0,0-.08.12.12,0,0,0-.05,0,.11.11,0,0,0-.08,0,.13.13,0,0,0-.07.06.09.09,0,0,0,0,.07s0,0,.05.05h.08A.15.15,0,0,0,431.68,119.6Z" style="fill:#263238"></path><path d="M432.19,119.76l-.09.15s0,0-.06,0,0,0,0,0l.1-.16a.07.07,0,0,0,0-.09.08.08,0,0,0-.11,0l-.1.15h0a.07.07,0,0,1-.06,0s0,0,0,0l.09-.15.06-.1a0,0,0,0,1,.06,0s0,0,0,0h.09A.13.13,0,0,1,432.19,119.76Z" style="fill:#263238"></path><path d="M432.81,120l-.08.12a0,0,0,0,1-.06,0s0,0,0,0a.17.17,0,0,1-.19-.1.13.13,0,0,1,0-.13.26.26,0,0,1,.11-.1.26.26,0,0,1,.15,0,.19.19,0,0,1,.08.07s0,0,.05,0,0,0,0,0Zm-.08,0a.08.08,0,0,0,0-.13h-.08a.13.13,0,0,0-.07.06.09.09,0,0,0,0,.07,0,0,0,0,0,0,0h.08S432.72,120,432.73,120Z" style="fill:#263238"></path><path d="M433.17,119.82a0,0,0,0,1,0,.05l-.23.38a0,0,0,0,1-.06,0,0,0,0,0,1,0,0l.23-.38A0,0,0,0,1,433.17,119.82Z" style="fill:#263238"></path><path d="M433.42,120.28l-.08.12a0,0,0,0,1-.06,0s0,0,0,0a.14.14,0,0,1-.11,0,.14.14,0,0,1-.08-.09.13.13,0,0,1,0-.13.21.21,0,0,1,.11-.1.26.26,0,0,1,.15,0,.12.12,0,0,1,.07.07s0,0,.06,0,0,0,0,.05Zm-.08,0a.13.13,0,0,0,0-.08.12.12,0,0,0-.05,0,.11.11,0,0,0-.08,0,.13.13,0,0,0-.07.06.09.09,0,0,0,0,.07s0,0,.05,0a.11.11,0,0,0,.08,0A.15.15,0,0,0,433.34,120.25Z" style="fill:#263238"></path><path d="M433.84,120.29a.08.08,0,0,1-.06,0h0l-.06,0-.06,0-.07.13a.06.06,0,0,1-.06,0,0,0,0,0,1,0,0l.16-.26s0,0,.06,0,0,0,0,0h0a.14.14,0,0,1,.11,0S433.85,120.27,433.84,120.29Z" style="fill:#263238"></path><path d="M434.16,120.53h0l-.09.15s0,0-.06,0a0,0,0,0,1,0,0l.1-.15h0a.07.07,0,0,0,0-.1.13.13,0,0,0-.11,0l-.09.15h-.06s0,0,0-.05l.09-.15h0l.06-.1a0,0,0,0,1,.06,0s0,0,0,0h.09a.14.14,0,0,1,.08.09.15.15,0,0,1,.13,0,.12.12,0,0,1,.06.19l-.09.15a0,0,0,0,1-.06,0s0,0,0-.05l.09-.15s0-.08,0-.09A.09.09,0,0,0,434.16,120.53Z" style="fill:#263238"></path><path d="M434.94,120.65h0s0,0,0,0a0,0,0,0,1-.06,0h0l-.13.23s0,0-.06,0,0,0,0,0l.14-.23h0a0,0,0,0,1,0,0s0,0,.06,0h0l.05-.06.07,0H435s0,0,0,0a0,0,0,0,1-.06,0h0Z" style="fill:#263238"></path><path d="M434.92,121a.2.2,0,0,1,0-.13.23.23,0,0,1,.12-.1.2.2,0,0,1,.15,0,.14.14,0,0,1,.08.09.14.14,0,0,1,0,.14.24.24,0,0,1-.11.09.2.2,0,0,1-.15,0A.12.12,0,0,1,434.92,121Zm.1-.1a.1.1,0,0,0,0,.07.08.08,0,0,0,.05,0,.11.11,0,0,0,.08,0,.12.12,0,0,0,.07,0,.08.08,0,0,0,0-.08.07.07,0,0,0,0-.05h-.09A.12.12,0,0,0,435,120.91Z" style="fill:#263238"></path><path d="M435.67,121a0,0,0,0,1-.06,0h-.05l-.05,0-.06,0-.08.12a0,0,0,1,1-.07,0l.15-.25s0,0,.06,0a0,0,0,0,1,0,0h0a.12.12,0,0,1,.1,0S435.68,121,435.67,121Z" style="fill:#263238"></path><path d="M436.32,121.12l-.4.31a0,0,0,0,1-.05,0h0s0,0,0-.05l.35-.27L436,121a0,0,0,0,1,0-.06s0,0,.06,0l.24.1h0Z" style="fill:#263238"></path><path d="M436.45,121.24a.05.05,0,0,1,0,.07.08.08,0,0,1-.08,0,0,0,0,0,1,0-.06A.07.07,0,0,1,436.45,121.24Zm-.15.25a0,0,0,0,1,0,.07.07.07,0,0,1-.08,0,0,0,0,0,1,0-.07A.06.06,0,0,1,436.3,121.49Z" style="fill:#263238"></path><path d="M436.77,121.45a.18.18,0,0,1,0,.14.23.23,0,0,1-.12.09.19.19,0,0,1-.15,0,.15.15,0,0,1-.09-.1s0,0,0,0a0,0,0,0,1,.06,0,0,0,0,0,0,0,0h.08a.09.09,0,0,0,.06-.06.06.06,0,0,0,0-.07s0,0-.05,0a0,0,0,0,1,0,0h0a0,0,0,0,1,0,0l.11,0-.11,0a0,0,0,0,1,0,0,.06.06,0,0,1,.07,0l.2.08a0,0,0,0,1,0,0l0,0h0l-.14.05Z" style="fill:#263238"></path><path d="M436.9,121.56a.44.44,0,0,1,.14-.13.21.21,0,0,1,.17,0,.14.14,0,0,1,.09.12.41.41,0,0,1-.05.17.47.47,0,0,1-.14.14.21.21,0,0,1-.17,0,.14.14,0,0,1-.09-.12A.31.31,0,0,1,436.9,121.56Zm.27.11a.24.24,0,0,0,0-.13.07.07,0,0,0,0-.06.1.1,0,0,0-.09,0,.24.24,0,0,0-.1.1.27.27,0,0,0,0,.13.07.07,0,0,0,0,.07.18.18,0,0,0,.09,0A.24.24,0,0,0,437.17,121.67Z" style="fill:#263238"></path><path d="M437.87,122l-.08.13a0,0,0,0,1-.06,0s0,0,0,0a.2.2,0,0,1-.11,0,.13.13,0,0,1-.09-.09.15.15,0,0,1,0-.13.23.23,0,0,1,.12-.1.19.19,0,0,1,.22.06,0,0,0,0,1,.05,0,0,0,0,0,1,0,.05Zm-.07,0a.12.12,0,0,0,0-.08.12.12,0,0,0-.05,0,.11.11,0,0,0-.08,0,.18.18,0,0,0-.07,0,.12.12,0,0,0,0,.08.08.08,0,0,0,0,0,.11.11,0,0,0,.08,0Z" style="fill:#263238"></path><path d="M438.31,122.16h0l-.09.16a.07.07,0,0,1-.06,0,0,0,0,0,1,0,0l.09-.15h0s0-.07,0-.09a.11.11,0,0,0-.11,0l-.09.15h0s0,0-.05,0h0s0,0,0,0l.09-.15h0l.06-.1a0,0,0,0,1,.06,0l0,0h.09a.14.14,0,0,1,.08.09.15.15,0,0,1,.13,0,.12.12,0,0,1,.06.19l-.09.15a0,0,0,0,1-.06,0s0,0,0,0l.09-.15s0-.08,0-.09A.09.09,0,0,0,438.31,122.16Z" style="fill:#263238"></path><polygon points="430.67 132.03 425.34 129.94 426.3 128.38 431.62 130.47 430.67 132.03" style="fill:#90CAF9"></polygon><path d="M427.13,129.65a.33.33,0,0,1,.39-.13.21.21,0,0,1,.13.11,0,0,0,0,1,0,.06,0,0,0,0,1-.06,0,.24.24,0,0,0-.09-.08.26.26,0,0,0-.15,0,.23.23,0,0,0-.12.09.13.13,0,0,0,0,.13.15.15,0,0,0,.09.1.23.23,0,0,0,.14,0s0,0,.05,0a.07.07,0,0,1,0,.05.31.31,0,0,1-.19,0A.22.22,0,0,1,427.13,129.65Z" style="fill:#fff"></path><path d="M427.84,130.09l-.17-.07-.08.07s0,0,0,0h0a0,0,0,0,1,0-.05l.39-.32a0,0,0,0,1,.05,0,.05.05,0,0,1,0,0l-.08.44s0,0-.05,0h0a.05.05,0,0,1,0,0Zm0-.08,0-.16-.14.11Z" style="fill:#fff"></path><path d="M428.07,130.27s0,0-.06,0,0,0,0,0l.23-.38h0s0,0,0,0,0,0,.05,0l0,.37.17-.26a0,0,0,0,1,.06,0s0,0,0,0l-.23.37a0,0,0,0,1-.06,0l0,0h0l0-.37Z" style="fill:#fff"></path><path d="M428.63,130.24a.33.33,0,0,1,.39-.13.21.21,0,0,1,.13.11s0,0,0,.06a0,0,0,0,1-.06,0,.24.24,0,0,0-.09-.08.19.19,0,0,0-.15,0,.23.23,0,0,0-.12.09.13.13,0,0,0,0,.13.18.18,0,0,0,.09.1.23.23,0,0,0,.14,0s0,0,.05,0a0,0,0,0,1,0,0,.25.25,0,0,1-.19,0A.22.22,0,0,1,428.63,130.24Z" style="fill:#fff"></path><path d="M429.06,130.65l.23-.38.06,0h0l.23.08s0,0,0,0a0,0,0,0,1-.06,0l-.18-.07-.07.12.16.06s0,0,0,0a0,0,0,0,1-.06,0l-.16-.06-.07.12.19.07s0,0,0,.05a0,0,0,0,1-.06,0l-.22-.08h0S429.05,130.67,429.06,130.65Z" style="fill:#fff"></path><path d="M429.47,130.81l.23-.37a0,0,0,0,1,.06,0s0,0,0,.05l-.21.34.19.07s0,0,0,.05a0,0,0,0,1-.06,0l-.22-.08h0S429.46,130.83,429.47,130.81Z" style="fill:#fff"></path><path d="M432.9,120.9l-.12-.05s0,0,0,0,0,0,0,0l.27.11s0,0,0,0h0l-.13,0-.2.34h0s0,0,0,0Z" style="fill:#c7c7c7"></path><path d="M433.27,121.17l-.15.23s0,0,0,0,0,0,0,0l0,0a.14.14,0,0,1-.14,0,.11.11,0,0,1-.05-.18.18.18,0,0,1,.21-.08.12.12,0,0,1,.08.09l0,0s0,0,0,0S433.27,121.16,433.27,121.17Zm-.1.1a.1.1,0,0,0,0-.15.17.17,0,0,0-.18.07.1.1,0,0,0,.05.15A.16.16,0,0,0,433.17,121.27Z" style="fill:#c7c7c7"></path><path d="M433.31,121.34h0l.07-.12h0a0,0,0,0,1,0,0l0,0a.22.22,0,0,1,.14,0,.13.13,0,0,1,0,.19.19.19,0,0,1-.22.08.12.12,0,0,1-.07-.1l-.09.15s0,0,0,0a0,0,0,0,1,0,0Zm0,0a.1.1,0,0,0,0,.15.14.14,0,0,0,.17-.06.1.1,0,0,0,0-.15.15.15,0,0,0-.17.06Z" style="fill:#c7c7c7"></path><path d="M434.05,121.47h0l0,0-.12.2s0,0,0,0a0,0,0,0,1,0,0h0a0,0,0,0,1,0-.06l.12-.2h0s0,0,0,0,0,0,0,0l0,0,.06-.1s0,0,0,0,0,0,0,0l-.06.1h0A0,0,0,0,1,434.05,121.47Z" style="fill:#c7c7c7"></path><path d="M434.3,121.56a.12.12,0,0,1,.06.18.19.19,0,0,1-.22.08.12.12,0,0,1-.05-.19A.18.18,0,0,1,434.3,121.56Zm-.14.23a.14.14,0,0,0,.17-.06c0-.06,0-.13,0-.15a.17.17,0,0,0-.18.07A.1.1,0,0,0,434.16,121.79Z" style="fill:#c7c7c7"></path><path d="M434.62,121.84a.17.17,0,0,1,.22-.07.11.11,0,0,1,.06.17h0l-.24-.09a.09.09,0,0,0,.05.14.13.13,0,0,0,.12,0s0,0,0,0,0,0,0,0a.2.2,0,0,1-.15,0A.12.12,0,0,1,434.62,121.84Zm0,0,.22.09a.1.1,0,0,0-.06-.13A.16.16,0,0,0,434.66,121.83Z" style="fill:#c7c7c7"></path><path d="M435.17,122.16a.17.17,0,0,1-.14,0A.13.13,0,0,1,435,122a.2.2,0,0,1,.22-.08.13.13,0,0,1,.08.1l.09-.15h0a0,0,0,0,1,0,0l-.14.23h0l-.07.12h0a0,0,0,0,1,0,0Zm.05-.08h0a.1.1,0,0,0,0-.15.18.18,0,0,0-.18.06.1.1,0,0,0,.05.15A.14.14,0,0,0,435.22,122.08Z" style="fill:#c7c7c7"></path><path d="M435.5,121.94s0,0,0,0a0,0,0,0,1,0,0h0s0,0,0,0,0,0,0,0Zm-.05.08h0a0,0,0,0,1,0,0l-.15.24s0,0,0,0,0,0,0,0Z" style="fill:#c7c7c7"></path><path d="M435.71,122.12s0,0,0,0h0l-.11.19a0,0,0,0,0,0,0,0,0,0,0,1,0,0h0s0,0,0-.07l.12-.19,0,0s0,0,0,0h.06l.06-.1h0v0l-.06.1,0,0S435.72,122.12,435.71,122.12Z" style="fill:#c7c7c7"></path><path d="M432.35,120.89a.3.3,0,0,1-.36.13.21.21,0,0,1-.1-.31.31.31,0,0,1,.36-.12A.2.2,0,0,1,432.35,120.89Z" style="fill:#c7c7c7"></path><path d="M432.12,120.91s0,0,0,0h0l-.05-.15h0l.17-.06,0,0s0,0,0,0l-.14.05Z" style="fill:#fff"></path><path d="M412.92,138.33s-2.81-10.12-1.52-13.67,10.26-4.63,13.35-4.81c4.28-.24,3.63,3.23,1.83,4.68a58.8,58.8,0,0,1-5.89,4s3.63,7.06,1.64,14.69Z" style="fill:#eb9481"></path><path d="M411.32,138,435,156.07S422.49,179,413.26,182.33s-12.14,2.35-14.72,1.85-22-15.86-35-39.51c-12.26-22.34,2-15.63,12.62-7.87,6.05,4.42,25.36,15.91,26.11,15.66S411.32,138,411.32,138Z" style="fill:#263238"></path><path d="M409.52,143.33c3.69,2.72,7.3,5.55,10.88,8.41,1.76,1.4,8.52,7.25,10.47,8.89.08.07-.1.28-.19.22-1.91-1.39-9.05-7.09-10.78-8.53-3.53-2.91-7-5.85-10.46-8.9C409.38,143.37,409.46,143.28,409.52,143.33Z" style="fill:#37474f"></path><path d="M394.27,181.48c-7-5.43-20.74-18.69-30.69-36.81-6.52-11.89-5.52-15.55-1.56-15.21C365.46,134.89,384.13,165.06,394.27,181.48Z" style="fill:#37474f"></path><path d="M319.09,216.29c.16.17,69-.32,69.66-1,.87-1-15.45-75.46-22.61-84.61-1.54-2-6.53-2.45-10.76-1.88a18.49,18.49,0,0,0-3.26.7l-.11,0a7.6,7.6,0,0,0-2.39,1.2c-11.7,9.54-21.29,42.56-23.51,52.47C322.43,199.49,318.52,215.64,319.09,216.29Z" style="fill:#ebebeb"></path><path d="M351.27,129.63s4.49,30.66,5.55,38.59.05,49.91.05,49.91l-43.21,3.65s9-27.88,9.15-29.64c0,0,7.17-33.5,14.56-47.33A41.89,41.89,0,0,1,351.27,129.63Z" style="fill:#263238"></path><path d="M346.28,133.47l-13,86.65-19.59,1.66s9-27.88,9.14-29.64c0,0,7.18-33.5,14.57-47.34A42.57,42.57,0,0,1,346.28,133.47Z" style="fill:#37474f"></path><path d="M366.59,130.28s4.91,30.9,5.43,33.46,8,52.95,8,52.95l10.82.23-5.87-23S371.81,136.81,366.59,130.28Z" style="fill:#263238"></path><path d="M363.22,140.08c-3.28.37-9.5-4.19-11.24-9-.11-.33.87-3.48,1.87-7.36.61-2.36,1.22-5,1.61-7.45.08-.5,14.77,6.17,14.77,6.17a39.32,39.32,0,0,0-3,9.16,6.07,6.07,0,0,0-.05,1v.17C367.21,134.71,366.74,139.68,363.22,140.08Z" style="fill:#eb9481"></path><path d="M367.21,132.59a.86.86,0,0,0,0,.16,10.31,10.31,0,0,1-1.59-.16c-9-1.63-9.6-13.32-9.61-16.26,2.67.82,14.23,6.07,14.23,6.07a39.29,39.29,0,0,0-3,9.17A5.88,5.88,0,0,0,367.21,132.59Z" style="fill:#263238"></path><path d="M355.62,96.72c-2.35,5.26-1.45,21.43,2,25.44,5,5.82,14.18,7.47,19.37,1.23,5-6,3.49-27.09-.46-30.84C370.72,87,359.11,89,355.62,96.72Z" style="fill:#eb9481"></path><path d="M369.85,108.12s-.08.06-.08.1c.09,1.09,0,2.35-1,2.76,0,0,0,.07,0,.06C370,110.81,370.11,109.14,369.85,108.12Z" style="fill:#263238"></path><path d="M368.82,107c-1.76,0-1.72,3.48-.09,3.52S370.29,107.07,368.82,107Z" style="fill:#263238"></path><path d="M376.17,108.22s.08,0,.08.1c0,1.09.14,2.34,1.13,2.69,0,0,0,.07,0,.06C376.16,110.92,376,109.25,376.17,108.22Z" style="fill:#263238"></path><path d="M377.13,107.07c1.75-.15,1.93,3.37.3,3.51S375.66,107.2,377.13,107.07Z" style="fill:#263238"></path><path d="M367.41,105.44a13,13,0,0,0,1.36-.5,2.32,2.32,0,0,0,1.29-.77.74.74,0,0,0-.13-.9,1.85,1.85,0,0,0-1.86-.17,2.69,2.69,0,0,0-1.55,1.19A.79.79,0,0,0,367.41,105.44Z" style="fill:#263238"></path><path d="M378.47,105.29c-.49-.08-.93-.23-1.41-.35a2.36,2.36,0,0,1-1.36-.63.75.75,0,0,1,0-.91,1.87,1.87,0,0,1,1.84-.37,2.77,2.77,0,0,1,1.66,1A.8.8,0,0,1,378.47,105.29Z" style="fill:#263238"></path><path d="M369,118.25c.26.26.53.6.93.63a2.76,2.76,0,0,0,1.16-.29,0,0,0,0,1,.05.06,1.47,1.47,0,0,1-1.37.61,1.15,1.15,0,0,1-.87-1C368.84,118.24,368.92,118.22,369,118.25Z" style="fill:#263238"></path><path d="M370.07,115a3.72,3.72,0,0,0,2.5,1.63,4.56,4.56,0,0,0,1.33,0,1.09,1.09,0,0,0,.26,0l.24,0a.27.27,0,0,0,.21-.25h0a.37.37,0,0,0,0-.11h0v-.1c0-.84-.09-2.11-.09-2.11.31.15,1.88.83,1.85.39a54.85,54.85,0,0,0-1.57-11.22c0-.12-.21-.09-.2,0,.12,3.5.84,7,1,10.47a6.44,6.44,0,0,0-1.76-.52c-.12,0,.23,2.47.19,2.84v0a5.14,5.14,0,0,1-3.86-1.14C370.09,114.81,370,114.89,370.07,115Z" style="fill:#263238"></path><path d="M373.4,116.22a4.34,4.34,0,0,1-1.75,1.39,2,2,0,0,1-1.2.09c-.87-.22-.9-1-.75-1.7a4.37,4.37,0,0,1,.38-1A5.68,5.68,0,0,0,373.4,116.22Z" style="fill:#263238"></path><path d="M371.65,117.61a2,2,0,0,1-1.2.09c-.87-.22-.9-1-.75-1.7A2,2,0,0,1,371.65,117.61Z" style="fill:#ff9bbc"></path><path d="M355.66,111.24c2.84-.69,4.63-10,4.63-10s-.18,4,.57,3.92,4-5.36,4.53-9.24a30.26,30.26,0,0,0,7,3.75c3.51,1.19,7.45,1.11,7.48.51.07-1.8-1.39-6.56-3.76-8.32a12.73,12.73,0,0,0-12.57-2c-5.89,2-7.56,5.66-8.53,8.52S354.62,111.49,355.66,111.24Z" style="fill:#263238"></path><path d="M358,110.28s-3-5.5-5.5-4.47-.55,8.74,2.07,10a2.8,2.8,0,0,0,3.88-1.1Z" style="fill:#eb9481"></path><path d="M353.08,108s-.06,0,0,.07c1.83,1,2.65,2.86,3.16,4.77a1.54,1.54,0,0,0-2.25-.66c-.05,0,0,.11,0,.11a1.71,1.71,0,0,1,1.82.79,7.91,7.91,0,0,1,.74,1.62c.07.18.39.12.35-.09l0,0C357.21,112.14,355.67,108.53,353.08,108Z" style="fill:#263238"></path><path d="M370.59,89.46a23,23,0,0,0-6.4-1.93c-2.47-.32-7.6-.8-11.51,2.6-3.25,2.81-3.05,8.14-3.1,9.22s.41,7.59,2.76,9.17S355,99,358.68,95.38,370.59,89.46,370.59,89.46Z" style="fill:#90CAF9"></path><path d="M370.59,89.46s-8.18,2.26-11.91,5.92-4,14.72-6.35,13.14c-1-.69-1.53-1.73-1.95-3.46.5-3.23,1.82-8.24,4.52-11.7,2.54-3.25,6.88-4.88,11.53-5.39A26.13,26.13,0,0,1,370.59,89.46Z" style="fill:#050400;opacity:0.1"></path><path d="M353.32,115.1c.22-2.93,3.22-10.76,6.36-15.25s12.33-7.08,13.61-7c3.12.19,4.18,1.14,4.67.86s-2.71-2.63-3.58-3.16-3.24-1.77-4.59-1.74-9.72.83-12.77,4.39-7.38,13.53-6.6,16.09c.19.62,1,1,1.26,1.88.34,1.15.58,2.47.92,3.27C352.88,115.07,353.3,115.36,353.32,115.1Z" style="fill:#90CAF9"></path><path d="M360.4,97.84a14.89,14.89,0,0,1-2-1.5,10.46,10.46,0,0,1-1.73-1.85s-.12,0-.08,0a8,8,0,0,0,1.57,2.09A7,7,0,0,0,360.33,98C360.42,98,360.48,97.88,360.4,97.84Z" style="fill:#263238"></path><path d="M353.3,112.18c-.08-.22-.22-.4-.32-.61a3.13,3.13,0,0,1-.27-.72,6.82,6.82,0,0,0-.33-1.42,5.1,5.1,0,0,0-.69-1,2,2,0,0,1-.57-1.19c0-.07-.1-.07-.1,0a5,5,0,0,0,1,2.27,9.82,9.82,0,0,1,.4,1.53,2.23,2.23,0,0,0,.77,1.22C353.23,112.31,353.33,112.25,353.3,112.18Z" style="fill:#263238"></path><path d="M354.32,109a11,11,0,0,1-.82-1,10.05,10.05,0,0,1-.63-1.1c-.18-.37-.34-.76-.51-1.14s-.47-.86-.66-1.32c0,0-.11,0-.09.05.2.47.31,1,.49,1.45a10.81,10.81,0,0,0,.55,1.2,6.8,6.8,0,0,0,.69,1,3,3,0,0,0,.94.84A0,0,0,0,0,354.32,109Z" style="fill:#263238"></path><path d="M355.39,106.15a8.52,8.52,0,0,1-1.59-1.8c-.42-.66-.81-1.36-1.19-2,0,0-.1,0-.09,0a10.18,10.18,0,0,0,1,2.23,4.73,4.73,0,0,0,.74.93,5.54,5.54,0,0,0,1.06.73C355.38,106.26,355.44,106.19,355.39,106.15Z" style="fill:#263238"></path><path d="M356.56,103.41a2.76,2.76,0,0,1-.78-.78c-.25-.33-.49-.67-.73-1s-.46-.65-.68-1a2.78,2.78,0,0,1-.52-1.08s-.1,0-.1,0a3.1,3.1,0,0,0,.33,1.15,10.06,10.06,0,0,0,.66,1.15,13.07,13.07,0,0,0,.82,1,2,2,0,0,0,.94.65C356.58,103.55,356.63,103.45,356.56,103.41Z" style="fill:#263238"></path><path d="M357.41,99.94c-.28-.27-.54-.54-.79-.83s-.48-.58-.71-.88-.49-.63-.71-1a0,0,0,0,0-.09,0,7.15,7.15,0,0,0,.54,1.07,9.29,9.29,0,0,0,.7,1,9.16,9.16,0,0,0,.81.84,2.88,2.88,0,0,0,.95.67.07.07,0,0,0,.08-.1A5.9,5.9,0,0,0,357.41,99.94Z" style="fill:#263238"></path><path d="M362.65,96.18c-.29-.36-.57-.72-.89-1.05a10.47,10.47,0,0,0-1-.95,12.09,12.09,0,0,0-2.27-1.54s-.1,0-.06.07c1.39,1.2,2.82,2.33,4.19,3.53C362.63,96.29,362.69,96.23,362.65,96.18Z" style="fill:#263238"></path><path d="M364.43,93.67a5.89,5.89,0,0,0-1-.94,13.14,13.14,0,0,0-2.51-1.41.05.05,0,0,0-.05.09c.76.5,1.53,1,2.26,1.55.35.27.71.55,1,.86s.58.68.9,1a0,0,0,0,0,.06,0A3.67,3.67,0,0,0,364.43,93.67Z" style="fill:#263238"></path><path d="M366.87,92.53a6.23,6.23,0,0,0-.91-.94,7.45,7.45,0,0,0-2.14-1.26c-.05,0-.08.06,0,.08a15.32,15.32,0,0,1,2,1.47l.92.85a10.7,10.7,0,0,0,.88.9s.06,0,0,0A6.73,6.73,0,0,0,366.87,92.53Z" style="fill:#263238"></path><path d="M368.64,91.08c-.31-.25-.63-.49-.95-.72a3.9,3.9,0,0,0-1-.58.05.05,0,0,0,0,.09c.6.48,1.19,1,1.77,1.46A10,10,0,0,1,369.78,93s.06,0,.05,0A3.71,3.71,0,0,0,368.64,91.08Z" style="fill:#263238"></path><path d="M370.84,90.61a6.17,6.17,0,0,0-1.95-1.22c-.05,0-.09.06,0,.09a7.19,7.19,0,0,1,1.77,1.34,9.71,9.71,0,0,1,1.4,1.74s.08,0,.06,0A5,5,0,0,0,370.84,90.61Z" style="fill:#263238"></path><path d="M373.72,91.93a3.83,3.83,0,0,0-.25-.44,5,5,0,0,0-.65-.8,10.4,10.4,0,0,0-1.66-1.29c-.05,0-.11,0-.05.08a8.93,8.93,0,0,1,1.55,1.33,6.92,6.92,0,0,1,.63.78c.09.13.17.27.25.41a2.91,2.91,0,0,0,.25.42s.08,0,.08,0A1.46,1.46,0,0,0,373.72,91.93Z" style="fill:#263238"></path><path d="M375.48,92.09a6.76,6.76,0,0,0-.54-.66,8.21,8.21,0,0,0-.6-.58c-.22-.19-.45-.37-.66-.56s-.12,0-.07.07a4.54,4.54,0,0,1,.62.62l.55.61.55.62a6.62,6.62,0,0,0,.54.63s.08,0,.06,0A3.85,3.85,0,0,0,375.48,92.09Z" style="fill:#263238"></path><path d="M342.59,136.68c-17.34,19.47-30.39,46.89-30.23,53.34.17,7.1,9.21,32.12,17.82,43.88,1.11,1.51,7.82.87,13.5-2.25,6-3.3,10.89-9.18,9.72-10.93-4.42-6.57-14.89-32.05-14.8-36,.09-3.69,8.67-26.23,11.94-39.27C353.69,132.89,350.65,127.62,342.59,136.68Z" style="fill:#eb9481"></path><path d="M319.65,232l32.29-15.77s-12.7-28.33-12.72-31.39,8.35-27,11.5-38.1,1.93-23.51-11.86-6.77S313,181.57,311.65,188.19,319.65,232,319.65,232Z" style="fill:#263238"></path><path d="M340.88,176.67q1-3.15,2.06-6.29,1.19-3.51,2.48-7c.84-2.26,1.78-4.46,2.69-6.69.06-.16.35-.06.29.11-1.08,3-2.08,6-3.08,9,.75-1.37,1.52-2.74,2.33-4.08.06-.11.24,0,.17.09-.9,1.67-1.85,3.3-2.82,4.93l-.72,2.18c-1.36,4-2.66,8.11-3.83,12.21a14.27,14.27,0,0,0-.58,2.82,8.79,8.79,0,0,0,.48,3.21c.59,1.89,1.25,3.77,1.92,5.63,1.34,3.76,2.81,7.46,4.35,11.14,1.75,4.18,3.74,8.31,5.73,12.39,0,0-1.21.32-1.24.34s-.1,0-.07-.07.76-.39.78-.39c-2-3.54-3.95-7-5.64-10.71s-3.19-7.4-4.55-11.2c-.7-1.95-1.37-3.91-2-5.9a11,11,0,0,1-.54-5.77A60.06,60.06,0,0,1,340.88,176.67Z" style="fill:#455a64"></path><path d="M319.12,222.88a32.29,32.29,0,0,1,3.52-1.66c1.06-.49,2.1-1,3.16-1.48,2.31-1,4.61-2.1,6.93-3.12s4.61-2.07,6.93-3.07,4.58-2.09,6.94-3c.09,0,.15.11.07.15-2.14,1.32-4.43,2.42-6.68,3.54s-4.47,2.15-6.74,3.16-4.63,2-7,2.95c-1.12.46-2.27.87-3.41,1.3a28.87,28.87,0,0,1-3.69,1.3A.06.06,0,0,1,319.12,222.88Z" style="fill:#455a64"></path><path d="M319.46,170a52.74,52.74,0,0,1,4.43-9.25,47.21,47.21,0,0,1,6.08-8.27c-1.72,3-3.5,5.85-5.22,8.78S321.3,167.12,319.46,170Z" style="fill:#455a64"></path></g></svg>